{"glyphs":{"0":{"ha":806,"x_min":0,"x_max":0,"o":"m 403 -14 b 64 486 190 -14 64 172 b 403 986 64 800 190 986 b 742 486 615 986 742 800 b 403 -14 742 172 615 -14 m 560 735 b 403 857 528 815 474 857 b 206 486 276 857 206 722 b 215 351 206 438 208 392 m 403 115 b 600 486 529 115 600 250 b 590 621 600 536 597 581 l 246 238 b 403 115 279 157 332 115 "},"1":{"ha":806,"x_min":0,"x_max":0,"o":"m 99 129 l 347 129 l 347 818 l 99 664 l 99 810 l 358 972 l 494 972 l 494 129 l 735 129 l 735 0 l 99 0 "},"2":{"ha":806,"x_min":0,"x_max":0,"o":"m 101 63 b 344 428 101 176 168 278 b 543 708 489 551 543 628 b 386 857 543 797 479 857 b 224 731 299 857 231 803 l 81 731 b 390 986 83 876 214 986 b 692 715 567 986 692 875 b 447 339 692 594 619 486 b 268 129 346 251 292 189 l 725 129 l 725 0 l 101 0 "},"3":{"ha":806,"x_min":0,"x_max":0,"o":"m 96 731 b 389 986 96 881 218 986 b 689 726 564 986 689 876 b 551 524 689 631 639 560 l 551 518 b 725 279 661 481 725 396 b 397 -14 725 110 588 -14 b 76 256 213 -14 76 101 l 218 256 b 400 115 222 175 299 115 b 583 282 508 115 583 185 b 406 444 583 378 510 444 l 318 444 l 318 579 l 397 579 b 549 714 488 579 549 636 b 389 858 549 797 481 858 b 236 731 304 858 239 806 "},"4":{"ha":806,"x_min":0,"x_max":0,"o":"m 42 361 l 410 972 l 613 972 l 613 350 l 779 350 l 779 219 l 613 219 l 613 0 l 471 0 l 471 219 l 42 219 m 172 350 l 471 350 l 471 842 l 465 842 "},"5":{"ha":806,"x_min":0,"x_max":0,"o":"m 229 256 b 401 115 240 172 311 115 b 583 310 508 115 583 196 b 406 501 583 422 510 501 b 253 415 339 501 281 469 l 119 442 l 176 972 l 682 972 l 682 843 l 303 843 l 272 568 l 278 567 b 442 624 319 603 376 624 b 731 313 608 624 731 492 b 401 -14 731 122 593 -14 b 89 256 229 -14 100 97 l 229 256 "},"6":{"ha":806,"x_min":0,"x_max":0,"o":"m 429 857 b 204 507 299 857 214 722 l 211 507 b 444 624 263 581 346 624 b 743 311 617 624 743 492 b 418 -14 743 121 606 -14 b 63 474 197 -14 63 171 b 428 986 63 781 203 986 b 726 731 589 986 710 881 l 590 731 b 429 857 571 808 508 857 m 238 306 b 419 115 238 197 314 115 b 601 310 524 115 601 197 b 424 500 601 419 525 500 b 238 306 318 500 238 415 "},"7":{"ha":806,"x_min":0,"x_max":0,"o":"m 265 0 b 561 842 265 313 360 579 l 67 842 l 67 972 l 718 972 l 718 853 b 413 0 507 579 417 326 l 265 0 "},"8":{"ha":806,"x_min":0,"x_max":0,"o":"m 403 -14 b 74 271 217 -14 74 111 b 247 515 74 382 143 472 l 247 521 b 108 731 163 561 108 636 b 403 986 108 875 235 986 b 697 731 571 986 697 875 b 560 521 697 638 644 561 l 560 514 b 732 271 665 472 732 382 b 403 -14 732 111 589 -14 m 403 857 b 250 718 317 857 250 797 b 403 576 250 636 315 576 b 556 718 490 576 556 636 b 403 857 556 797 489 857 m 403 447 b 222 282 299 447 222 376 b 403 115 222 186 300 115 b 585 282 507 115 585 186 b 403 447 585 376 507 447 "},"9":{"ha":806,"x_min":0,"x_max":0,"o":"m 376 115 b 601 465 507 115 592 250 l 594 465 b 361 349 543 392 460 349 b 64 661 189 349 64 481 b 388 986 64 851 200 986 b 744 499 608 986 744 801 b 378 -14 744 192 603 -14 b 79 242 217 -14 97 92 l 215 242 b 376 115 235 164 297 115 m 568 667 b 386 857 568 775 492 857 b 206 663 282 857 206 775 b 382 472 206 553 281 472 b 568 667 488 472 568 557 "},"\u0000":{"ha":806,"x_min":0,"x_max":0,"o":""},"\r":{"ha":806,"x_min":0,"x_max":0,"o":""}," ":{"ha":806,"x_min":0,"x_max":0,"o":""},"A":{"ha":806,"x_min":0,"x_max":0,"o":"m 21 0 l 301 972 l 504 972 l 785 0 l 638 0 l 564 257 l 239 257 l 165 0 m 528 388 l 404 822 l 399 822 l 275 388 "},"Æ":{"ha":806,"x_min":0,"x_max":0,"o":"m 263 972 l 788 972 l 788 842 l 518 842 l 518 569 l 740 569 l 740 439 l 518 439 l 518 131 l 788 131 l 788 0 l 375 0 l 375 281 l 208 281 l 128 0 l -14 0 m 375 411 l 375 843 l 368 843 l 243 411 "},"Ǽ":{"ha":806,"x_min":0,"x_max":0,"o":"m 263 972 l 788 972 l 788 842 l 518 842 l 518 569 l 740 569 l 740 439 l 518 439 l 518 131 l 788 131 l 788 0 l 375 0 l 375 281 l 208 281 l 128 0 l -14 0 m 375 411 l 375 843 l 368 843 l 243 411 m 546 1092 l 425 1092 l 533 1360 l 715 1360 "},"Á":{"ha":806,"x_min":0,"x_max":0,"o":"m 21 0 l 301 972 l 504 972 l 785 0 l 638 0 l 564 257 l 239 257 l 165 0 m 528 388 l 404 822 l 399 822 l 275 388 m 433 1092 l 313 1092 l 421 1360 l 603 1360 "},"Ă":{"ha":806,"x_min":0,"x_max":0,"o":"m 21 0 l 301 972 l 504 972 l 785 0 l 638 0 l 564 257 l 239 257 l 165 0 m 528 388 l 404 822 l 399 822 l 275 388 m 319 1289 b 403 1192 325 1229 357 1192 b 488 1289 449 1192 482 1231 l 601 1289 b 403 1085 601 1169 518 1085 b 204 1289 288 1085 204 1169 l 319 1289 "},"Â":{"ha":806,"x_min":0,"x_max":0,"o":"m 21 0 l 301 972 l 504 972 l 785 0 l 638 0 l 564 257 l 239 257 l 165 0 m 528 388 l 404 822 l 399 822 l 275 388 m 333 1342 l 472 1342 l 631 1081 l 515 1081 l 403 1224 l 292 1081 l 175 1081 "},"Ä":{"ha":806,"x_min":0,"x_max":0,"o":"m 21 0 l 301 972 l 504 972 l 785 0 l 638 0 l 564 257 l 239 257 l 165 0 m 528 388 l 404 822 l 399 822 l 275 388 m 149 1204 b 254 1310 149 1264 196 1310 b 360 1204 314 1310 360 1264 b 254 1099 360 1146 314 1099 b 149 1204 196 1099 149 1146 m 446 1204 b 551 1310 446 1264 493 1310 b 657 1204 611 1310 657 1264 b 551 1099 657 1146 611 1099 b 446 1204 493 1099 446 1146 "},"À":{"ha":806,"x_min":0,"x_max":0,"o":"m 21 0 l 301 972 l 504 972 l 785 0 l 638 0 l 564 257 l 239 257 l 165 0 m 528 388 l 404 822 l 399 822 l 275 388 m 372 1092 l 203 1360 l 385 1360 l 493 1092 "},"Α":{"ha":806,"x_min":0,"x_max":0,"o":"m 21 0 l 301 972 l 504 972 l 785 0 l 638 0 l 564 257 l 239 257 l 165 0 m 528 388 l 404 822 l 399 822 l 275 388 "},"Ά":{"ha":806,"x_min":0,"x_max":0,"o":"m 21 0 l 301 972 l 504 972 l 785 0 l 638 0 l 564 257 l 239 257 l 165 0 m 528 388 l 404 822 l 399 822 l 275 388 m 165 786 l 57 786 l 100 1079 l 267 1079 "},"Ā":{"ha":806,"x_min":0,"x_max":0,"o":"m 21 0 l 301 972 l 504 972 l 785 0 l 638 0 l 564 257 l 239 257 l 165 0 m 528 388 l 404 822 l 399 822 l 275 388 m 185 1250 l 621 1250 l 621 1132 l 185 1132 "},"Ą":{"ha":806,"x_min":0,"x_max":0,"o":"m 21 0 l 301 972 l 504 972 l 785 0 l 707 0 b 590 -114 628 -32 590 -69 b 671 -182 590 -156 624 -182 b 704 -178 681 -182 694 -181 l 704 -278 b 646 -285 689 -282 668 -285 b 469 -137 542 -285 469 -225 b 625 43 469 -62 522 0 l 564 257 l 239 257 l 165 0 m 528 388 l 404 822 l 399 822 l 275 388 "},"Å":{"ha":806,"x_min":0,"x_max":0,"o":"m 21 0 l 301 972 l 504 972 l 785 0 l 638 0 l 564 257 l 239 257 l 165 0 m 528 388 l 404 822 l 399 822 l 275 388 m 229 1235 b 403 1400 229 1329 304 1400 b 576 1233 501 1400 576 1329 b 404 1063 576 1138 500 1063 b 229 1235 307 1063 229 1138 m 403 1154 b 478 1232 446 1154 478 1188 b 403 1308 478 1275 446 1308 b 328 1232 360 1308 328 1275 b 403 1154 328 1188 360 1154 "},"Ǻ":{"ha":806,"x_min":0,"x_max":0,"o":"m 21 0 l 289 926 b 229 1056 253 958 229 1004 b 346 1214 229 1132 276 1192 l 421 1401 l 603 1401 l 479 1207 b 576 1056 538 1181 576 1124 b 517 926 576 1004 553 958 l 785 0 l 638 0 l 564 257 l 239 257 l 165 0 m 528 388 l 404 822 l 399 822 l 275 388 m 403 976 b 478 1054 446 976 478 1010 b 403 1131 478 1097 446 1131 b 328 1054 360 1131 328 1097 b 403 976 328 1010 360 976 "},"Ã":{"ha":806,"x_min":0,"x_max":0,"o":"m 21 0 l 301 972 l 504 972 l 785 0 l 638 0 l 564 257 l 239 257 l 165 0 m 528 388 l 404 822 l 399 822 l 275 388 m 153 1169 b 306 1342 153 1276 211 1342 b 500 1218 435 1342 453 1218 b 532 1293 521 1218 531 1242 l 533 1322 l 653 1322 l 653 1279 b 500 1107 653 1174 594 1107 b 308 1231 371 1107 354 1231 b 274 1156 288 1231 275 1207 l 274 1126 l 153 1126 "},"B":{"ha":806,"x_min":0,"x_max":0,"o":"m 107 972 l 439 972 b 710 718 596 972 710 865 b 593 513 710 628 665 553 l 593 507 b 742 274 683 467 742 382 b 454 0 742 115 621 0 l 107 0 m 442 569 b 567 707 515 569 567 626 b 442 842 567 788 517 842 l 256 842 l 256 569 m 457 131 b 593 285 538 131 593 193 b 457 439 593 375 538 439 l 256 439 l 256 131 "},"Β":{"ha":806,"x_min":0,"x_max":0,"o":"m 107 972 l 439 972 b 710 718 596 972 710 865 b 593 513 710 628 665 553 l 593 507 b 742 274 683 467 742 382 b 454 0 742 115 621 0 l 107 0 m 442 569 b 567 707 515 569 567 626 b 442 842 567 788 517 842 l 256 842 l 256 569 m 457 131 b 593 285 538 131 593 193 b 457 439 593 375 538 439 l 256 439 l 256 131 "},"C":{"ha":806,"x_min":0,"x_max":0,"o":"m 754 256 b 439 -14 735 99 604 -14 b 64 486 217 -14 64 190 b 438 986 64 782 217 986 b 746 731 596 986 722 881 l 603 731 b 440 851 585 804 519 851 b 211 485 300 851 211 707 b 442 121 211 264 301 121 b 611 256 528 121 596 175 "},"Ć":{"ha":806,"x_min":0,"x_max":0,"o":"m 754 256 b 439 -14 735 99 604 -14 b 64 486 217 -14 64 190 b 438 986 64 782 217 986 b 746 731 596 986 722 881 l 603 731 b 440 851 585 804 519 851 b 211 485 300 851 211 707 b 442 121 211 264 301 121 b 611 256 528 121 596 175 m 460 1092 l 339 1092 l 447 1360 l 629 1360 "},"Č":{"ha":806,"x_min":0,"x_max":0,"o":"m 754 256 b 439 -14 735 99 604 -14 b 64 486 217 -14 64 190 b 438 986 64 782 217 986 b 746 731 596 986 722 881 l 603 731 b 440 851 585 804 519 851 b 211 485 300 851 211 707 b 442 121 211 264 301 121 b 611 256 528 121 596 175 m 201 1342 l 318 1342 l 429 1200 l 542 1342 l 657 1342 l 499 1081 l 360 1081 "},"Ç":{"ha":806,"x_min":0,"x_max":0,"o":"m 382 -225 b 457 -286 386 -261 417 -286 b 529 -219 500 -286 529 -258 b 457 -153 529 -181 499 -153 b 407 -169 438 -153 419 -158 l 332 -149 l 358 -4 b 64 486 181 39 64 228 b 438 986 64 782 217 986 b 746 731 596 986 722 881 l 603 731 b 440 851 585 804 519 851 b 211 485 300 851 211 707 b 442 121 211 264 301 121 b 611 256 528 121 596 175 l 754 256 b 474 -12 736 110 622 3 l 464 -74 b 639 -218 560 -60 639 -126 b 456 -379 639 -310 560 -379 b 272 -225 353 -379 275 -314 l 382 -225 "},"Ĉ":{"ha":806,"x_min":0,"x_max":0,"o":"m 754 256 b 439 -14 735 99 604 -14 b 64 486 217 -14 64 190 b 438 986 64 782 217 986 b 746 731 596 986 722 881 l 603 731 b 440 851 585 804 519 851 b 211 485 300 851 211 707 b 442 121 211 264 301 121 b 611 256 528 121 596 175 m 360 1342 l 499 1342 l 657 1081 l 542 1081 l 429 1224 l 318 1081 l 201 1081 "},"Ċ":{"ha":806,"x_min":0,"x_max":0,"o":"m 754 256 b 439 -14 735 99 604 -14 b 64 486 217 -14 64 190 b 438 986 64 782 217 986 b 746 731 596 986 722 881 l 603 731 b 440 851 585 804 519 851 b 211 485 300 851 211 707 b 442 121 211 264 301 121 b 611 256 528 121 596 175 m 315 1204 b 429 1319 315 1269 367 1319 b 543 1204 493 1319 543 1269 b 429 1090 543 1142 493 1090 b 315 1204 367 1090 315 1142 "},"Χ":{"ha":806,"x_min":0,"x_max":0,"o":"m 314 506 l 19 972 l 185 972 l 403 628 l 621 972 l 783 972 l 492 508 l 808 0 l 643 0 l 401 385 l 160 0 l -3 0 "},"D":{"ha":806,"x_min":0,"x_max":0,"o":"m 93 972 l 374 972 b 772 486 610 972 772 775 b 374 0 772 197 610 0 l 93 0 m 374 131 b 624 486 526 131 624 269 b 374 842 624 703 526 842 l 240 842 l 240 131 "},"Ď":{"ha":806,"x_min":0,"x_max":0,"o":"m 93 972 l 374 972 b 772 486 610 972 772 775 b 374 0 772 197 610 0 l 93 0 m 374 131 b 624 486 526 131 624 269 b 374 842 624 703 526 842 l 240 842 l 240 131 m 175 1342 l 292 1342 l 403 1200 l 515 1342 l 631 1342 l 472 1081 l 333 1081 "},"Đ":{"ha":806,"x_min":0,"x_max":0,"o":"m 93 426 l 14 426 l 14 546 l 93 546 l 93 972 l 374 972 b 772 486 610 972 772 775 b 374 0 772 197 610 0 l 93 0 m 374 131 b 624 486 526 131 624 269 b 374 842 624 703 526 842 l 240 842 l 240 546 l 431 546 l 431 426 l 240 426 l 240 131 "},"Δ":{"ha":806,"x_min":0,"x_max":0,"o":"m 301 972 l 504 972 l 785 0 l 21 0 m 603 131 l 404 822 l 399 822 l 200 131 "},"E":{"ha":806,"x_min":0,"x_max":0,"o":"m 138 972 l 719 972 l 719 842 l 285 842 l 285 569 l 663 569 l 663 439 l 285 439 l 285 131 l 719 131 l 719 0 l 138 0 "},"É":{"ha":806,"x_min":0,"x_max":0,"o":"m 138 972 l 719 972 l 719 842 l 285 842 l 285 569 l 663 569 l 663 439 l 285 439 l 285 131 l 719 131 l 719 0 l 138 0 m 463 1092 l 342 1092 l 450 1360 l 632 1360 "},"Ĕ":{"ha":806,"x_min":0,"x_max":0,"o":"m 138 972 l 719 972 l 719 842 l 285 842 l 285 569 l 663 569 l 663 439 l 285 439 l 285 131 l 719 131 l 719 0 l 138 0 m 349 1289 b 432 1192 354 1229 386 1192 b 517 1289 478 1192 511 1231 l 631 1289 b 432 1085 631 1169 547 1085 b 233 1289 317 1085 233 1169 l 349 1289 "},"Ě":{"ha":806,"x_min":0,"x_max":0,"o":"m 138 972 l 719 972 l 719 842 l 285 842 l 285 569 l 663 569 l 663 439 l 285 439 l 285 131 l 719 131 l 719 0 l 138 0 m 204 1342 l 321 1342 l 432 1200 l 544 1342 l 660 1342 l 501 1081 l 363 1081 "},"Ê":{"ha":806,"x_min":0,"x_max":0,"o":"m 138 972 l 719 972 l 719 842 l 285 842 l 285 569 l 663 569 l 663 439 l 285 439 l 285 131 l 719 131 l 719 0 l 138 0 m 363 1342 l 501 1342 l 660 1081 l 544 1081 l 432 1224 l 321 1081 l 204 1081 "},"Ë":{"ha":806,"x_min":0,"x_max":0,"o":"m 138 972 l 719 972 l 719 842 l 285 842 l 285 569 l 663 569 l 663 439 l 285 439 l 285 131 l 719 131 l 719 0 l 138 0 m 178 1204 b 283 1310 178 1264 225 1310 b 389 1204 343 1310 389 1264 b 283 1099 389 1146 343 1099 b 178 1204 225 1099 178 1146 m 475 1204 b 581 1310 475 1264 522 1310 b 686 1204 640 1310 686 1264 b 581 1099 686 1146 640 1099 b 475 1204 522 1099 475 1146 "},"Ė":{"ha":806,"x_min":0,"x_max":0,"o":"m 138 972 l 719 972 l 719 842 l 285 842 l 285 569 l 663 569 l 663 439 l 285 439 l 285 131 l 719 131 l 719 0 l 138 0 m 318 1204 b 432 1319 318 1269 369 1319 b 546 1204 496 1319 546 1269 b 432 1090 546 1142 496 1090 b 318 1204 369 1090 318 1142 "},"È":{"ha":806,"x_min":0,"x_max":0,"o":"m 138 972 l 719 972 l 719 842 l 285 842 l 285 569 l 663 569 l 663 439 l 285 439 l 285 131 l 719 131 l 719 0 l 138 0 m 401 1092 l 232 1360 l 414 1360 l 522 1092 "},"Ē":{"ha":806,"x_min":0,"x_max":0,"o":"m 138 972 l 719 972 l 719 842 l 285 842 l 285 569 l 663 569 l 663 439 l 285 439 l 285 131 l 719 131 l 719 0 l 138 0 m 214 1250 l 650 1250 l 650 1132 l 214 1132 "},"Ŋ":{"ha":806,"x_min":0,"x_max":0,"o":"m 603 972 l 738 972 l 738 -18 b 479 -292 738 -150 694 -292 b 331 -261 410 -292 363 -276 l 331 -143 b 456 -172 364 -158 406 -172 b 596 -18 575 -172 596 -93 l 596 0 l 546 0 l 210 825 l 204 825 l 204 0 l 68 0 l 68 972 l 286 972 l 597 217 l 603 217 "},"Ę":{"ha":806,"x_min":0,"x_max":0,"o":"m 138 972 l 719 972 l 719 842 l 285 842 l 285 569 l 663 569 l 663 439 l 285 439 l 285 131 l 719 131 l 719 4 l 725 0 b 608 -114 646 -32 608 -69 b 689 -182 608 -156 642 -182 b 722 -178 699 -182 713 -181 l 722 -278 b 664 -285 707 -282 686 -285 b 488 -137 560 -285 488 -225 b 567 0 488 -85 514 -37 l 138 0 "},"Ε":{"ha":806,"x_min":0,"x_max":0,"o":"m 138 972 l 719 972 l 719 842 l 285 842 l 285 569 l 663 569 l 663 439 l 285 439 l 285 131 l 719 131 l 719 0 l 138 0 "},"Έ":{"ha":806,"x_min":0,"x_max":0,"o":"m 138 972 l 719 972 l 719 842 l 285 842 l 285 569 l 663 569 l 663 439 l 285 439 l 285 131 l 719 131 l 719 0 l 138 0 m 33 786 l -75 786 l -32 1079 l 135 1079 "},"Η":{"ha":806,"x_min":0,"x_max":0,"o":"m 74 972 l 221 972 l 221 569 l 585 569 l 585 972 l 732 972 l 732 0 l 585 0 l 585 435 l 221 435 l 221 0 l 74 0 "},"Ή":{"ha":806,"x_min":0,"x_max":0,"o":"m 74 972 l 221 972 l 221 569 l 585 569 l 585 972 l 732 972 l 732 0 l 585 0 l 585 435 l 221 435 l 221 0 l 74 0 m -31 786 l -139 786 l -96 1079 l 71 1079 "},"Ð":{"ha":806,"x_min":0,"x_max":0,"o":"m 93 426 l 14 426 l 14 546 l 93 546 l 93 972 l 374 972 b 772 486 610 972 772 775 b 374 0 772 197 610 0 l 93 0 m 374 131 b 624 486 526 131 624 269 b 374 842 624 703 526 842 l 240 842 l 240 546 l 431 546 l 431 426 l 240 426 l 240 131 "},"€":{"ha":806,"x_min":0,"x_max":0,"o":"m 6 642 l 79 642 b 438 986 122 851 257 986 b 746 731 596 986 722 881 l 603 731 b 439 851 585 804 519 851 b 229 642 336 851 261 772 l 582 642 l 554 535 l 213 535 b 211 485 211 518 211 501 b 213 453 211 474 211 463 l 538 453 l 508 346 l 225 346 b 442 121 256 206 333 121 b 611 256 528 121 596 175 l 754 256 b 439 -14 735 99 604 -14 b 76 346 254 -14 117 128 l 6 346 l 6 453 l 64 453 b 64 486 64 464 64 475 b 65 535 64 503 64 518 l 6 535 "},"F":{"ha":806,"x_min":0,"x_max":0,"o":"m 142 972 l 724 972 l 724 842 l 289 842 l 289 547 l 668 547 l 668 418 l 289 418 l 289 0 l 142 0 "},"G":{"ha":806,"x_min":0,"x_max":0,"o":"m 393 535 l 735 535 l 735 0 l 603 0 l 603 129 l 599 129 b 372 -14 549 40 469 -14 b 40 481 181 -14 40 193 b 414 986 40 781 193 986 b 728 731 572 986 703 879 l 585 731 b 419 851 565 804 500 851 b 189 482 279 851 189 708 b 400 117 189 264 274 117 b 593 406 513 117 593 235 l 393 406 "},"Γ":{"ha":806,"x_min":0,"x_max":0,"o":"m 147 972 l 729 972 l 729 842 l 294 842 l 294 0 l 147 0 "},"Ğ":{"ha":806,"x_min":0,"x_max":0,"o":"m 393 535 l 735 535 l 735 0 l 603 0 l 603 129 l 599 129 b 372 -14 549 40 469 -14 b 40 481 181 -14 40 193 b 414 986 40 781 193 986 b 728 731 572 986 703 879 l 585 731 b 419 851 565 804 500 851 b 189 482 279 851 189 708 b 400 117 189 264 274 117 b 593 406 513 117 593 235 l 393 406 m 326 1289 b 410 1192 332 1229 364 1192 b 494 1289 456 1192 489 1231 l 608 1289 b 410 1085 608 1169 525 1085 b 211 1289 294 1085 211 1169 l 326 1289 "},"Ĝ":{"ha":806,"x_min":0,"x_max":0,"o":"m 393 535 l 735 535 l 735 0 l 603 0 l 603 129 l 599 129 b 372 -14 549 40 469 -14 b 40 481 181 -14 40 193 b 414 986 40 781 193 986 b 728 731 572 986 703 879 l 585 731 b 419 851 565 804 500 851 b 189 482 279 851 189 708 b 400 117 189 264 274 117 b 593 406 513 117 593 235 l 393 406 m 340 1342 l 479 1342 l 638 1081 l 522 1081 l 410 1224 l 299 1081 l 182 1081 "},"Ģ":{"ha":806,"x_min":0,"x_max":0,"o":"m 393 535 l 735 535 l 735 0 l 603 0 l 603 129 l 599 129 b 372 -14 549 40 469 -14 b 40 481 181 -14 40 193 b 414 986 40 781 193 986 b 728 731 572 986 703 879 l 585 731 b 419 851 565 804 500 851 b 189 482 279 851 189 708 b 400 117 189 264 274 117 b 593 406 513 117 593 235 l 393 406 m 297 -367 l 176 -367 l 285 -100 l 467 -100 "},"Ġ":{"ha":806,"x_min":0,"x_max":0,"o":"m 393 535 l 735 535 l 735 0 l 603 0 l 603 129 l 599 129 b 372 -14 549 40 469 -14 b 40 481 181 -14 40 193 b 414 986 40 781 193 986 b 728 731 572 986 703 879 l 585 731 b 419 851 565 804 500 851 b 189 482 279 851 189 708 b 400 117 189 264 274 117 b 593 406 513 117 593 235 l 393 406 m 296 1204 b 410 1319 296 1269 347 1319 b 524 1204 474 1319 524 1269 b 410 1090 524 1142 474 1090 b 296 1204 347 1090 296 1142 "},"H":{"ha":806,"x_min":0,"x_max":0,"o":"m 74 972 l 221 972 l 221 569 l 585 569 l 585 972 l 732 972 l 732 0 l 585 0 l 585 435 l 221 435 l 221 0 l 74 0 "},"Ħ":{"ha":806,"x_min":0,"x_max":0,"o":"m 74 696 l 8 696 l 8 794 l 74 794 l 74 972 l 221 972 l 221 794 l 585 794 l 585 972 l 732 972 l 732 794 l 797 794 l 797 696 l 732 696 l 732 0 l 585 0 l 585 389 l 221 389 l 221 0 l 74 0 m 585 696 l 221 696 l 221 524 l 585 524 "},"Ĥ":{"ha":806,"x_min":0,"x_max":0,"o":"m 74 972 l 221 972 l 221 569 l 585 569 l 585 972 l 732 972 l 732 0 l 585 0 l 585 435 l 221 435 l 221 0 l 74 0 m 333 1342 l 472 1342 l 631 1081 l 515 1081 l 403 1224 l 292 1081 l 175 1081 "},"I":{"ha":806,"x_min":0,"x_max":0,"o":"m 119 131 l 329 131 l 329 842 l 122 842 l 122 972 l 685 972 l 685 842 l 476 842 l 476 131 l 688 131 l 688 0 l 119 0 "},"Ĳ":{"ha":806,"x_min":0,"x_max":0,"o":"m 90 972 l 238 972 l 238 390 l 90 390 m 229 256 b 400 117 235 174 304 117 b 568 268 500 117 568 178 l 568 842 l 349 842 l 349 972 l 715 972 l 715 267 b 403 -14 715 104 586 -14 b 92 256 224 -14 93 100 "},"Í":{"ha":806,"x_min":0,"x_max":0,"o":"m 119 131 l 329 131 l 329 842 l 122 842 l 122 972 l 685 972 l 685 842 l 476 842 l 476 131 l 688 131 l 688 0 l 119 0 m 433 1092 l 313 1092 l 421 1360 l 603 1360 "},"Ĭ":{"ha":806,"x_min":0,"x_max":0,"o":"m 119 131 l 329 131 l 329 842 l 122 842 l 122 972 l 685 972 l 685 842 l 476 842 l 476 131 l 688 131 l 688 0 l 119 0 m 319 1289 b 403 1192 325 1229 357 1192 b 488 1289 449 1192 482 1231 l 601 1289 b 403 1085 601 1169 518 1085 b 204 1289 288 1085 204 1169 l 319 1289 "},"Î":{"ha":806,"x_min":0,"x_max":0,"o":"m 119 131 l 329 131 l 329 842 l 122 842 l 122 972 l 685 972 l 685 842 l 476 842 l 476 131 l 688 131 l 688 0 l 119 0 m 333 1342 l 472 1342 l 631 1081 l 515 1081 l 403 1224 l 292 1081 l 175 1081 "},"Ï":{"ha":806,"x_min":0,"x_max":0,"o":"m 119 131 l 329 131 l 329 842 l 122 842 l 122 972 l 685 972 l 685 842 l 476 842 l 476 131 l 688 131 l 688 0 l 119 0 m 149 1204 b 254 1310 149 1264 196 1310 b 360 1204 314 1310 360 1264 b 254 1099 360 1146 314 1099 b 149 1204 196 1099 149 1146 m 446 1204 b 551 1310 446 1264 493 1310 b 657 1204 611 1310 657 1264 b 551 1099 657 1146 611 1099 b 446 1204 493 1099 446 1146 "},"İ":{"ha":806,"x_min":0,"x_max":0,"o":"m 119 131 l 329 131 l 329 842 l 122 842 l 122 972 l 685 972 l 685 842 l 476 842 l 476 131 l 688 131 l 688 0 l 119 0 m 289 1204 b 403 1319 289 1269 340 1319 b 517 1204 467 1319 517 1269 b 403 1090 517 1142 467 1090 b 289 1204 340 1090 289 1142 "},"Ì":{"ha":806,"x_min":0,"x_max":0,"o":"m 119 131 l 329 131 l 329 842 l 122 842 l 122 972 l 685 972 l 685 842 l 476 842 l 476 131 l 688 131 l 688 0 l 119 0 m 372 1092 l 203 1360 l 385 1360 l 493 1092 "},"Ī":{"ha":806,"x_min":0,"x_max":0,"o":"m 119 131 l 329 131 l 329 842 l 122 842 l 122 972 l 685 972 l 685 842 l 476 842 l 476 131 l 688 131 l 688 0 l 119 0 m 185 1250 l 621 1250 l 621 1132 l 185 1132 "},"Į":{"ha":806,"x_min":0,"x_max":0,"o":"m 119 131 l 329 131 l 329 842 l 122 842 l 122 972 l 685 972 l 685 842 l 476 842 l 476 131 l 688 131 l 688 0 b 571 -114 608 -32 571 -69 b 651 -182 571 -156 604 -182 b 685 -178 661 -182 675 -181 l 685 -278 b 626 -285 669 -282 649 -285 b 450 -137 522 -285 450 -225 b 529 0 450 -85 476 -37 l 119 0 "},"Ι":{"ha":806,"x_min":0,"x_max":0,"o":"m 119 131 l 329 131 l 329 842 l 122 842 l 122 972 l 685 972 l 685 842 l 476 842 l 476 131 l 688 131 l 688 0 l 119 0 "},"Ϊ":{"ha":806,"x_min":0,"x_max":0,"o":"m 119 131 l 329 131 l 329 842 l 122 842 l 122 972 l 685 972 l 685 842 l 476 842 l 476 131 l 688 131 l 688 0 l 119 0 m 149 1204 b 254 1310 149 1264 196 1310 b 360 1204 314 1310 360 1264 b 254 1099 360 1146 314 1099 b 149 1204 196 1099 149 1146 m 446 1204 b 551 1310 446 1264 493 1310 b 657 1204 611 1310 657 1264 b 551 1099 657 1146 611 1099 b 446 1204 493 1099 446 1146 "},"Ί":{"ha":806,"x_min":0,"x_max":0,"o":"m 119 131 l 329 131 l 329 842 l 122 842 l 122 972 l 685 972 l 685 842 l 476 842 l 476 131 l 688 131 l 688 0 l 119 0 m 18 786 l -90 786 l -47 1079 l 119 1079 "},"Ĩ":{"ha":806,"x_min":0,"x_max":0,"o":"m 119 131 l 329 131 l 329 842 l 122 842 l 122 972 l 685 972 l 685 842 l 476 842 l 476 131 l 688 131 l 688 0 l 119 0 m 153 1169 b 306 1342 153 1276 211 1342 b 500 1218 435 1342 453 1218 b 532 1293 521 1218 531 1242 l 533 1322 l 653 1322 l 653 1279 b 500 1107 653 1174 594 1107 b 308 1231 371 1107 354 1231 b 274 1156 288 1231 275 1207 l 274 1126 l 153 1126 "},"J":{"ha":806,"x_min":0,"x_max":0,"o":"m 199 256 b 371 117 204 174 275 117 b 539 268 471 117 539 178 l 539 842 l 175 842 l 175 972 l 686 972 l 686 267 b 372 -14 686 104 556 -14 b 61 256 193 -14 63 100 "},"Ĵ":{"ha":806,"x_min":0,"x_max":0,"o":"m 199 256 b 371 117 204 174 275 117 b 539 268 471 117 539 178 l 539 842 l 175 842 l 175 972 l 686 972 l 686 267 b 372 -14 686 104 556 -14 b 61 256 193 -14 63 100 m 379 1342 l 518 1342 l 676 1081 l 561 1081 l 449 1224 l 338 1081 l 221 1081 "},"K":{"ha":806,"x_min":0,"x_max":0,"o":"m 225 513 l 621 972 l 800 972 l 453 568 l 815 0 l 647 0 l 357 453 l 225 300 l 225 0 l 78 0 l 78 972 l 225 972 "},"Κ":{"ha":806,"x_min":0,"x_max":0,"o":"m 225 513 l 621 972 l 800 972 l 453 568 l 815 0 l 647 0 l 357 453 l 225 300 l 225 0 l 78 0 l 78 972 l 225 972 "},"Ķ":{"ha":806,"x_min":0,"x_max":0,"o":"m 225 513 l 621 972 l 800 972 l 453 568 l 815 0 l 647 0 l 357 453 l 225 300 l 225 0 l 78 0 l 78 972 l 225 972 m 350 -367 l 229 -367 l 338 -100 l 519 -100 "},"L":{"ha":806,"x_min":0,"x_max":0,"o":"m 153 972 l 300 972 l 300 131 l 721 131 l 721 0 l 153 0 "},"Ĺ":{"ha":806,"x_min":0,"x_max":0,"o":"m 153 972 l 300 972 l 300 131 l 721 131 l 721 0 l 153 0 m 260 1092 l 139 1092 l 247 1360 l 429 1360 "},"Λ":{"ha":806,"x_min":0,"x_max":0,"o":"m 788 0 l 638 0 l 404 813 l 399 813 l 165 0 l 18 0 l 304 972 l 501 972 "},"Ľ":{"ha":806,"x_min":0,"x_max":0,"o":"m 153 972 l 300 972 l 300 131 l 721 131 l 721 0 l 153 0 m 376 714 b 563 893 486 715 563 781 b 513 875 549 882 532 875 b 422 979 461 875 422 922 b 535 1090 422 1043 471 1090 b 676 899 618 1090 676 1010 b 376 613 676 732 547 608 l 376 714 "},"Ļ":{"ha":806,"x_min":0,"x_max":0,"o":"m 153 972 l 300 972 l 300 131 l 721 131 l 721 0 l 153 0 m 356 -367 l 235 -367 l 343 -100 l 525 -100 "},"Ŀ":{"ha":806,"x_min":0,"x_max":0,"o":"m 153 972 l 300 972 l 300 131 l 721 131 l 721 0 l 153 0 m 515 533 b 635 653 515 600 569 653 b 754 533 701 653 754 600 b 635 414 754 468 701 414 b 515 533 569 414 515 468 "},"Ł":{"ha":806,"x_min":0,"x_max":0,"o":"m 153 406 l 18 336 l 18 469 l 153 540 l 153 972 l 300 972 l 300 618 l 567 758 l 567 625 l 300 483 l 300 131 l 721 131 l 721 0 l 153 0 "},"M":{"ha":806,"x_min":0,"x_max":0,"o":"m 174 0 l 36 0 l 36 972 l 242 972 l 400 375 l 406 375 l 564 972 l 769 972 l 769 0 l 633 0 l 633 801 l 628 801 l 468 203 l 338 203 l 179 801 l 174 801 "},"Μ":{"ha":806,"x_min":0,"x_max":0,"o":"m 174 0 l 36 0 l 36 972 l 242 972 l 400 375 l 406 375 l 564 972 l 769 972 l 769 0 l 633 0 l 633 801 l 628 801 l 468 203 l 338 203 l 179 801 l 174 801 "},"N":{"ha":806,"x_min":0,"x_max":0,"o":"m 603 972 l 738 972 l 738 0 l 546 0 l 210 825 l 204 825 l 204 0 l 68 0 l 68 972 l 286 972 l 597 217 l 603 217 "},"Ń":{"ha":806,"x_min":0,"x_max":0,"o":"m 603 972 l 738 972 l 738 0 l 546 0 l 210 825 l 204 825 l 204 0 l 68 0 l 68 972 l 286 972 l 597 217 l 603 217 m 433 1092 l 313 1092 l 421 1360 l 603 1360 "},"Ň":{"ha":806,"x_min":0,"x_max":0,"o":"m 603 972 l 738 972 l 738 0 l 546 0 l 210 825 l 204 825 l 204 0 l 68 0 l 68 972 l 286 972 l 597 217 l 603 217 m 175 1342 l 292 1342 l 403 1200 l 515 1342 l 631 1342 l 472 1081 l 333 1081 "},"Ņ":{"ha":806,"x_min":0,"x_max":0,"o":"m 603 972 l 738 972 l 738 0 l 546 0 l 210 825 l 204 825 l 204 0 l 68 0 l 68 972 l 286 972 l 597 217 l 603 217 m 315 -367 l 194 -367 l 303 -100 l 485 -100 "},"Ñ":{"ha":806,"x_min":0,"x_max":0,"o":"m 603 972 l 738 972 l 738 0 l 546 0 l 210 825 l 204 825 l 204 0 l 68 0 l 68 972 l 286 972 l 597 217 l 603 217 m 153 1169 b 306 1342 153 1276 211 1342 b 500 1218 435 1342 453 1218 b 532 1293 521 1218 531 1242 l 533 1322 l 653 1322 l 653 1279 b 500 1107 653 1174 594 1107 b 308 1231 371 1107 354 1231 b 274 1156 288 1231 275 1207 l 274 1126 l 153 1126 "},"Ν":{"ha":806,"x_min":0,"x_max":0,"o":"m 603 972 l 738 972 l 738 0 l 546 0 l 210 825 l 204 825 l 204 0 l 68 0 l 68 972 l 286 972 l 597 217 l 603 217 "},"O":{"ha":806,"x_min":0,"x_max":0,"o":"m 403 -14 b 32 486 185 -14 32 192 b 403 986 32 781 185 986 b 774 486 621 986 774 781 b 403 -14 774 192 621 -14 m 403 121 b 626 486 539 121 626 265 b 403 851 626 707 539 851 b 179 486 267 851 179 707 b 403 121 179 265 267 121 "},"Œ":{"ha":806,"x_min":0,"x_max":0,"o":"m 335 0 b 22 486 154 0 22 204 b 335 972 22 768 154 972 l 788 972 l 788 842 l 522 842 l 522 569 l 740 569 l 740 439 l 522 439 l 522 131 l 788 131 l 788 0 l 335 0 m 335 842 b 165 486 235 842 165 697 b 335 131 165 275 235 131 l 379 131 l 379 842 l 335 842 "},"Ó":{"ha":806,"x_min":0,"x_max":0,"o":"m 403 -14 b 32 486 185 -14 32 192 b 403 986 32 781 185 986 b 774 486 621 986 774 781 b 403 -14 774 192 621 -14 m 403 121 b 626 486 539 121 626 265 b 403 851 626 707 539 851 b 179 486 267 851 179 707 b 403 121 179 265 267 121 m 433 1092 l 313 1092 l 421 1360 l 603 1360 "},"Ŏ":{"ha":806,"x_min":0,"x_max":0,"o":"m 403 -14 b 32 486 185 -14 32 192 b 403 986 32 781 185 986 b 774 486 621 986 774 781 b 403 -14 774 192 621 -14 m 403 121 b 626 486 539 121 626 265 b 403 851 626 707 539 851 b 179 486 267 851 179 707 b 403 121 179 265 267 121 m 319 1289 b 403 1192 325 1229 357 1192 b 488 1289 449 1192 482 1231 l 601 1289 b 403 1085 601 1169 518 1085 b 204 1289 288 1085 204 1169 l 319 1289 "},"Ô":{"ha":806,"x_min":0,"x_max":0,"o":"m 403 -14 b 32 486 185 -14 32 192 b 403 986 32 781 185 986 b 774 486 621 986 774 781 b 403 -14 774 192 621 -14 m 403 121 b 626 486 539 121 626 265 b 403 851 626 707 539 851 b 179 486 267 851 179 707 b 403 121 179 265 267 121 m 333 1342 l 472 1342 l 631 1081 l 515 1081 l 403 1224 l 292 1081 l 175 1081 "},"Ö":{"ha":806,"x_min":0,"x_max":0,"o":"m 403 -14 b 32 486 185 -14 32 192 b 403 986 32 781 185 986 b 774 486 621 986 774 781 b 403 -14 774 192 621 -14 m 403 121 b 626 486 539 121 626 265 b 403 851 626 707 539 851 b 179 486 267 851 179 707 b 403 121 179 265 267 121 m 149 1204 b 254 1310 149 1264 196 1310 b 360 1204 314 1310 360 1264 b 254 1099 360 1146 314 1099 b 149 1204 196 1099 149 1146 m 446 1204 b 551 1310 446 1264 493 1310 b 657 1204 611 1310 657 1264 b 551 1099 657 1146 611 1099 b 446 1204 493 1099 446 1146 "},"Ò":{"ha":806,"x_min":0,"x_max":0,"o":"m 403 -14 b 32 486 185 -14 32 192 b 403 986 32 781 185 986 b 774 486 621 986 774 781 b 403 -14 774 192 621 -14 m 403 121 b 626 486 539 121 626 265 b 403 851 626 707 539 851 b 179 486 267 851 179 707 b 403 121 179 265 267 121 m 372 1092 l 203 1360 l 385 1360 l 493 1092 "},"Ω":{"ha":806,"x_min":0,"x_max":0,"o":"m 403 856 b 179 526 276 856 179 713 b 361 142 179 368 249 224 l 361 0 l 46 0 l 46 131 l 225 131 l 225 136 b 32 540 107 217 32 371 b 403 986 32 789 194 986 b 774 540 611 986 774 789 b 581 136 774 371 699 217 l 581 131 l 760 131 l 760 0 l 444 0 l 444 142 b 626 526 557 224 626 368 b 403 856 626 713 529 856 "},"Ő":{"ha":806,"x_min":0,"x_max":0,"o":"m 403 -14 b 32 486 185 -14 32 192 b 403 986 32 781 185 986 b 774 486 621 986 774 781 b 403 -14 774 192 621 -14 m 403 121 b 626 486 539 121 626 265 b 403 851 626 707 539 851 b 179 486 267 851 179 707 b 403 121 179 265 267 121 m 328 1092 l 207 1092 l 315 1360 l 497 1360 m 569 1092 l 449 1092 l 557 1360 l 739 1360 "},"Ō":{"ha":806,"x_min":0,"x_max":0,"o":"m 403 -14 b 32 486 185 -14 32 192 b 403 986 32 781 185 986 b 774 486 621 986 774 781 b 403 -14 774 192 621 -14 m 403 121 b 626 486 539 121 626 265 b 403 851 626 707 539 851 b 179 486 267 851 179 707 b 403 121 179 265 267 121 m 185 1250 l 621 1250 l 621 1132 l 185 1132 "},"Ω":{"ha":806,"x_min":0,"x_max":0,"o":"m 403 856 b 179 526 276 856 179 713 b 361 142 179 368 249 224 l 361 0 l 46 0 l 46 131 l 225 131 l 225 136 b 32 540 107 217 32 371 b 403 986 32 789 194 986 b 774 540 611 986 774 789 b 581 136 774 371 699 217 l 581 131 l 760 131 l 760 0 l 444 0 l 444 142 b 626 526 557 224 626 368 b 403 856 626 713 529 856 "},"Ώ":{"ha":806,"x_min":0,"x_max":0,"o":"m 403 856 b 179 526 276 856 179 713 b 361 142 179 368 249 224 l 361 0 l 46 0 l 46 131 l 225 131 l 225 136 b 32 540 107 217 32 371 b 403 986 32 789 194 986 b 774 540 611 986 774 789 b 581 136 774 371 699 217 l 581 131 l 760 131 l 760 0 l 444 0 l 444 142 b 626 526 557 224 626 368 b 403 856 626 713 529 856 m 31 786 l -78 786 l -35 1079 l 132 1079 "},"Ο":{"ha":806,"x_min":0,"x_max":0,"o":"m 403 -14 b 32 486 185 -14 32 192 b 403 986 32 781 185 986 b 774 486 621 986 774 781 b 403 -14 774 192 621 -14 m 403 121 b 626 486 539 121 626 265 b 403 851 626 707 539 851 b 179 486 267 851 179 707 b 403 121 179 265 267 121 "},"Ό":{"ha":806,"x_min":0,"x_max":0,"o":"m 403 -14 b 32 486 185 -14 32 192 b 403 986 32 781 185 986 b 774 486 621 986 774 781 b 403 -14 774 192 621 -14 m 403 121 b 626 486 539 121 626 265 b 403 851 626 707 539 851 b 179 486 267 851 179 707 b 403 121 179 265 267 121 m 31 786 l -78 786 l -35 1079 l 132 1079 "},"Ø":{"ha":806,"x_min":0,"x_max":0,"o":"m 140 119 b 32 486 72 208 32 336 b 403 986 32 781 185 986 b 586 929 471 986 533 965 l 665 1072 l 760 1021 l 667 851 b 774 486 735 763 774 636 b 403 -14 774 192 621 -14 b 219 43 335 -14 272 6 l 142 -100 l 47 -49 m 179 486 b 218 263 179 399 193 322 l 519 807 b 403 851 486 836 447 851 b 179 486 267 851 179 707 m 403 121 b 626 486 539 121 626 265 b 588 708 626 574 613 649 l 288 164 b 403 121 319 136 358 121 "},"Ǿ":{"ha":806,"x_min":0,"x_max":0,"o":"m 140 119 b 32 486 72 208 32 336 b 403 986 32 781 185 986 b 586 929 471 986 533 965 l 665 1072 l 760 1021 l 667 851 b 774 486 735 763 774 636 b 403 -14 774 192 621 -14 b 219 43 335 -14 272 6 l 142 -100 l 47 -49 m 179 486 b 218 263 179 399 193 322 l 519 807 b 403 851 486 836 447 851 b 179 486 267 851 179 707 m 403 121 b 626 486 539 121 626 265 b 588 708 626 574 613 649 l 288 164 b 403 121 319 136 358 121 m 431 1092 l 310 1092 l 418 1360 l 600 1360 "},"Õ":{"ha":806,"x_min":0,"x_max":0,"o":"m 403 -14 b 32 486 185 -14 32 192 b 403 986 32 781 185 986 b 774 486 621 986 774 781 b 403 -14 774 192 621 -14 m 403 121 b 626 486 539 121 626 265 b 403 851 626 707 539 851 b 179 486 267 851 179 707 b 403 121 179 265 267 121 m 153 1169 b 306 1342 153 1276 211 1342 b 500 1218 435 1342 453 1218 b 532 1293 521 1218 531 1242 l 533 1322 l 653 1322 l 653 1279 b 500 1107 653 1174 594 1107 b 308 1231 371 1107 354 1231 b 274 1156 288 1231 275 1207 l 274 1126 l 153 1126 "},"P":{"ha":806,"x_min":0,"x_max":0,"o":"m 114 972 l 465 972 b 763 683 640 972 763 853 b 465 393 763 514 640 393 l 261 393 l 261 0 l 114 0 m 472 524 b 621 683 561 524 621 588 b 472 842 621 778 561 842 l 261 842 l 261 524 "},"Φ":{"ha":806,"x_min":0,"x_max":0,"o":"m 332 0 l 332 107 b 32 486 151 138 32 285 b 332 865 32 688 151 835 l 332 972 l 474 972 l 474 865 b 774 486 654 835 774 688 b 474 107 774 285 654 138 l 474 0 m 175 486 b 332 246 175 363 235 275 l 332 726 b 175 486 235 697 175 610 m 631 486 b 474 726 631 610 571 697 l 474 246 b 631 486 571 275 631 363 "},"Π":{"ha":806,"x_min":0,"x_max":0,"o":"m 74 972 l 732 972 l 732 0 l 585 0 l 585 838 l 221 838 l 221 0 l 74 0 "},"Ψ":{"ha":806,"x_min":0,"x_max":0,"o":"m 765 629 b 474 278 765 439 651 306 l 474 0 l 332 0 l 332 278 b 42 629 154 306 42 439 l 42 972 l 183 972 l 183 629 b 332 417 183 519 239 442 l 332 972 l 474 972 l 474 417 b 622 629 567 442 622 519 l 622 972 l 765 972 "},"Q":{"ha":806,"x_min":0,"x_max":0,"o":"m 604 57 b 403 -14 547 11 479 -14 b 32 486 185 -14 32 192 b 403 986 32 781 185 986 b 774 486 621 986 774 781 b 676 133 774 343 738 221 l 829 -19 l 756 -94 m 403 121 b 506 154 442 121 476 133 l 333 328 l 408 401 l 574 236 b 626 486 607 299 626 385 b 403 851 626 707 539 851 b 179 486 267 851 179 707 b 403 121 179 265 267 121 "},"R":{"ha":806,"x_min":0,"x_max":0,"o":"m 464 547 b 607 696 549 547 607 607 b 464 842 607 783 549 842 l 256 842 l 256 547 m 107 972 l 457 972 b 749 694 629 972 749 858 b 561 432 749 567 675 469 l 778 0 l 617 0 l 407 417 l 256 417 l 256 0 l 107 0 "},"Ŕ":{"ha":806,"x_min":0,"x_max":0,"o":"m 464 547 b 607 696 549 547 607 607 b 464 842 607 783 549 842 l 256 842 l 256 547 m 107 972 l 457 972 b 749 694 629 972 749 858 b 561 432 749 567 675 469 l 778 0 l 617 0 l 407 417 l 256 417 l 256 0 l 107 0 m 446 1092 l 325 1092 l 433 1360 l 615 1360 "},"Ř":{"ha":806,"x_min":0,"x_max":0,"o":"m 464 547 b 607 696 549 547 607 607 b 464 842 607 783 549 842 l 256 842 l 256 547 m 107 972 l 457 972 b 749 694 629 972 749 858 b 561 432 749 567 675 469 l 778 0 l 617 0 l 407 417 l 256 417 l 256 0 l 107 0 m 188 1342 l 304 1342 l 415 1200 l 528 1342 l 643 1342 l 485 1081 l 346 1081 "},"Ŗ":{"ha":806,"x_min":0,"x_max":0,"o":"m 464 547 b 607 696 549 547 607 607 b 464 842 607 783 549 842 l 256 842 l 256 547 m 107 972 l 457 972 b 749 694 629 972 749 858 b 561 432 749 567 675 469 l 778 0 l 617 0 l 407 417 l 256 417 l 256 0 l 107 0 m 349 -367 l 228 -367 l 336 -100 l 518 -100 "},"Ρ":{"ha":806,"x_min":0,"x_max":0,"o":"m 114 972 l 465 972 b 763 683 640 972 763 853 b 465 393 763 514 640 393 l 261 393 l 261 0 l 114 0 m 472 524 b 621 683 561 524 621 588 b 472 842 621 778 561 842 l 261 842 l 261 524 "},"S":{"ha":806,"x_min":0,"x_max":0,"o":"m 207 256 b 406 111 217 171 299 111 b 590 268 515 111 590 175 b 424 419 590 349 535 399 l 367 431 b 93 700 183 465 93 554 b 401 986 93 871 217 986 b 725 731 579 986 717 878 l 588 731 b 406 857 578 804 501 857 b 236 710 304 857 236 797 b 386 569 236 635 286 589 l 442 558 b 735 276 636 522 735 428 b 410 -19 735 100 603 -19 b 71 256 218 -19 76 97 "},"Ś":{"ha":806,"x_min":0,"x_max":0,"o":"m 207 256 b 406 111 217 171 299 111 b 590 268 515 111 590 175 b 424 419 590 349 535 399 l 367 431 b 93 700 183 465 93 554 b 401 986 93 871 217 986 b 725 731 579 986 717 878 l 588 731 b 406 857 578 804 501 857 b 236 710 304 857 236 797 b 386 569 236 635 286 589 l 442 558 b 735 276 636 522 735 428 b 410 -19 735 100 603 -19 b 71 256 218 -19 76 97 m 429 1092 l 308 1092 l 417 1360 l 599 1360 "},"Š":{"ha":806,"x_min":0,"x_max":0,"o":"m 207 256 b 406 111 217 171 299 111 b 590 268 515 111 590 175 b 424 419 590 349 535 399 l 367 431 b 93 700 183 465 93 554 b 401 986 93 871 217 986 b 725 731 579 986 717 878 l 588 731 b 406 857 578 804 501 857 b 236 710 304 857 236 797 b 386 569 236 635 286 589 l 442 558 b 735 276 636 522 735 428 b 410 -19 735 100 603 -19 b 71 256 218 -19 76 97 m 171 1342 l 288 1342 l 399 1200 l 511 1342 l 626 1342 l 468 1081 l 329 1081 "},"Ş":{"ha":806,"x_min":0,"x_max":0,"o":"m 361 -225 b 436 -286 365 -261 396 -286 b 508 -219 479 -286 508 -258 b 436 -153 508 -181 478 -153 b 386 -169 417 -153 399 -158 l 311 -149 l 336 -14 b 71 256 183 13 75 118 l 207 256 b 406 111 217 171 299 111 b 590 268 515 111 590 175 b 424 419 590 349 535 399 l 367 431 b 93 700 183 465 93 554 b 401 986 93 871 217 986 b 725 731 579 986 717 878 l 588 731 b 406 857 578 804 501 857 b 236 710 304 857 236 797 b 386 569 236 635 286 589 l 442 558 b 735 276 636 522 735 428 b 453 -18 735 114 622 -1 l 443 -74 b 618 -218 539 -60 618 -126 b 435 -379 618 -310 539 -379 b 251 -225 332 -379 254 -314 l 361 -225 "},"Ŝ":{"ha":806,"x_min":0,"x_max":0,"o":"m 207 256 b 406 111 217 171 299 111 b 590 268 515 111 590 175 b 424 419 590 349 535 399 l 367 431 b 93 700 183 465 93 554 b 401 986 93 871 217 986 b 725 731 579 986 717 878 l 588 731 b 406 857 578 804 501 857 b 236 710 304 857 236 797 b 386 569 236 635 286 589 l 442 558 b 735 276 636 522 735 428 b 410 -19 735 100 603 -19 b 71 256 218 -19 76 97 m 329 1342 l 468 1342 l 626 1081 l 511 1081 l 399 1224 l 288 1081 l 171 1081 "},"Ș":{"ha":806,"x_min":0,"x_max":0,"o":"m 207 256 b 406 111 217 171 299 111 b 590 268 515 111 590 175 b 424 419 590 349 535 399 l 367 431 b 93 700 183 465 93 554 b 401 986 93 871 217 986 b 725 731 579 986 717 878 l 588 731 b 406 857 578 804 501 857 b 236 710 304 857 236 797 b 386 569 236 635 286 589 l 442 558 b 735 276 636 522 735 428 b 410 -19 735 100 603 -19 b 71 256 218 -19 76 97 m 321 -367 l 200 -367 l 308 -100 l 490 -100 "},"Σ":{"ha":806,"x_min":0,"x_max":0,"o":"m 60 119 l 408 492 l 68 849 l 68 968 l 717 968 l 717 839 l 269 839 l 597 493 l 258 131 l 746 131 l 746 0 l 60 0 "},"T":{"ha":806,"x_min":0,"x_max":0,"o":"m 329 842 l 46 842 l 46 972 l 760 972 l 760 842 l 476 842 l 476 0 l 329 0 "},"Τ":{"ha":806,"x_min":0,"x_max":0,"o":"m 329 842 l 46 842 l 46 972 l 760 972 l 760 842 l 476 842 l 476 0 l 329 0 "},"Ŧ":{"ha":806,"x_min":0,"x_max":0,"o":"m 329 399 l 186 399 l 186 517 l 329 517 l 329 842 l 46 842 l 46 972 l 760 972 l 760 842 l 476 842 l 476 517 l 622 517 l 622 399 l 476 399 l 476 0 l 329 0 "},"Ť":{"ha":806,"x_min":0,"x_max":0,"o":"m 329 842 l 46 842 l 46 972 l 760 972 l 760 842 l 476 842 l 476 0 l 329 0 m 175 1342 l 292 1342 l 403 1200 l 515 1342 l 631 1342 l 472 1081 l 333 1081 "},"Ţ":{"ha":806,"x_min":0,"x_max":0,"o":"m 329 842 l 46 842 l 46 972 l 760 972 l 760 842 l 476 842 l 476 0 l 463 0 l 450 -74 b 625 -218 546 -60 625 -126 b 442 -379 625 -310 546 -379 b 258 -225 339 -379 261 -314 l 368 -225 b 443 -286 372 -261 403 -286 b 515 -219 486 -286 515 -258 b 443 -153 515 -181 485 -153 b 393 -169 424 -153 406 -158 l 318 -149 l 344 0 l 329 0 "},"Ț":{"ha":806,"x_min":0,"x_max":0,"o":"m 329 842 l 46 842 l 46 972 l 760 972 l 760 842 l 476 842 l 476 0 l 329 0 m 328 -367 l 207 -367 l 315 -100 l 497 -100 "},"Θ":{"ha":806,"x_min":0,"x_max":0,"o":"m 403 -14 b 32 486 185 -14 32 192 b 403 986 32 781 185 986 b 774 486 621 986 774 781 b 403 -14 774 192 621 -14 m 403 121 b 626 486 539 121 626 265 b 403 851 626 707 539 851 b 179 486 267 851 179 707 b 403 121 179 265 267 121 m 254 551 l 553 551 l 553 421 l 254 421 "},"Þ":{"ha":806,"x_min":0,"x_max":0,"o":"m 111 972 l 258 972 l 258 782 l 456 782 b 746 493 625 782 746 663 b 456 204 746 324 625 204 l 258 204 l 258 0 l 111 0 m 456 333 b 599 493 540 333 599 399 b 456 653 599 588 540 653 l 258 653 l 258 333 "},"U":{"ha":806,"x_min":0,"x_max":0,"o":"m 732 306 b 403 -14 732 119 593 -14 b 74 306 213 -14 74 119 l 74 972 l 221 972 l 221 306 b 403 121 221 197 296 121 b 585 306 511 121 585 197 l 585 972 l 732 972 "},"Ú":{"ha":806,"x_min":0,"x_max":0,"o":"m 732 306 b 403 -14 732 119 593 -14 b 74 306 213 -14 74 119 l 74 972 l 221 972 l 221 306 b 403 121 221 197 296 121 b 585 306 511 121 585 197 l 585 972 l 732 972 m 433 1092 l 313 1092 l 421 1360 l 603 1360 "},"Ŭ":{"ha":806,"x_min":0,"x_max":0,"o":"m 732 306 b 403 -14 732 119 593 -14 b 74 306 213 -14 74 119 l 74 972 l 221 972 l 221 306 b 403 121 221 197 296 121 b 585 306 511 121 585 197 l 585 972 l 732 972 m 319 1289 b 403 1192 325 1229 357 1192 b 488 1289 449 1192 482 1231 l 601 1289 b 403 1085 601 1169 518 1085 b 204 1289 288 1085 204 1169 l 319 1289 "},"Û":{"ha":806,"x_min":0,"x_max":0,"o":"m 732 306 b 403 -14 732 119 593 -14 b 74 306 213 -14 74 119 l 74 972 l 221 972 l 221 306 b 403 121 221 197 296 121 b 585 306 511 121 585 197 l 585 972 l 732 972 m 333 1342 l 472 1342 l 631 1081 l 515 1081 l 403 1224 l 292 1081 l 175 1081 "},"Ü":{"ha":806,"x_min":0,"x_max":0,"o":"m 732 306 b 403 -14 732 119 593 -14 b 74 306 213 -14 74 119 l 74 972 l 221 972 l 221 306 b 403 121 221 197 296 121 b 585 306 511 121 585 197 l 585 972 l 732 972 m 149 1204 b 254 1310 149 1264 196 1310 b 360 1204 314 1310 360 1264 b 254 1099 360 1146 314 1099 b 149 1204 196 1099 149 1146 m 446 1204 b 551 1310 446 1264 493 1310 b 657 1204 611 1310 657 1264 b 551 1099 657 1146 611 1099 b 446 1204 493 1099 446 1146 "},"Ù":{"ha":806,"x_min":0,"x_max":0,"o":"m 732 306 b 403 -14 732 119 593 -14 b 74 306 213 -14 74 119 l 74 972 l 221 972 l 221 306 b 403 121 221 197 296 121 b 585 306 511 121 585 197 l 585 972 l 732 972 m 372 1092 l 203 1360 l 385 1360 l 493 1092 "},"Ű":{"ha":806,"x_min":0,"x_max":0,"o":"m 732 306 b 403 -14 732 119 593 -14 b 74 306 213 -14 74 119 l 74 972 l 221 972 l 221 306 b 403 121 221 197 296 121 b 585 306 511 121 585 197 l 585 972 l 732 972 m 328 1092 l 207 1092 l 315 1360 l 497 1360 m 569 1092 l 449 1092 l 557 1360 l 739 1360 "},"Ū":{"ha":806,"x_min":0,"x_max":0,"o":"m 732 306 b 403 -14 732 119 593 -14 b 74 306 213 -14 74 119 l 74 972 l 221 972 l 221 306 b 403 121 221 197 296 121 b 585 306 511 121 585 197 l 585 972 l 732 972 m 185 1250 l 621 1250 l 621 1132 l 185 1132 "},"Ų":{"ha":806,"x_min":0,"x_max":0,"o":"m 732 306 b 532 8 732 165 653 54 b 490 -64 504 -12 490 -37 b 571 -132 490 -106 524 -132 b 604 -128 581 -132 594 -131 l 604 -228 b 546 -235 589 -232 568 -235 b 369 -87 442 -235 369 -175 b 389 -14 369 -61 376 -36 b 74 306 206 -7 74 124 l 74 972 l 221 972 l 221 306 b 403 121 221 197 296 121 b 585 306 511 121 585 197 l 585 972 l 732 972 "},"Υ":{"ha":806,"x_min":0,"x_max":0,"o":"m 329 408 l 11 972 l 172 972 l 406 553 l 639 972 l 794 972 l 476 408 l 476 0 l 329 0 "},"Ϋ":{"ha":806,"x_min":0,"x_max":0,"o":"m 329 408 l 11 972 l 172 972 l 406 553 l 639 972 l 794 972 l 476 408 l 476 0 l 329 0 m 149 1204 b 254 1310 149 1264 196 1310 b 360 1204 314 1310 360 1264 b 254 1099 360 1146 314 1099 b 149 1204 196 1099 149 1146 m 446 1204 b 551 1310 446 1264 493 1310 b 657 1204 611 1310 657 1264 b 551 1099 657 1146 611 1099 b 446 1204 493 1099 446 1146 "},"Ύ":{"ha":806,"x_min":0,"x_max":0,"o":"m 329 408 l 11 972 l 172 972 l 406 553 l 639 972 l 794 972 l 476 408 l 476 0 l 329 0 m -65 786 l -174 786 l -131 1079 l 36 1079 "},"Ů":{"ha":806,"x_min":0,"x_max":0,"o":"m 732 306 b 403 -14 732 119 593 -14 b 74 306 213 -14 74 119 l 74 972 l 221 972 l 221 306 b 403 121 221 197 296 121 b 585 306 511 121 585 197 l 585 972 l 732 972 m 229 1235 b 403 1400 229 1329 304 1400 b 576 1233 501 1400 576 1329 b 404 1063 576 1138 500 1063 b 229 1235 307 1063 229 1138 m 403 1154 b 478 1232 446 1154 478 1188 b 403 1308 478 1275 446 1308 b 328 1232 360 1308 328 1275 b 403 1154 328 1188 360 1154 "},"Ũ":{"ha":806,"x_min":0,"x_max":0,"o":"m 732 306 b 403 -14 732 119 593 -14 b 74 306 213 -14 74 119 l 74 972 l 221 972 l 221 306 b 403 121 221 197 296 121 b 585 306 511 121 585 197 l 585 972 l 732 972 m 153 1169 b 306 1342 153 1276 211 1342 b 500 1218 435 1342 453 1218 b 532 1293 521 1218 531 1242 l 533 1322 l 653 1322 l 653 1279 b 500 1107 653 1174 594 1107 b 308 1231 371 1107 354 1231 b 274 1156 288 1231 275 1207 l 274 1126 l 153 1126 "},"V":{"ha":806,"x_min":0,"x_max":0,"o":"m 18 972 l 168 972 l 401 160 l 407 160 l 640 972 l 788 972 l 501 0 l 304 0 "},"W":{"ha":806,"x_min":0,"x_max":0,"o":"m -24 972 l 111 972 l 179 206 l 185 206 l 344 829 l 463 829 l 621 206 l 626 206 l 694 972 l 829 972 l 736 0 l 560 0 l 406 606 l 400 606 l 246 0 l 69 0 "},"Ẃ":{"ha":806,"x_min":0,"x_max":0,"o":"m -24 972 l 111 972 l 179 206 l 185 206 l 344 829 l 463 829 l 621 206 l 626 206 l 694 972 l 829 972 l 736 0 l 560 0 l 406 606 l 400 606 l 246 0 l 69 0 m 433 1092 l 313 1092 l 421 1360 l 603 1360 "},"Ŵ":{"ha":806,"x_min":0,"x_max":0,"o":"m -24 972 l 111 972 l 179 206 l 185 206 l 344 829 l 463 829 l 621 206 l 626 206 l 694 972 l 829 972 l 736 0 l 560 0 l 406 606 l 400 606 l 246 0 l 69 0 m 333 1342 l 472 1342 l 631 1081 l 515 1081 l 403 1224 l 292 1081 l 175 1081 "},"Ẅ":{"ha":806,"x_min":0,"x_max":0,"o":"m -24 972 l 111 972 l 179 206 l 185 206 l 344 829 l 463 829 l 621 206 l 626 206 l 694 972 l 829 972 l 736 0 l 560 0 l 406 606 l 400 606 l 246 0 l 69 0 m 149 1204 b 254 1310 149 1264 196 1310 b 360 1204 314 1310 360 1264 b 254 1099 360 1146 314 1099 b 149 1204 196 1099 149 1146 m 446 1204 b 551 1310 446 1264 493 1310 b 657 1204 611 1310 657 1264 b 551 1099 657 1146 611 1099 b 446 1204 493 1099 446 1146 "},"Ẁ":{"ha":806,"x_min":0,"x_max":0,"o":"m -24 972 l 111 972 l 179 206 l 185 206 l 344 829 l 463 829 l 621 206 l 626 206 l 694 972 l 829 972 l 736 0 l 560 0 l 406 606 l 400 606 l 246 0 l 69 0 m 372 1092 l 203 1360 l 385 1360 l 493 1092 "},"X":{"ha":806,"x_min":0,"x_max":0,"o":"m 314 506 l 19 972 l 185 972 l 403 628 l 621 972 l 783 972 l 492 508 l 808 0 l 643 0 l 401 385 l 160 0 l -3 0 "},"Ξ":{"ha":806,"x_min":0,"x_max":0,"o":"m 86 131 l 719 131 l 719 0 l 86 0 m 143 569 l 663 569 l 663 439 l 143 439 m 86 972 l 719 972 l 719 842 l 86 842 "},"Y":{"ha":806,"x_min":0,"x_max":0,"o":"m 329 408 l 11 972 l 172 972 l 406 553 l 639 972 l 794 972 l 476 408 l 476 0 l 329 0 "},"Ý":{"ha":806,"x_min":0,"x_max":0,"o":"m 329 408 l 11 972 l 172 972 l 406 553 l 639 972 l 794 972 l 476 408 l 476 0 l 329 0 m 433 1092 l 313 1092 l 421 1360 l 603 1360 "},"Ŷ":{"ha":806,"x_min":0,"x_max":0,"o":"m 329 408 l 11 972 l 172 972 l 406 553 l 639 972 l 794 972 l 476 408 l 476 0 l 329 0 m 333 1342 l 472 1342 l 631 1081 l 515 1081 l 403 1224 l 292 1081 l 175 1081 "},"Ÿ":{"ha":806,"x_min":0,"x_max":0,"o":"m 329 408 l 11 972 l 172 972 l 406 553 l 639 972 l 794 972 l 476 408 l 476 0 l 329 0 m 149 1204 b 254 1310 149 1264 196 1310 b 360 1204 314 1310 360 1264 b 254 1099 360 1146 314 1099 b 149 1204 196 1099 149 1146 m 446 1204 b 551 1310 446 1264 493 1310 b 657 1204 611 1310 657 1264 b 551 1099 657 1146 611 1099 b 446 1204 493 1099 446 1146 "},"Ỳ":{"ha":806,"x_min":0,"x_max":0,"o":"m 329 408 l 11 972 l 172 972 l 406 553 l 639 972 l 794 972 l 476 408 l 476 0 l 329 0 m 372 1092 l 203 1360 l 385 1360 l 493 1092 "},"Z":{"ha":806,"x_min":0,"x_max":0,"o":"m 60 119 l 543 842 l 74 842 l 74 972 l 722 972 l 722 853 l 239 131 l 746 131 l 746 0 l 60 0 "},"Ź":{"ha":806,"x_min":0,"x_max":0,"o":"m 60 119 l 543 842 l 74 842 l 74 972 l 722 972 l 722 853 l 239 131 l 746 131 l 746 0 l 60 0 m 433 1092 l 313 1092 l 421 1360 l 603 1360 "},"Ž":{"ha":806,"x_min":0,"x_max":0,"o":"m 60 119 l 543 842 l 74 842 l 74 972 l 722 972 l 722 853 l 239 131 l 746 131 l 746 0 l 60 0 m 175 1342 l 292 1342 l 403 1200 l 515 1342 l 631 1342 l 472 1081 l 333 1081 "},"Ż":{"ha":806,"x_min":0,"x_max":0,"o":"m 60 119 l 543 842 l 74 842 l 74 972 l 722 972 l 722 853 l 239 131 l 746 131 l 746 0 l 60 0 m 289 1204 b 403 1319 289 1269 340 1319 b 517 1204 467 1319 517 1269 b 403 1090 517 1142 467 1090 b 289 1204 340 1090 289 1142 "},"Ζ":{"ha":806,"x_min":0,"x_max":0,"o":"m 60 119 l 543 842 l 74 842 l 74 972 l 722 972 l 722 853 l 239 131 l 746 131 l 746 0 l 60 0 "},"a":{"ha":806,"x_min":0,"x_max":0,"o":"m 540 528 b 401 644 540 600 488 644 b 256 550 322 644 263 607 l 118 550 b 403 764 121 674 240 764 b 682 528 569 764 682 669 l 682 268 b 710 0 682 160 692 71 l 574 0 b 551 108 564 29 556 65 l 544 108 b 332 -14 503 31 429 -14 b 90 215 190 -14 90 81 b 411 449 90 354 196 429 l 469 454 b 540 528 518 458 540 482 m 360 100 b 540 288 461 100 540 182 l 540 378 b 479 358 524 368 504 361 l 425 351 b 233 218 290 335 233 294 b 360 100 233 147 283 100 "},"á":{"ha":806,"x_min":0,"x_max":0,"o":"m 540 528 b 401 644 540 600 488 644 b 256 550 322 644 263 607 l 118 550 b 403 764 121 674 240 764 b 682 528 569 764 682 669 l 682 268 b 710 0 682 160 692 71 l 574 0 b 551 108 564 29 556 65 l 544 108 b 332 -14 503 31 429 -14 b 90 215 190 -14 90 81 b 411 449 90 354 196 429 l 469 454 b 540 528 518 458 540 482 m 360 100 b 540 288 461 100 540 182 l 540 378 b 479 358 524 368 504 361 l 425 351 b 233 218 290 335 233 294 b 360 100 233 147 283 100 m 429 869 l 308 869 l 417 1138 l 599 1138 "},"ă":{"ha":806,"x_min":0,"x_max":0,"o":"m 540 528 b 401 644 540 600 488 644 b 256 550 322 644 263 607 l 118 550 b 403 764 121 674 240 764 b 682 528 569 764 682 669 l 682 268 b 710 0 682 160 692 71 l 574 0 b 551 108 564 29 556 65 l 544 108 b 332 -14 503 31 429 -14 b 90 215 190 -14 90 81 b 411 449 90 354 196 429 l 469 454 b 540 528 518 458 540 482 m 360 100 b 540 288 461 100 540 182 l 540 378 b 479 358 524 368 504 361 l 425 351 b 233 218 290 335 233 294 b 360 100 233 147 283 100 m 315 1067 b 399 969 321 1007 353 969 b 483 1067 444 969 478 1008 l 597 1067 b 399 863 597 947 514 863 b 200 1067 283 863 200 947 l 315 1067 "},"â":{"ha":806,"x_min":0,"x_max":0,"o":"m 540 528 b 401 644 540 600 488 644 b 256 550 322 644 263 607 l 118 550 b 403 764 121 674 240 764 b 682 528 569 764 682 669 l 682 268 b 710 0 682 160 692 71 l 574 0 b 551 108 564 29 556 65 l 544 108 b 332 -14 503 31 429 -14 b 90 215 190 -14 90 81 b 411 449 90 354 196 429 l 469 454 b 540 528 518 458 540 482 m 360 100 b 540 288 461 100 540 182 l 540 378 b 479 358 524 368 504 361 l 425 351 b 233 218 290 335 233 294 b 360 100 233 147 283 100 m 329 1119 l 468 1119 l 626 858 l 511 858 l 399 1001 l 288 858 l 171 858 "},"␆":{"ha":806,"x_min":0,"x_max":0,"o":"m 1 868 l 131 1354 l 258 1354 l 388 868 l 297 868 l 267 992 l 121 992 l 90 868 m 244 1072 l 196 1263 l 193 1263 l 143 1072 m 582 376 b 422 236 574 294 507 236 b 231 486 310 236 231 339 b 421 736 231 633 308 736 b 578 603 503 736 567 681 l 486 603 b 419 651 478 633 451 651 b 322 486 361 651 322 588 b 421 321 322 385 361 321 b 489 376 457 321 483 343 m 535 -104 l 704 104 l 814 104 l 650 -96 l 821 -382 l 717 -382 l 590 -169 l 535 -237 l 535 -382 l 443 -382 l 443 104 l 535 104 "},"´":{"ha":806,"x_min":0,"x_max":0,"o":"m 328 719 l 179 719 l 422 1083 l 628 1083 "},"́":{"ha":806,"x_min":0,"x_max":0,"o":"m 379 869 l 258 869 l 367 1138 l 549 1138 "},"ä":{"ha":806,"x_min":0,"x_max":0,"o":"m 540 528 b 401 644 540 600 488 644 b 256 550 322 644 263 607 l 118 550 b 403 764 121 674 240 764 b 682 528 569 764 682 669 l 682 268 b 710 0 682 160 692 71 l 574 0 b 551 108 564 29 556 65 l 544 108 b 332 -14 503 31 429 -14 b 90 215 190 -14 90 81 b 411 449 90 354 196 429 l 469 454 b 540 528 518 458 540 482 m 360 100 b 540 288 461 100 540 182 l 540 378 b 479 358 524 368 504 361 l 425 351 b 233 218 290 335 233 294 b 360 100 233 147 283 100 m 144 982 b 250 1088 144 1042 192 1088 b 356 982 310 1088 356 1042 b 250 876 356 924 310 876 b 144 982 192 876 144 924 m 442 982 b 547 1088 442 1042 489 1088 b 653 982 607 1088 653 1042 b 547 876 653 924 607 876 b 442 982 489 876 442 924 "},"æ":{"ha":806,"x_min":0,"x_max":0,"o":"m 199 -14 b 4 206 83 -14 4 76 b 265 447 4 353 107 447 l 325 447 l 325 482 b 225 647 325 576 283 647 b 136 550 182 647 142 607 l 15 550 b 218 764 21 674 108 764 b 396 624 301 764 364 713 l 401 624 b 575 764 439 714 497 764 b 801 393 710 764 801 613 l 801 338 l 458 338 b 581 103 465 190 510 103 b 679 200 628 103 669 142 l 796 200 b 582 -14 781 76 692 -14 b 397 138 497 -14 433 40 l 392 138 b 199 -14 357 42 289 -14 m 676 447 b 571 649 672 572 632 649 b 460 447 508 649 469 575 m 265 338 b 129 210 181 338 129 290 b 208 103 129 146 161 103 b 325 306 276 103 325 189 l 325 338 "},"ǽ":{"ha":806,"x_min":0,"x_max":0,"o":"m 199 -14 b 4 206 83 -14 4 76 b 265 447 4 353 107 447 l 325 447 l 325 482 b 225 647 325 576 283 647 b 136 550 182 647 142 607 l 15 550 b 218 764 21 674 108 764 b 396 624 301 764 364 713 l 401 624 b 575 764 439 714 497 764 b 801 393 710 764 801 613 l 801 338 l 458 338 b 581 103 465 190 510 103 b 679 200 628 103 669 142 l 796 200 b 582 -14 781 76 692 -14 b 397 138 497 -14 433 40 l 392 138 b 199 -14 357 42 289 -14 m 676 447 b 571 649 672 572 632 649 b 460 447 508 649 469 575 m 265 338 b 129 210 181 338 129 290 b 208 103 129 146 161 103 b 325 306 276 103 325 189 l 325 338 m 433 872 l 313 872 l 421 1140 l 603 1140 "},"à":{"ha":806,"x_min":0,"x_max":0,"o":"m 540 528 b 401 644 540 600 488 644 b 256 550 322 644 263 607 l 118 550 b 403 764 121 674 240 764 b 682 528 569 764 682 669 l 682 268 b 710 0 682 160 692 71 l 574 0 b 551 108 564 29 556 65 l 544 108 b 332 -14 503 31 429 -14 b 90 215 190 -14 90 81 b 411 449 90 354 196 429 l 469 454 b 540 528 518 458 540 482 m 360 100 b 540 288 461 100 540 182 l 540 378 b 479 358 524 368 504 361 l 425 351 b 233 218 290 335 233 294 b 360 100 233 147 283 100 m 368 869 l 199 1138 l 381 1138 l 489 869 "},"α":{"ha":806,"x_min":0,"x_max":0,"o":"m 350 764 b 581 590 453 764 531 706 l 614 750 l 757 750 l 678 375 l 757 0 l 614 0 l 581 160 b 350 -14 531 44 453 -14 b 47 375 176 -14 47 153 b 350 764 47 599 176 764 m 547 375 l 532 444 b 367 635 506 568 447 635 b 189 375 264 635 189 525 b 367 115 189 225 264 115 b 532 306 449 115 506 182 "},"ά":{"ha":806,"x_min":0,"x_max":0,"o":"m 350 764 b 581 590 453 764 531 706 l 614 750 l 757 750 l 678 375 l 757 0 l 614 0 l 581 160 b 350 -14 531 44 453 -14 b 47 375 176 -14 47 153 b 350 764 47 599 176 764 m 547 375 l 532 444 b 367 635 506 568 447 635 b 189 375 264 635 189 525 b 367 115 189 225 264 115 b 532 306 449 115 506 182 m 425 858 l 317 858 l 360 1151 l 526 1151 "},"⎇":{"ha":806,"x_min":0,"x_max":0,"o":"m 225 1 l -10 1 l -10 122 l 144 122 l 501 976 l 815 976 l 815 856 l 582 856 m 463 1 l 463 122 l 815 122 l 815 1 "},"ā":{"ha":806,"x_min":0,"x_max":0,"o":"m 540 528 b 401 644 540 600 488 644 b 256 550 322 644 263 607 l 118 550 b 403 764 121 674 240 764 b 682 528 569 764 682 669 l 682 268 b 710 0 682 160 692 71 l 574 0 b 551 108 564 29 556 65 l 544 108 b 332 -14 503 31 429 -14 b 90 215 190 -14 90 81 b 411 449 90 354 196 429 l 469 454 b 540 528 518 458 540 482 m 360 100 b 540 288 461 100 540 182 l 540 378 b 479 358 524 368 504 361 l 425 351 b 233 218 290 335 233 294 b 360 100 233 147 283 100 m 181 1028 l 617 1028 l 617 910 l 181 910 "},"&":{"ha":806,"x_min":0,"x_max":0,"o":"m 535 103 b 268 -19 456 25 364 -19 b 13 229 119 -19 13 86 b 178 515 13 335 69 431 l 165 529 b 67 758 100 604 67 682 b 307 986 67 889 167 986 b 549 761 447 986 549 890 b 392 508 549 667 493 579 l 374 496 l 531 314 b 603 493 560 367 585 428 l 744 493 b 622 210 715 383 674 288 l 804 0 l 625 0 m 278 110 b 450 201 336 110 396 143 l 263 417 b 154 238 192 361 154 301 b 278 110 154 163 206 110 m 208 754 b 278 606 208 708 232 658 l 289 593 l 315 613 b 411 758 378 657 411 706 b 311 857 411 815 369 857 b 208 754 250 857 208 814 "},"ą":{"ha":806,"x_min":0,"x_max":0,"o":"m 707 -278 b 649 -285 692 -282 671 -285 b 472 -137 544 -285 472 -225 b 569 13 472 -79 506 -28 b 551 108 561 39 556 71 l 544 108 b 332 -14 503 31 429 -14 b 90 215 190 -14 90 81 b 411 449 90 354 196 429 l 469 454 b 540 528 518 458 540 482 b 401 644 540 600 488 644 b 256 550 322 644 263 607 l 118 550 b 403 764 121 674 240 764 b 682 528 569 764 682 669 l 682 268 b 710 0 682 160 692 71 b 593 -114 631 -32 593 -69 b 674 -182 593 -156 626 -182 b 707 -178 683 -182 697 -181 l 707 -278 m 360 100 b 540 288 461 100 540 182 l 540 378 b 479 358 524 368 504 361 l 425 351 b 233 218 290 335 233 294 b 360 100 233 147 283 100 "},"":{"ha":806,"x_min":0,"x_max":0,"o":"m -14 972 l 819 972 l 819 0 l -14 0 m 486 654 l 489 654 l 576 347 l 635 347 l 724 654 l 726 654 l 726 243 l 786 243 l 786 729 l 694 729 l 607 425 l 604 425 l 518 729 l 425 729 l 425 243 l 486 243 m 310 368 b 217 296 300 325 264 296 b 94 486 143 296 94 371 b 215 678 94 601 142 678 b 304 611 260 678 296 651 l 367 611 b 215 736 356 685 293 736 b 29 486 106 736 29 635 b 215 236 29 339 106 236 b 372 368 296 236 361 292 "},"≈":{"ha":806,"x_min":0,"x_max":0,"o":"m 58 519 b 260 746 58 657 138 746 b 550 561 438 746 454 561 b 619 676 593 561 617 599 l 621 718 l 747 718 l 747 667 b 546 440 747 529 668 440 b 256 625 368 440 350 625 b 186 510 213 625 189 588 l 185 468 l 58 468 m 58 194 b 260 421 58 332 138 421 b 550 236 438 421 454 236 b 619 351 593 236 617 274 l 621 393 l 747 393 l 747 342 b 546 115 747 204 668 115 b 256 300 368 115 350 300 b 186 185 213 300 189 263 l 185 143 l 58 143 "},"å":{"ha":806,"x_min":0,"x_max":0,"o":"m 540 528 b 401 644 540 600 488 644 b 256 550 322 644 263 607 l 118 550 b 403 764 121 674 240 764 b 682 528 569 764 682 669 l 682 268 b 710 0 682 160 692 71 l 574 0 b 551 108 564 29 556 65 l 544 108 b 332 -14 503 31 429 -14 b 90 215 190 -14 90 81 b 411 449 90 354 196 429 l 469 454 b 540 528 518 458 540 482 m 360 100 b 540 288 461 100 540 182 l 540 378 b 479 358 524 368 504 361 l 425 351 b 233 218 290 335 233 294 b 360 100 233 147 283 100 m 225 1013 b 399 1178 225 1107 300 1178 b 572 1011 497 1178 572 1107 b 400 840 572 915 496 840 b 225 1013 303 840 225 915 m 399 932 b 474 1010 442 932 474 965 b 399 1086 474 1053 442 1086 b 324 1010 356 1086 324 1053 b 399 932 324 965 356 932 "},"ǻ":{"ha":806,"x_min":0,"x_max":0,"o":"m 540 528 b 401 644 540 600 488 644 b 256 550 322 644 263 607 l 118 550 b 403 764 121 674 240 764 b 682 528 569 764 682 669 l 682 268 b 710 0 682 160 692 71 l 574 0 b 551 108 564 29 556 65 l 544 108 b 332 -14 503 31 429 -14 b 90 215 190 -14 90 81 b 411 449 90 354 196 429 l 469 454 b 540 528 518 458 540 482 m 478 1163 b 576 1011 538 1136 576 1081 b 403 840 576 915 500 840 b 229 1011 307 840 229 915 b 343 1169 229 1086 276 1147 l 421 1360 l 603 1360 m 360 100 b 540 288 461 100 540 182 l 540 378 b 479 358 524 368 504 361 l 425 351 b 233 218 290 335 233 294 b 360 100 233 147 283 100 m 403 932 b 478 1010 446 932 478 965 b 403 1086 478 1053 446 1086 b 328 1010 360 1086 328 1053 b 403 932 328 965 360 932 "},"↔":{"ha":806,"x_min":0,"x_max":0,"o":"m 222 415 l 342 297 l 251 207 l -28 486 l 251 765 l 342 675 l 222 557 l 225 551 l 581 551 l 583 557 l 464 675 l 554 765 l 833 486 l 554 207 l 464 297 l 583 415 l 581 421 l 225 421 "},"⇒":{"ha":806,"x_min":0,"x_max":0,"o":"m 457 233 l -21 233 l -21 357 l 581 357 l 653 431 l 581 504 l -21 504 l -21 628 l 457 628 l 292 792 l 382 882 l 833 431 l 382 -21 l 292 69 "},"↓":{"ha":806,"x_min":0,"x_max":0,"o":"m 475 238 l 639 403 l 729 313 l 403 -14 l 76 313 l 167 403 l 332 238 l 338 240 l 338 972 l 469 972 l 469 240 "},"⌤":{"ha":806,"x_min":0,"x_max":0,"o":"m 332 650 l 474 650 l 681 324 l 536 324 l 403 533 l 269 324 l 125 324 m 213 650 l 213 529 l -10 529 l -10 650 m 813 650 l 813 529 l 590 529 l 590 650 "},"←":{"ha":806,"x_min":0,"x_max":0,"o":"m 222 415 l 389 250 l 299 160 l -28 486 l 299 813 l 389 722 l 222 557 l 225 551 l 826 551 l 826 421 l 225 421 "},"→":{"ha":806,"x_min":0,"x_max":0,"o":"m 581 421 l -21 421 l -21 551 l 581 551 l 583 557 l 417 722 l 507 813 l 833 486 l 507 160 l 417 250 l 583 415 "},"➜":{"ha":806,"x_min":0,"x_max":0,"o":"m 581 421 l -21 421 l -21 551 l 581 551 l 583 557 l 417 722 l 507 813 l 833 486 l 507 160 l 417 250 l 583 415 "},"↑":{"ha":806,"x_min":0,"x_max":0,"o":"m 332 735 l 167 569 l 76 660 l 403 986 l 729 660 l 639 569 l 475 735 l 469 732 l 469 0 l 338 0 l 338 732 "},"↕":{"ha":806,"x_min":0,"x_max":0,"o":"m 332 735 l 186 589 l 96 679 l 403 986 l 710 679 l 619 589 l 474 735 l 468 732 l 468 240 l 474 238 l 619 383 l 710 293 l 403 -14 l 96 293 l 186 383 l 332 238 l 338 240 l 338 732 "},"↨":{"ha":806,"x_min":0,"x_max":0,"o":"m 332 735 l 186 589 l 96 679 l 403 986 l 710 679 l 619 589 l 474 735 l 468 732 l 468 240 l 474 238 l 619 383 l 710 293 l 403 -14 l 96 293 l 186 383 l 332 238 l 338 240 l 338 732 m 83 -60 l 722 -60 l 722 -189 l 83 -189 "},"^":{"ha":806,"x_min":0,"x_max":0,"o":"m 325 972 l 481 972 l 724 503 l 581 503 l 403 844 l 225 503 l 82 503 "},"~":{"ha":806,"x_min":0,"x_max":0,"o":"m 58 357 b 260 583 58 494 138 583 b 550 399 438 583 454 399 b 619 514 593 399 617 436 l 621 556 l 747 556 l 747 504 b 546 278 747 367 668 278 b 256 463 368 278 350 463 b 186 347 213 463 189 425 l 185 306 l 58 306 "},"*":{"ha":806,"x_min":0,"x_max":0,"o":"m 708 575 l 746 458 l 503 379 l 653 172 l 553 99 l 403 306 l 253 99 l 153 172 l 303 379 l 60 458 l 97 575 l 342 496 l 342 751 l 465 751 l 465 496 "},"∗":{"ha":806,"x_min":0,"x_max":0,"o":"m 708 631 l 746 514 l 503 435 l 653 228 l 553 154 l 403 361 l 253 154 l 153 228 l 303 435 l 60 514 l 97 631 l 342 551 l 342 807 l 465 807 l 465 551 "},"@":{"ha":806,"x_min":0,"x_max":0,"o":"m 482 176 b 289 426 369 176 289 282 b 507 703 289 583 383 703 b 661 603 576 703 631 665 l 667 603 b 463 821 674 733 593 821 b 139 421 279 821 139 647 b 457 42 139 200 269 42 b 653 117 533 42 604 68 l 729 40 b 454 -69 664 -31 567 -69 b 18 417 199 -69 18 132 b 463 931 18 710 210 931 b 779 583 663 931 790 792 l 758 186 l 636 186 l 640 260 l 635 260 b 482 176 597 207 544 176 m 526 289 b 649 449 596 289 649 357 b 542 590 649 532 604 590 b 417 429 472 590 417 519 b 526 289 417 347 463 289 "},"ã":{"ha":806,"x_min":0,"x_max":0,"o":"m 540 528 b 401 644 540 600 488 644 b 256 550 322 644 263 607 l 118 550 b 403 764 121 674 240 764 b 682 528 569 764 682 669 l 682 268 b 710 0 682 160 692 71 l 574 0 b 551 108 564 29 556 65 l 544 108 b 332 -14 503 31 429 -14 b 90 215 190 -14 90 81 b 411 449 90 354 196 429 l 469 454 b 540 528 518 458 540 482 m 360 100 b 540 288 461 100 540 182 l 540 378 b 479 358 524 368 504 361 l 425 351 b 233 218 290 335 233 294 b 360 100 233 147 283 100 m 149 947 b 301 1119 149 1054 207 1119 b 496 996 431 1119 449 996 b 528 1071 517 996 526 1019 l 529 1100 l 649 1100 l 649 1057 b 496 885 649 951 590 885 b 304 1008 367 885 350 1008 b 269 933 283 1008 271 985 l 269 904 l 149 904 "},"b":{"ha":806,"x_min":0,"x_max":0,"o":"m 99 1028 l 240 1028 l 240 632 l 246 632 b 457 764 290 717 363 764 b 760 375 633 764 760 601 b 457 -14 760 149 633 -14 b 239 133 357 -14 283 38 l 233 133 l 233 0 l 99 0 m 428 115 b 617 375 539 115 617 222 b 428 635 617 529 539 635 b 238 375 315 635 238 528 b 428 115 238 222 315 115 "},"\\":{"ha":806,"x_min":0,"x_max":0,"o":"m 743 -236 l 601 -236 l 64 1097 l 204 1097 "},"␈":{"ha":806,"x_min":0,"x_max":0,"o":"m 149 1042 l 315 1042 b 456 913 396 1042 456 986 b 404 813 456 869 436 835 l 404 810 b 471 696 444 788 471 746 b 322 556 471 615 408 556 l 149 556 m 315 847 b 367 904 346 847 367 872 b 315 961 367 936 346 961 l 240 961 l 240 847 m 322 636 b 378 701 356 636 378 664 b 322 768 378 740 356 768 l 240 768 l 240 636 m 375 417 l 668 417 l 668 336 l 467 336 l 467 222 l 643 222 l 643 143 l 467 143 l 467 11 l 668 11 l 668 -69 l 375 -69 "},"✗":{"ha":806,"x_min":0,"x_max":0,"o":"m -24 32 b 310 496 64 176 175 332 b -24 861 203 618 93 738 l 71 963 b 397 601 185 842 292 722 b 740 974 500 721 614 846 l 829 885 b 482 501 699 750 583 622 b 829 69 596 367 708 225 l 728 -7 b 396 396 615 136 507 268 b 100 -37 278 246 181 104 "},"|":{"ha":806,"x_min":0,"x_max":0,"o":"m 338 1097 l 468 1097 l 468 -236 l 338 -236 "},"␇":{"ha":806,"x_min":0,"x_max":0,"o":"m 44 1354 l 211 1354 b 351 1225 292 1354 351 1299 b 300 1125 351 1182 332 1147 l 300 1122 b 367 1008 340 1100 367 1058 b 218 868 367 928 304 868 l 44 868 m 211 1160 b 263 1217 242 1160 263 1185 b 211 1274 263 1249 242 1274 l 136 1274 l 136 1160 m 218 949 b 274 1014 251 949 274 976 b 218 1081 274 1053 251 1081 l 136 1081 l 136 949 m 271 729 l 564 729 l 564 649 l 363 649 l 363 535 l 539 535 l 539 456 l 363 456 l 363 324 l 564 324 l 564 243 l 271 243 m 482 104 l 574 104 l 574 -301 l 769 -301 l 769 -382 l 482 -382 "},"β":{"ha":806,"x_min":0,"x_max":0,"o":"m 251 -278 l 110 -278 l 110 750 b 400 1056 110 935 226 1056 b 685 783 568 1056 685 943 b 572 567 685 686 642 608 b 739 297 675 522 739 425 b 454 -14 739 119 617 -14 b 257 82 372 -14 303 21 l 251 82 m 251 294 b 422 115 251 189 324 115 b 597 301 524 115 597 193 b 425 483 597 407 526 483 l 351 483 l 351 613 l 406 613 b 549 775 492 613 549 679 b 406 926 549 869 494 926 b 251 764 313 926 251 861 l 251 294 "},"␢":{"ha":806,"x_min":0,"x_max":0,"o":"m -14 767 l 99 826 l 99 1028 l 240 1028 l 240 901 l 428 1001 l 428 890 l 240 790 l 240 632 l 246 632 b 457 764 290 717 363 764 b 760 375 633 764 760 601 b 457 -14 760 149 633 -14 b 239 133 357 -14 283 38 l 233 133 l 233 0 l 99 0 l 99 715 l -14 656 m 428 115 b 617 375 539 115 617 222 b 428 635 617 529 539 635 b 238 375 315 635 238 528 b 428 115 238 222 315 115 "},"█":{"ha":806,"x_min":0,"x_max":0,"o":"m -14 1250 l 819 1250 l 819 -278 l -14 -278 "},"⌨":{"ha":806,"x_min":0,"x_max":0,"o":"m -14 194 l -14 778 l 819 778 l 819 194 m 736 272 l 736 700 l 69 700 l 69 272 m 125 644 l 208 644 l 208 561 l 125 561 m 264 644 l 347 644 l 347 561 l 264 561 m 403 644 l 486 644 l 486 561 l 403 561 m 597 561 l 542 561 l 542 644 l 681 644 l 681 436 l 597 436 m 181 519 l 264 519 l 264 436 l 181 436 m 319 519 l 403 519 l 403 436 l 319 436 m 458 519 l 542 519 l 542 436 l 458 436 m 264 389 l 542 389 l 542 319 l 264 319 "},"{":{"ha":806,"x_min":0,"x_max":0,"o":"m 301 428 b 464 172 404 413 471 307 l 457 26 b 588 -107 453 -58 500 -107 l 697 -107 l 697 -236 l 582 -236 b 314 35 403 -236 306 -137 l 322 176 b 156 365 328 292 264 365 l 92 365 l 92 497 l 156 497 b 322 686 264 497 328 569 l 314 828 b 582 1097 306 999 403 1097 l 688 1097 l 688 968 l 588 968 b 457 835 500 968 453 919 l 464 689 b 301 433 471 554 404 450 "},"}":{"ha":806,"x_min":0,"x_max":0,"o":"m 504 433 b 342 689 401 450 335 554 l 349 835 b 218 968 353 919 307 968 l 118 968 l 118 1097 l 225 1097 b 492 828 403 1097 501 999 l 485 686 b 650 497 479 569 542 497 l 714 497 l 714 365 l 650 365 b 485 176 542 365 479 292 l 492 35 b 225 -236 501 -137 403 -236 l 108 -236 l 108 -107 l 218 -107 b 349 26 307 -107 353 -58 l 342 172 b 504 428 335 307 401 413 "},"[":{"ha":806,"x_min":0,"x_max":0,"o":"m 240 1097 l 672 1097 l 672 968 l 382 968 l 382 -107 l 672 -107 l 672 -236 l 240 -236 "},"]":{"ha":806,"x_min":0,"x_max":0,"o":"m 565 -236 l 133 -236 l 133 -107 l 424 -107 l 424 968 l 133 968 l 133 1097 l 565 1097 "},"⟦":{"ha":806,"x_min":0,"x_max":0,"o":"m 118 1097 l 757 1097 l 757 968 l 517 968 l 517 -107 l 757 -107 l 757 -236 l 118 -236 m 375 -107 l 375 968 l 260 968 l 260 -107 "},"⟧":{"ha":806,"x_min":0,"x_max":0,"o":"m 49 -236 l 49 -107 l 289 -107 l 289 968 l 49 968 l 49 1097 l 688 1097 l 688 -236 m 546 968 l 431 968 l 431 -107 l 546 -107 "},"⠀":{"ha":806,"x_min":0,"x_max":0,"o":""},"˘":{"ha":806,"x_min":0,"x_max":0,"o":"m 319 1067 b 403 969 325 1007 357 969 b 488 1067 449 969 482 1008 l 601 1067 b 403 863 601 947 518 863 b 204 1067 288 863 204 947 l 319 1067 "},"¦":{"ha":806,"x_min":0,"x_max":0,"o":"m 338 329 l 468 329 l 468 -236 l 338 -236 m 338 1097 l 468 1097 l 468 532 l 338 532 "},"⎋":{"ha":806,"x_min":0,"x_max":0,"o":"m 111 486 b 403 194 111 325 242 194 b 694 486 564 194 694 325 b 403 778 694 647 564 778 l 403 861 b 778 486 610 861 778 693 b 403 111 778 279 610 111 b 28 486 196 111 28 279 m 131 700 l 14 583 l 14 875 l 306 875 l 190 760 l 431 519 l 371 460 "},"•":{"ha":806,"x_min":0,"x_max":0,"o":"m 215 431 b 403 618 215 535 299 618 b 590 431 507 618 590 535 b 403 243 590 326 507 243 b 215 431 299 243 215 326 "},"∙":{"ha":806,"x_min":0,"x_max":0,"o":"m 215 431 b 403 618 215 535 299 618 b 590 431 507 618 590 535 b 403 243 590 326 507 243 b 215 431 299 243 215 326 "},"c":{"ha":806,"x_min":0,"x_max":0,"o":"m 721 200 b 432 -14 694 74 575 -14 b 89 378 235 -14 89 153 b 429 764 89 601 232 764 b 711 550 575 764 690 676 l 571 550 b 429 635 551 603 497 635 b 231 379 308 635 231 533 b 438 115 231 221 311 115 b 579 200 507 115 561 147 "},"ć":{"ha":806,"x_min":0,"x_max":0,"o":"m 721 200 b 432 -14 694 74 575 -14 b 89 378 235 -14 89 153 b 429 764 89 601 232 764 b 711 550 575 764 690 676 l 571 550 b 429 635 551 603 497 635 b 231 379 308 635 231 533 b 438 115 231 221 311 115 b 579 200 507 115 561 147 m 458 869 l 338 869 l 446 1138 l 628 1138 "},"␘":{"ha":806,"x_min":0,"x_max":0,"o":"m 374 1001 b 214 861 365 919 299 861 b 22 1111 101 861 22 964 b 213 1361 22 1258 100 1361 b 369 1228 294 1361 358 1306 l 278 1228 b 211 1276 269 1258 243 1276 b 114 1111 153 1276 114 1213 b 213 946 114 1010 153 946 b 281 1001 249 946 275 968 m 210 243 l 339 729 l 467 729 l 596 243 l 506 243 l 475 367 l 329 367 l 299 243 m 453 447 l 404 638 l 401 638 l 351 447 m 699 104 l 783 104 l 783 -382 l 661 -382 l 526 17 l 524 17 l 524 -382 l 440 -382 l 440 104 l 578 104 l 696 -247 l 699 -247 "},"℅":{"ha":806,"x_min":0,"x_max":0,"o":"m 599 -14 b 394 213 481 -14 394 82 b 599 438 394 343 481 438 b 803 213 715 438 803 343 b 599 -14 803 82 715 -14 m 599 83 b 693 213 654 83 693 136 b 599 340 693 289 654 340 b 503 213 542 340 503 289 b 599 83 503 136 542 83 m 643 972 l 783 972 l 163 0 l 24 0 m 396 699 b 214 567 379 621 304 567 b 4 796 93 567 4 665 b 213 1018 4 925 92 1018 b 390 886 304 1018 378 965 l 275 886 b 211 919 265 907 242 919 b 114 796 151 919 114 872 b 217 665 114 717 154 665 b 281 699 247 665 272 678 "},"ˇ":{"ha":806,"x_min":0,"x_max":0,"o":"m 175 1119 l 292 1119 l 403 978 l 515 1119 l 631 1119 l 472 858 l 333 858 "},"␍":{"ha":806,"x_min":0,"x_max":0,"o":"m 478 689 b 318 549 469 607 403 549 b 126 799 206 549 126 651 b 317 1049 126 946 204 1049 b 474 915 399 1049 463 993 l 382 915 b 315 964 374 946 347 964 b 218 799 257 964 218 900 b 317 633 218 697 257 633 b 385 689 353 633 379 656 m 531 210 b 596 272 569 210 596 235 b 531 336 596 310 569 336 l 446 336 l 446 210 m 354 417 l 528 417 b 683 272 619 417 683 357 b 596 142 683 211 650 164 l 700 -69 l 599 -69 l 501 131 l 446 131 l 446 -69 l 354 -69 "},"č":{"ha":806,"x_min":0,"x_max":0,"o":"m 721 200 b 432 -14 694 74 575 -14 b 89 378 235 -14 89 153 b 429 764 89 601 232 764 b 711 550 575 764 690 676 l 571 550 b 429 635 551 603 497 635 b 231 379 308 635 231 533 b 438 115 231 221 311 115 b 579 200 507 115 561 147 m 200 1119 l 317 1119 l 428 978 l 540 1119 l 656 1119 l 497 858 l 358 858 "},"ç":{"ha":806,"x_min":0,"x_max":0,"o":"m 378 -225 b 453 -286 382 -261 413 -286 b 525 -219 496 -286 525 -258 b 453 -153 525 -181 494 -153 b 403 -169 433 -153 415 -158 l 328 -149 l 354 -4 b 89 378 197 33 89 183 b 429 764 89 601 232 764 b 711 550 575 764 690 676 l 571 550 b 429 635 551 603 497 635 b 231 379 308 635 231 533 b 438 115 231 221 311 115 b 579 200 507 115 561 147 l 721 200 b 469 -11 697 85 596 3 l 460 -74 b 635 -218 556 -60 635 -126 b 451 -379 635 -310 556 -379 b 268 -225 349 -379 271 -314 l 378 -225 "},"ĉ":{"ha":806,"x_min":0,"x_max":0,"o":"m 721 200 b 432 -14 694 74 575 -14 b 89 378 235 -14 89 153 b 429 764 89 601 232 764 b 711 550 575 764 690 676 l 571 550 b 429 635 551 603 497 635 b 231 379 308 635 231 533 b 438 115 231 221 311 115 b 579 200 507 115 561 147 m 358 1119 l 497 1119 l 656 858 l 540 858 l 428 1001 l 317 858 l 200 858 "},"ċ":{"ha":806,"x_min":0,"x_max":0,"o":"m 721 200 b 432 -14 694 74 575 -14 b 89 378 235 -14 89 153 b 429 764 89 601 232 764 b 711 550 575 764 690 676 l 571 550 b 429 635 551 603 497 635 b 231 379 308 635 231 533 b 438 115 231 221 311 115 b 579 200 507 115 561 147 m 314 982 b 428 1097 314 1047 365 1097 b 542 982 492 1097 542 1047 b 428 868 542 919 492 868 b 314 982 365 868 314 919 "},"¸":{"ha":806,"x_min":0,"x_max":0,"o":"m 338 -225 b 413 -286 342 -261 372 -286 b 485 -219 456 -286 485 -258 b 413 -153 485 -181 454 -153 b 363 -169 393 -153 375 -158 l 288 -149 l 322 44 l 439 44 l 419 -74 b 594 -218 515 -60 594 -126 b 410 -379 594 -310 515 -379 b 228 -225 308 -379 231 -314 l 338 -225 "},"¢":{"ha":806,"x_min":0,"x_max":0,"o":"m 361 -7 b 89 378 200 29 89 181 b 361 757 89 575 200 725 l 361 917 l 460 917 l 460 763 b 711 550 590 751 692 668 l 567 550 b 460 632 550 593 511 624 l 460 117 b 575 200 515 124 558 154 l 721 200 b 460 -12 697 81 590 -3 l 460 -167 l 361 -167 m 231 379 b 361 129 231 254 281 163 l 361 624 b 231 379 281 593 231 503 "},"✓":{"ha":806,"x_min":0,"x_max":0,"o":"m -24 531 l 90 592 l 335 158 l 340 158 l 708 988 l 829 935 l 413 0 l 275 0 "},"χ":{"ha":806,"x_min":0,"x_max":0,"o":"m 318 257 l 193 533 b 79 635 163 601 138 635 b 31 625 63 635 46 632 l 31 746 b 100 757 54 754 76 757 b 326 571 219 757 272 690 l 411 383 l 592 750 l 739 750 l 482 228 l 613 -61 b 726 -162 643 -129 668 -162 b 775 -153 743 -162 760 -160 l 775 -274 b 706 -285 751 -282 729 -285 b 479 -99 586 -285 533 -218 l 388 101 l 201 -278 l 54 -278 "},"○":{"ha":806,"x_min":0,"x_max":0,"o":"m 28 486 b 403 861 28 693 196 861 b 778 486 610 861 778 693 b 403 111 778 279 610 111 b 28 486 196 111 28 279 m 111 486 b 403 194 111 325 242 194 b 694 486 564 194 694 325 b 403 778 694 647 564 778 b 111 486 242 778 111 647 "},"ˆ":{"ha":806,"x_min":0,"x_max":0,"o":"m 333 1119 l 472 1119 l 631 858 l 515 858 l 403 1001 l 292 858 l 175 858 "},":":{"ha":806,"x_min":0,"x_max":0,"o":"m 283 107 b 403 226 283 174 338 226 b 522 107 469 226 522 174 b 403 -12 522 42 469 -12 b 283 107 338 -12 283 42 m 283 643 b 403 763 283 710 338 763 b 522 643 469 763 522 710 b 403 524 522 578 469 524 b 283 643 338 524 283 578 "},",":{"ha":806,"x_min":0,"x_max":0,"o":"m 324 181 l 519 181 l 290 -221 l 158 -221 "},"̦":{"ha":806,"x_min":0,"x_max":0,"o":"m 376 -367 l 256 -367 l 364 -100 l 546 -100 "},"≅":{"ha":806,"x_min":0,"x_max":0,"o":"m 58 710 b 260 936 58 847 138 936 b 550 751 438 936 454 751 b 619 867 593 751 617 789 l 621 908 l 747 908 l 747 857 b 546 631 747 719 668 631 b 256 815 368 631 350 815 b 186 700 213 815 189 778 l 185 658 l 58 658 m 88 551 l 718 551 l 718 421 l 88 421 m 88 254 l 718 254 l 718 124 l 88 124 "},"©":{"ha":806,"x_min":0,"x_max":0,"o":"m 403 83 b 0 486 178 83 0 261 b 403 889 0 711 178 889 b 806 486 628 889 806 711 b 403 83 806 261 628 83 m 403 150 b 732 486 592 150 732 293 b 403 822 732 679 592 822 b 74 486 214 822 74 679 b 403 150 74 293 214 150 m 578 400 b 410 261 569 319 501 261 b 215 486 296 261 215 353 b 410 711 215 618 297 711 b 576 578 497 711 563 656 l 492 578 b 410 631 481 608 450 631 b 303 486 346 631 303 574 b 414 342 303 397 347 342 b 494 400 457 342 486 364 "},"¤":{"ha":806,"x_min":0,"x_max":0,"o":"m 161 486 b 193 610 161 532 172 574 l 81 722 l 168 810 l 281 696 b 403 728 317 717 358 728 b 525 696 449 728 490 717 l 639 810 l 726 722 l 613 608 b 644 486 633 574 644 532 b 613 364 644 440 633 399 l 726 250 l 639 163 l 526 276 b 403 244 490 256 449 244 b 281 276 358 244 317 256 l 168 163 l 81 250 l 193 363 b 161 486 172 399 161 440 m 404 356 b 526 486 471 356 526 414 b 404 617 526 558 471 617 b 279 486 335 617 279 558 b 404 356 279 414 335 356 "},"d":{"ha":806,"x_min":0,"x_max":0,"o":"m 581 0 b 571 129 576 46 572 86 l 564 129 b 349 -14 519 38 446 -14 b 47 375 175 -14 47 151 b 350 764 47 599 176 764 b 558 632 442 764 514 717 l 565 632 l 565 1028 l 707 1028 l 707 250 b 717 0 707 179 711 88 l 581 0 m 381 115 b 568 375 489 115 568 224 b 381 635 568 526 490 635 b 189 375 271 635 189 525 b 381 115 189 226 269 115 "},"†":{"ha":806,"x_min":0,"x_max":0,"o":"m 347 742 l 214 742 l 214 839 l 347 839 l 347 972 l 458 972 l 458 839 l 592 839 l 592 742 l 458 742 l 458 389 l 347 389 "},"‡":{"ha":806,"x_min":0,"x_max":0,"o":"m 347 517 l 214 517 l 214 614 l 347 614 l 347 747 l 214 747 l 214 844 l 347 844 l 347 972 l 458 972 l 458 844 l 592 844 l 592 747 l 458 747 l 458 614 l 592 614 l 592 517 l 458 517 l 458 389 l 347 389 "},"␐":{"ha":806,"x_min":0,"x_max":0,"o":"m 36 1354 l 179 1354 b 382 1111 300 1354 382 1256 b 179 868 382 967 300 868 l 36 868 m 179 949 b 289 1111 247 949 289 1011 b 179 1274 289 1211 247 1274 l 128 1274 l 128 949 m 274 729 l 365 729 l 365 324 l 561 324 l 561 243 l 274 243 m 479 104 l 772 104 l 772 24 l 571 24 l 571 -90 l 747 -90 l 747 -169 l 571 -169 l 571 -301 l 772 -301 l 772 -382 l 479 -382 "},"⇟":{"ha":806,"x_min":0,"x_max":0,"o":"m 199 822 l 338 822 l 338 972 l 469 972 l 469 822 l 607 822 l 607 721 l 469 721 l 469 607 l 607 607 l 607 506 l 469 506 l 469 240 l 475 238 l 639 403 l 729 313 l 403 -14 l 76 313 l 167 403 l 332 238 l 338 240 l 338 506 l 199 506 l 199 607 l 338 607 l 338 721 l 199 721 "},"⇞":{"ha":806,"x_min":0,"x_max":0,"o":"m 332 749 l 167 583 l 76 674 l 403 1000 l 729 674 l 639 583 l 475 749 l 469 746 l 469 481 l 607 481 l 607 379 l 469 379 l 469 265 l 607 265 l 607 164 l 469 164 l 469 14 l 338 14 l 338 164 l 199 164 l 199 265 l 338 265 l 338 379 l 199 379 l 199 481 l 338 481 l 338 746 "},"ď":{"ha":806,"x_min":0,"x_max":0,"o":"m 581 0 b 571 129 576 46 572 86 l 564 129 b 349 -14 519 38 446 -14 b 47 375 175 -14 47 151 b 350 764 47 599 176 764 b 558 632 442 764 514 717 l 565 632 l 565 1028 l 707 1028 l 707 250 b 717 0 707 179 711 88 l 581 0 m 739 714 b 925 893 849 715 925 781 b 875 875 911 882 894 875 b 785 979 824 875 785 922 b 897 1090 785 1043 833 1090 b 1039 899 981 1090 1039 1010 b 739 613 1039 732 910 608 l 739 714 m 381 115 b 568 375 489 115 568 224 b 381 635 568 526 490 635 b 189 375 271 635 189 525 b 381 115 189 226 269 115 "},"đ":{"ha":806,"x_min":0,"x_max":0,"o":"m 581 0 b 571 129 576 46 572 86 l 564 129 b 349 -14 519 38 446 -14 b 47 375 175 -14 47 151 b 350 764 47 599 176 764 b 558 632 442 764 514 717 l 565 632 l 565 833 l 379 833 l 379 932 l 565 932 l 565 1028 l 707 1028 l 707 932 l 788 932 l 788 833 l 707 833 l 707 250 b 717 0 707 179 711 88 l 581 0 m 381 115 b 568 375 489 115 568 224 b 381 635 568 526 490 635 b 189 375 271 635 189 525 b 381 115 189 226 269 115 "},"°":{"ha":806,"x_min":0,"x_max":0,"o":"m 163 750 b 404 986 163 882 268 986 b 643 750 539 986 643 882 b 404 513 643 617 539 513 b 163 750 268 513 163 617 m 404 625 b 524 750 472 625 524 678 b 404 874 524 821 472 874 b 283 750 335 874 283 819 b 404 625 283 679 335 625 "},"␡":{"ha":806,"x_min":0,"x_max":0,"o":"m 36 1354 l 179 1354 b 382 1111 300 1354 382 1256 b 179 868 382 967 300 868 l 36 868 m 179 949 b 289 1111 247 949 289 1011 b 179 1274 289 1211 247 1274 l 128 1274 l 128 949 m 271 729 l 564 729 l 564 649 l 363 649 l 363 535 l 539 535 l 539 456 l 363 456 l 363 324 l 564 324 l 564 243 l 271 243 m 482 104 l 574 104 l 574 -301 l 769 -301 l 769 -382 l 482 -382 "},"␥":{"ha":806,"x_min":0,"x_max":0,"o":"m 544 972 l 654 972 l -14 192 l -14 319 m 765 972 l 819 972 l 819 907 l 40 0 l -14 0 l -14 65 m 819 781 l 819 653 l 261 0 l 151 0 "},"δ":{"ha":806,"x_min":0,"x_max":0,"o":"m 465 922 b 282 817 353 922 282 881 b 415 710 282 768 324 736 l 476 693 b 736 350 644 647 736 526 b 403 -14 736 135 600 -14 b 68 324 208 -14 68 128 b 244 636 68 463 138 576 b 140 815 178 679 140 742 b 451 1042 140 950 264 1042 b 608 1011 514 1042 565 1032 l 608 893 b 465 922 561 913 518 922 m 365 586 b 204 346 271 558 204 464 b 400 115 204 213 288 115 b 594 349 514 115 594 213 b 417 572 594 465 535 539 l 365 586 "},"␔":{"ha":806,"x_min":0,"x_max":0,"o":"m 36 1354 l 179 1354 b 382 1111 300 1354 382 1256 b 179 868 382 967 300 868 l 36 868 m 179 949 b 289 1111 247 949 289 1011 b 179 1274 289 1211 247 1274 l 128 1274 l 128 949 m 582 376 b 422 236 574 294 507 236 b 231 486 310 236 231 339 b 421 736 231 633 308 736 b 578 603 503 736 567 681 l 486 603 b 419 651 478 633 451 651 b 322 486 361 651 322 588 b 421 321 322 385 361 321 b 489 376 457 321 483 343 m 419 -192 l 588 104 l 714 104 l 714 -199 l 792 -199 l 792 -279 l 714 -279 l 714 -382 l 625 -382 l 625 -279 l 419 -279 m 500 -199 l 625 -199 l 625 24 l 622 24 "},"␑":{"ha":806,"x_min":0,"x_max":0,"o":"m 36 1354 l 179 1354 b 382 1111 300 1354 382 1256 b 179 868 382 967 300 868 l 36 868 m 179 949 b 289 1111 247 949 289 1011 b 179 1274 289 1211 247 1274 l 128 1274 l 128 949 m 582 376 b 422 236 574 294 507 236 b 231 486 310 236 231 339 b 421 736 231 633 308 736 b 578 603 503 736 567 681 l 486 603 b 419 651 478 633 451 651 b 322 486 361 651 322 588 b 421 321 322 385 361 321 b 489 376 457 321 483 343 m 454 -301 l 575 -301 l 575 -68 l 460 -67 l 460 6 b 593 104 553 6 586 32 l 668 104 l 668 -301 l 782 -301 l 782 -382 l 454 -382 "},"␓":{"ha":806,"x_min":0,"x_max":0,"o":"m 36 1354 l 179 1354 b 382 1111 300 1354 382 1256 b 179 868 382 967 300 868 l 36 868 m 179 949 b 289 1111 247 949 289 1011 b 179 1274 289 1211 247 1274 l 128 1274 l 128 949 m 582 376 b 422 236 574 294 507 236 b 231 486 310 236 231 339 b 421 736 231 633 308 736 b 578 603 503 736 567 681 l 486 603 b 419 651 478 633 451 651 b 322 486 361 651 322 588 b 421 321 322 385 361 321 b 489 376 457 321 483 343 m 451 -22 b 604 111 451 57 514 111 b 758 -21 694 111 758 56 b 692 -119 758 -68 733 -101 l 692 -122 b 776 -240 746 -142 776 -183 b 608 -389 776 -326 706 -389 b 446 -249 514 -389 446 -329 l 533 -249 b 613 -308 535 -282 569 -308 b 688 -239 657 -308 688 -281 b 613 -169 688 -197 657 -169 l 565 -169 l 565 -85 l 606 -85 b 671 -28 644 -85 671 -61 b 604 32 671 8 642 32 b 538 -22 567 32 539 10 "},"␒":{"ha":806,"x_min":0,"x_max":0,"o":"m 36 1354 l 179 1354 b 382 1111 300 1354 382 1256 b 179 868 382 967 300 868 l 36 868 m 179 949 b 289 1111 247 949 289 1011 b 179 1274 289 1211 247 1274 l 128 1274 l 128 949 m 582 376 b 422 236 574 294 507 236 b 231 486 310 236 231 339 b 421 736 231 633 308 736 b 578 603 503 736 567 681 l 486 603 b 419 651 478 633 451 651 b 322 486 361 651 322 588 b 421 321 322 385 361 321 b 489 376 457 321 483 343 m 460 -342 b 578 -162 460 -282 490 -232 b 671 -33 644 -108 671 -72 b 606 31 671 6 643 31 b 538 -22 568 31 539 7 l 444 -22 b 604 111 444 53 511 111 b 763 -31 697 111 763 53 b 642 -217 763 -93 726 -146 b 564 -301 600 -251 576 -276 l 775 -301 l 775 -382 l 460 -382 "},"¨":{"ha":806,"x_min":0,"x_max":0,"o":"m 149 982 b 254 1088 149 1042 196 1088 b 360 982 314 1088 360 1042 b 254 876 360 924 314 876 b 149 982 196 876 149 924 m 446 982 b 551 1088 446 1042 493 1088 b 657 982 611 1088 657 1042 b 551 876 657 924 611 876 b 446 982 493 876 446 924 "},"΅":{"ha":806,"x_min":0,"x_max":0,"o":"m 86 982 b 200 1097 86 1047 138 1097 b 314 982 264 1097 314 1047 b 200 868 314 919 264 868 b 86 982 138 868 86 919 m 492 982 b 606 1097 492 1047 543 1097 b 719 982 669 1097 719 1047 b 606 868 719 919 669 868 b 492 982 543 868 492 919 m 446 954 l 338 954 l 381 1247 l 547 1247 "},"÷":{"ha":806,"x_min":0,"x_max":0,"o":"m 88 496 l 718 496 l 718 365 l 88 365 m 283 676 b 403 796 283 743 338 796 b 522 676 469 796 522 743 b 403 557 522 611 469 557 b 283 676 338 557 283 611 m 283 185 b 403 304 283 251 338 304 b 522 185 469 304 522 251 b 403 65 522 119 469 65 b 283 185 338 65 283 119 "},"∕":{"ha":806,"x_min":0,"x_max":0,"o":"m 546 972 l 688 972 l 294 0 l 153 0 "},"▓":{"ha":806,"x_min":0,"x_max":0,"o":"m 486 1021 l 486 1097 l 403 1097 l 403 1021 m 653 1021 l 653 1097 l 569 1097 l 569 1021 m 319 1021 l 319 1097 l 236 1097 l 236 1021 m 153 1021 l 153 1097 l 69 1097 l 69 1021 m 236 868 l 236 944 l 153 944 l 153 868 m 403 868 l 403 944 l 319 944 l 319 868 m 569 868 l 569 944 l 486 944 l 486 868 m 736 868 l 736 944 l 653 944 l 653 868 m 153 715 l 153 792 l 69 792 l 69 715 m 319 715 l 319 792 l 236 792 l 236 715 m 486 715 l 486 792 l 403 792 l 403 715 m 653 715 l 653 792 l 569 792 l 569 715 m 736 563 l 736 639 l 653 639 l 653 563 m 236 563 l 236 639 l 153 639 l 153 563 m 403 563 l 403 639 l 319 639 l 319 563 m 569 563 l 569 639 l 486 639 l 486 563 m 319 410 l 319 486 l 236 486 l 236 410 m 653 410 l 653 486 l 569 486 l 569 410 m 153 410 l 153 486 l 69 486 l 69 410 m 486 410 l 486 486 l 403 486 l 403 410 m 236 257 l 236 333 l 153 333 l 153 257 m 403 257 l 403 333 l 319 333 l 319 257 m 569 257 l 569 333 l 486 333 l 486 257 m 736 257 l 736 333 l 653 333 l 653 257 m 153 104 l 153 181 l 69 181 l 69 104 m 319 104 l 319 181 l 236 181 l 236 104 m 486 104 l 486 181 l 403 181 l 403 104 m 653 104 l 653 181 l 569 181 l 569 104 m 69 1174 l 69 1250 l 153 1250 l 153 1174 l 236 1174 l 236 1250 l 319 1250 l 319 1174 l 403 1174 l 403 1250 l 486 1250 l 486 1174 l 569 1174 l 569 1250 l 653 1250 l 653 1174 l 736 1174 l 736 1250 l 819 1250 l 819 1097 l 736 1097 l 736 1021 l 819 1021 l 819 792 l 736 792 l 736 715 l 819 715 l 819 486 l 736 486 l 736 410 l 819 410 l 819 181 l 736 181 l 736 104 l 819 104 l 819 -125 l 736 -125 l 736 -201 l 819 -201 l 819 -278 l -14 -278 l -14 -49 l 69 -49 l 69 28 l -14 28 l -14 257 l 69 257 l 69 333 l -14 333 l -14 563 l 69 563 l 69 639 l -14 639 l -14 868 l 69 868 l 69 944 l -14 944 l -14 1174 m 236 -49 l 236 28 l 153 28 l 153 -49 m 403 -49 l 403 28 l 319 28 l 319 -49 m 569 -49 l 569 28 l 486 28 l 486 -49 m 736 -49 l 736 28 l 653 28 l 653 -49 m 153 -201 l 153 -125 l 69 -125 l 69 -201 m 319 -201 l 319 -125 l 236 -125 l 236 -201 m 486 -201 l 486 -125 l 403 -125 l 403 -201 m 653 -201 l 653 -125 l 569 -125 l 569 -201 "},"$":{"ha":806,"x_min":0,"x_max":0,"o":"m 197 251 b 360 101 206 174 271 117 l 360 440 b 99 706 186 476 99 564 b 360 983 99 860 203 967 l 360 1153 l 460 1153 l 460 982 b 721 736 606 961 714 864 l 597 736 b 460 864 588 799 533 849 l 460 547 b 732 272 640 508 732 417 b 460 -17 732 115 624 3 l 460 -181 l 360 -181 l 360 -17 b 74 251 196 1 79 108 m 603 267 b 460 419 603 342 554 392 l 460 104 b 603 267 546 122 603 183 m 228 714 b 360 569 228 640 271 593 l 360 865 b 228 714 279 850 228 793 "},"˙":{"ha":806,"x_min":0,"x_max":0,"o":"m 289 982 b 403 1097 289 1047 340 1097 b 517 982 467 1097 517 1047 b 403 868 517 919 467 868 b 289 982 340 868 289 919 "},"ı":{"ha":806,"x_min":0,"x_max":0,"o":"m 132 129 l 349 129 l 349 621 l 139 621 l 139 750 l 490 750 l 490 129 l 707 129 l 707 0 l 132 0 "},"ȷ":{"ha":806,"x_min":0,"x_max":0,"o":"m 567 -18 b 307 -292 567 -197 478 -292 b 160 -261 253 -292 200 -282 l 160 -143 b 285 -172 200 -162 243 -172 b 425 -18 379 -172 425 -122 l 425 621 l 167 621 l 167 750 l 567 750 l 567 -18 "},"⠁":{"ha":806,"x_min":0,"x_max":0,"o":"m 349 792 b 250 693 349 736 306 693 b 151 792 194 693 151 736 b 250 890 151 847 194 890 b 349 792 306 890 349 847 "},"⠃":{"ha":806,"x_min":0,"x_max":0,"o":"m 349 792 b 250 693 349 736 306 693 b 151 792 194 693 151 736 b 250 890 151 847 194 890 b 349 792 306 890 349 847 m 349 486 b 250 388 349 431 306 388 b 151 486 194 388 151 431 b 250 585 151 542 194 585 b 349 486 306 585 349 542 "},"⠇":{"ha":806,"x_min":0,"x_max":0,"o":"m 349 792 b 250 693 349 736 306 693 b 151 792 194 693 151 736 b 250 890 151 847 194 890 b 349 792 306 890 349 847 m 349 486 b 250 388 349 431 306 388 b 151 486 194 388 151 431 b 250 585 151 542 194 585 b 349 486 306 585 349 542 m 349 181 b 250 82 349 125 306 82 b 151 181 194 82 151 125 b 250 279 151 236 194 279 b 349 181 306 279 349 236 "},"⠏":{"ha":806,"x_min":0,"x_max":0,"o":"m 349 792 b 250 693 349 736 306 693 b 151 792 194 693 151 736 b 250 890 151 847 194 890 b 349 792 306 890 349 847 m 349 486 b 250 388 349 431 306 388 b 151 486 194 388 151 431 b 250 585 151 542 194 585 b 349 486 306 585 349 542 m 349 181 b 250 82 349 125 306 82 b 151 181 194 82 151 125 b 250 279 151 236 194 279 b 349 181 306 279 349 236 m 654 792 b 556 693 654 736 611 693 b 457 792 500 693 457 736 b 556 890 457 847 500 890 b 654 792 611 890 654 847 "},"⠟":{"ha":806,"x_min":0,"x_max":0,"o":"m 349 792 b 250 693 349 736 306 693 b 151 792 194 693 151 736 b 250 890 151 847 194 890 b 349 792 306 890 349 847 m 349 486 b 250 388 349 431 306 388 b 151 486 194 388 151 431 b 250 585 151 542 194 585 b 349 486 306 585 349 542 m 349 181 b 250 82 349 125 306 82 b 151 181 194 82 151 125 b 250 279 151 236 194 279 b 349 181 306 279 349 236 m 654 792 b 556 693 654 736 611 693 b 457 792 500 693 457 736 b 556 890 457 847 500 890 b 654 792 611 890 654 847 m 654 486 b 556 388 654 431 611 388 b 457 486 500 388 457 431 b 556 585 457 542 500 585 b 654 486 611 585 654 542 "},"⠿":{"ha":806,"x_min":0,"x_max":0,"o":"m 349 792 b 250 693 349 736 306 693 b 151 792 194 693 151 736 b 250 890 151 847 194 890 b 349 792 306 890 349 847 m 349 486 b 250 388 349 431 306 388 b 151 486 194 388 151 431 b 250 585 151 542 194 585 b 349 486 306 585 349 542 m 349 181 b 250 82 349 125 306 82 b 151 181 194 82 151 125 b 250 279 151 236 194 279 b 349 181 306 279 349 236 m 654 792 b 556 693 654 736 611 693 b 457 792 500 693 457 736 b 556 890 457 847 500 890 b 654 792 611 890 654 847 m 654 486 b 556 388 654 431 611 388 b 457 486 500 388 457 431 b 556 585 457 542 500 585 b 654 486 611 585 654 542 m 654 181 b 556 82 654 125 611 82 b 457 181 500 82 457 125 b 556 279 457 236 500 279 b 654 181 611 279 654 236 "},"⡿":{"ha":806,"x_min":0,"x_max":0,"o":"m 349 792 b 250 693 349 736 306 693 b 151 792 194 693 151 736 b 250 890 151 847 194 890 b 349 792 306 890 349 847 m 349 486 b 250 388 349 431 306 388 b 151 486 194 388 151 431 b 250 585 151 542 194 585 b 349 486 306 585 349 542 m 349 181 b 250 82 349 125 306 82 b 151 181 194 82 151 125 b 250 279 151 236 194 279 b 349 181 306 279 349 236 m 654 792 b 556 693 654 736 611 693 b 457 792 500 693 457 736 b 556 890 457 847 500 890 b 654 792 611 890 654 847 m 654 486 b 556 388 654 431 611 388 b 457 486 500 388 457 431 b 556 585 457 542 500 585 b 654 486 611 585 654 542 m 654 181 b 556 82 654 125 611 82 b 457 181 500 82 457 125 b 556 279 457 236 500 279 b 654 181 611 279 654 236 m 349 -125 b 250 -224 349 -181 306 -224 b 151 -125 194 -224 151 -181 b 250 -26 151 -69 194 -26 b 349 -125 306 -26 349 -69 "},"⣿":{"ha":806,"x_min":0,"x_max":0,"o":"m 349 792 b 250 693 349 736 306 693 b 151 792 194 693 151 736 b 250 890 151 847 194 890 b 349 792 306 890 349 847 m 349 486 b 250 388 349 431 306 388 b 151 486 194 388 151 431 b 250 585 151 542 194 585 b 349 486 306 585 349 542 m 349 181 b 250 82 349 125 306 82 b 151 181 194 82 151 125 b 250 279 151 236 194 279 b 349 181 306 279 349 236 m 654 792 b 556 693 654 736 611 693 b 457 792 500 693 457 736 b 556 890 457 847 500 890 b 654 792 611 890 654 847 m 654 486 b 556 388 654 431 611 388 b 457 486 500 388 457 431 b 556 585 457 542 500 585 b 654 486 611 585 654 542 m 654 181 b 556 82 654 125 611 82 b 457 181 500 82 457 125 b 556 279 457 236 500 279 b 654 181 611 279 654 236 m 349 -125 b 250 -224 349 -181 306 -224 b 151 -125 194 -224 151 -181 b 250 -26 151 -69 194 -26 b 349 -125 306 -26 349 -69 m 654 -125 b 556 -224 654 -181 611 -224 b 457 -125 500 -224 457 -181 b 556 -26 457 -69 500 -26 b 654 -125 611 -26 654 -69 "},"⢿":{"ha":806,"x_min":0,"x_max":0,"o":"m 349 792 b 250 693 349 736 306 693 b 151 792 194 693 151 736 b 250 890 151 847 194 890 b 349 792 306 890 349 847 m 349 486 b 250 388 349 431 306 388 b 151 486 194 388 151 431 b 250 585 151 542 194 585 b 349 486 306 585 349 542 m 349 181 b 250 82 349 125 306 82 b 151 181 194 82 151 125 b 250 279 151 236 194 279 b 349 181 306 279 349 236 m 654 792 b 556 693 654 736 611 693 b 457 792 500 693 457 736 b 556 890 457 847 500 890 b 654 792 611 890 654 847 m 654 486 b 556 388 654 431 611 388 b 457 486 500 388 457 431 b 556 585 457 542 500 585 b 654 486 611 585 654 542 m 654 181 b 556 82 654 125 611 82 b 457 181 500 82 457 125 b 556 279 457 236 500 279 b 654 181 611 279 654 236 m 654 -125 b 556 -224 654 -181 611 -224 b 457 -125 500 -224 457 -181 b 556 -26 457 -69 500 -26 b 654 -125 611 -26 654 -69 "},"⡟":{"ha":806,"x_min":0,"x_max":0,"o":"m 349 792 b 250 693 349 736 306 693 b 151 792 194 693 151 736 b 250 890 151 847 194 890 b 349 792 306 890 349 847 m 349 486 b 250 388 349 431 306 388 b 151 486 194 388 151 431 b 250 585 151 542 194 585 b 349 486 306 585 349 542 m 349 181 b 250 82 349 125 306 82 b 151 181 194 82 151 125 b 250 279 151 236 194 279 b 349 181 306 279 349 236 m 654 792 b 556 693 654 736 611 693 b 457 792 500 693 457 736 b 556 890 457 847 500 890 b 654 792 611 890 654 847 m 654 486 b 556 388 654 431 611 388 b 457 486 500 388 457 431 b 556 585 457 542 500 585 b 654 486 611 585 654 542 m 349 -125 b 250 -224 349 -181 306 -224 b 151 -125 194 -224 151 -181 b 250 -26 151 -69 194 -26 b 349 -125 306 -26 349 -69 "},"⣟":{"ha":806,"x_min":0,"x_max":0,"o":"m 349 792 b 250 693 349 736 306 693 b 151 792 194 693 151 736 b 250 890 151 847 194 890 b 349 792 306 890 349 847 m 349 486 b 250 388 349 431 306 388 b 151 486 194 388 151 431 b 250 585 151 542 194 585 b 349 486 306 585 349 542 m 349 181 b 250 82 349 125 306 82 b 151 181 194 82 151 125 b 250 279 151 236 194 279 b 349 181 306 279 349 236 m 654 792 b 556 693 654 736 611 693 b 457 792 500 693 457 736 b 556 890 457 847 500 890 b 654 792 611 890 654 847 m 654 486 b 556 388 654 431 611 388 b 457 486 500 388 457 431 b 556 585 457 542 500 585 b 654 486 611 585 654 542 m 349 -125 b 250 -224 349 -181 306 -224 b 151 -125 194 -224 151 -181 b 250 -26 151 -69 194 -26 b 349 -125 306 -26 349 -69 m 654 -125 b 556 -224 654 -181 611 -224 b 457 -125 500 -224 457 -181 b 556 -26 457 -69 500 -26 b 654 -125 611 -26 654 -69 "},"⢟":{"ha":806,"x_min":0,"x_max":0,"o":"m 349 792 b 250 693 349 736 306 693 b 151 792 194 693 151 736 b 250 890 151 847 194 890 b 349 792 306 890 349 847 m 349 486 b 250 388 349 431 306 388 b 151 486 194 388 151 431 b 250 585 151 542 194 585 b 349 486 306 585 349 542 m 349 181 b 250 82 349 125 306 82 b 151 181 194 82 151 125 b 250 279 151 236 194 279 b 349 181 306 279 349 236 m 654 792 b 556 693 654 736 611 693 b 457 792 500 693 457 736 b 556 890 457 847 500 890 b 654 792 611 890 654 847 m 654 486 b 556 388 654 431 611 388 b 457 486 500 388 457 431 b 556 585 457 542 500 585 b 654 486 611 585 654 542 m 654 -125 b 556 -224 654 -181 611 -224 b 457 -125 500 -224 457 -181 b 556 -26 457 -69 500 -26 b 654 -125 611 -26 654 -69 "},"⠯":{"ha":806,"x_min":0,"x_max":0,"o":"m 349 792 b 250 693 349 736 306 693 b 151 792 194 693 151 736 b 250 890 151 847 194 890 b 349 792 306 890 349 847 m 349 486 b 250 388 349 431 306 388 b 151 486 194 388 151 431 b 250 585 151 542 194 585 b 349 486 306 585 349 542 m 349 181 b 250 82 349 125 306 82 b 151 181 194 82 151 125 b 250 279 151 236 194 279 b 349 181 306 279 349 236 m 654 792 b 556 693 654 736 611 693 b 457 792 500 693 457 736 b 556 890 457 847 500 890 b 654 792 611 890 654 847 m 654 181 b 556 82 654 125 611 82 b 457 181 500 82 457 125 b 556 279 457 236 500 279 b 654 181 611 279 654 236 "},"⡯":{"ha":806,"x_min":0,"x_max":0,"o":"m 349 792 b 250 693 349 736 306 693 b 151 792 194 693 151 736 b 250 890 151 847 194 890 b 349 792 306 890 349 847 m 349 486 b 250 388 349 431 306 388 b 151 486 194 388 151 431 b 250 585 151 542 194 585 b 349 486 306 585 349 542 m 349 181 b 250 82 349 125 306 82 b 151 181 194 82 151 125 b 250 279 151 236 194 279 b 349 181 306 279 349 236 m 654 792 b 556 693 654 736 611 693 b 457 792 500 693 457 736 b 556 890 457 847 500 890 b 654 792 611 890 654 847 m 654 181 b 556 82 654 125 611 82 b 457 181 500 82 457 125 b 556 279 457 236 500 279 b 654 181 611 279 654 236 m 349 -125 b 250 -224 349 -181 306 -224 b 151 -125 194 -224 151 -181 b 250 -26 151 -69 194 -26 b 349 -125 306 -26 349 -69 "},"⣯":{"ha":806,"x_min":0,"x_max":0,"o":"m 349 792 b 250 693 349 736 306 693 b 151 792 194 693 151 736 b 250 890 151 847 194 890 b 349 792 306 890 349 847 m 349 486 b 250 388 349 431 306 388 b 151 486 194 388 151 431 b 250 585 151 542 194 585 b 349 486 306 585 349 542 m 349 181 b 250 82 349 125 306 82 b 151 181 194 82 151 125 b 250 279 151 236 194 279 b 349 181 306 279 349 236 m 654 792 b 556 693 654 736 611 693 b 457 792 500 693 457 736 b 556 890 457 847 500 890 b 654 792 611 890 654 847 m 654 181 b 556 82 654 125 611 82 b 457 181 500 82 457 125 b 556 279 457 236 500 279 b 654 181 611 279 654 236 m 349 -125 b 250 -224 349 -181 306 -224 b 151 -125 194 -224 151 -181 b 250 -26 151 -69 194 -26 b 349 -125 306 -26 349 -69 m 654 -125 b 556 -224 654 -181 611 -224 b 457 -125 500 -224 457 -181 b 556 -26 457 -69 500 -26 b 654 -125 611 -26 654 -69 "},"⢯":{"ha":806,"x_min":0,"x_max":0,"o":"m 349 792 b 250 693 349 736 306 693 b 151 792 194 693 151 736 b 250 890 151 847 194 890 b 349 792 306 890 349 847 m 349 486 b 250 388 349 431 306 388 b 151 486 194 388 151 431 b 250 585 151 542 194 585 b 349 486 306 585 349 542 m 349 181 b 250 82 349 125 306 82 b 151 181 194 82 151 125 b 250 279 151 236 194 279 b 349 181 306 279 349 236 m 654 792 b 556 693 654 736 611 693 b 457 792 500 693 457 736 b 556 890 457 847 500 890 b 654 792 611 890 654 847 m 654 181 b 556 82 654 125 611 82 b 457 181 500 82 457 125 b 556 279 457 236 500 279 b 654 181 611 279 654 236 m 654 -125 b 556 -224 654 -181 611 -224 b 457 -125 500 -224 457 -181 b 556 -26 457 -69 500 -26 b 654 -125 611 -26 654 -69 "},"⡏":{"ha":806,"x_min":0,"x_max":0,"o":"m 349 792 b 250 693 349 736 306 693 b 151 792 194 693 151 736 b 250 890 151 847 194 890 b 349 792 306 890 349 847 m 349 486 b 250 388 349 431 306 388 b 151 486 194 388 151 431 b 250 585 151 542 194 585 b 349 486 306 585 349 542 m 349 181 b 250 82 349 125 306 82 b 151 181 194 82 151 125 b 250 279 151 236 194 279 b 349 181 306 279 349 236 m 654 792 b 556 693 654 736 611 693 b 457 792 500 693 457 736 b 556 890 457 847 500 890 b 654 792 611 890 654 847 m 349 -125 b 250 -224 349 -181 306 -224 b 151 -125 194 -224 151 -181 b 250 -26 151 -69 194 -26 b 349 -125 306 -26 349 -69 "},"⣏":{"ha":806,"x_min":0,"x_max":0,"o":"m 349 792 b 250 693 349 736 306 693 b 151 792 194 693 151 736 b 250 890 151 847 194 890 b 349 792 306 890 349 847 m 349 486 b 250 388 349 431 306 388 b 151 486 194 388 151 431 b 250 585 151 542 194 585 b 349 486 306 585 349 542 m 349 181 b 250 82 349 125 306 82 b 151 181 194 82 151 125 b 250 279 151 236 194 279 b 349 181 306 279 349 236 m 654 792 b 556 693 654 736 611 693 b 457 792 500 693 457 736 b 556 890 457 847 500 890 b 654 792 611 890 654 847 m 349 -125 b 250 -224 349 -181 306 -224 b 151 -125 194 -224 151 -181 b 250 -26 151 -69 194 -26 b 349 -125 306 -26 349 -69 m 654 -125 b 556 -224 654 -181 611 -224 b 457 -125 500 -224 457 -181 b 556 -26 457 -69 500 -26 b 654 -125 611 -26 654 -69 "},"⢏":{"ha":806,"x_min":0,"x_max":0,"o":"m 349 792 b 250 693 349 736 306 693 b 151 792 194 693 151 736 b 250 890 151 847 194 890 b 349 792 306 890 349 847 m 349 486 b 250 388 349 431 306 388 b 151 486 194 388 151 431 b 250 585 151 542 194 585 b 349 486 306 585 349 542 m 349 181 b 250 82 349 125 306 82 b 151 181 194 82 151 125 b 250 279 151 236 194 279 b 349 181 306 279 349 236 m 654 792 b 556 693 654 736 611 693 b 457 792 500 693 457 736 b 556 890 457 847 500 890 b 654 792 611 890 654 847 m 654 -125 b 556 -224 654 -181 611 -224 b 457 -125 500 -224 457 -181 b 556 -26 457 -69 500 -26 b 654 -125 611 -26 654 -69 "},"⠗":{"ha":806,"x_min":0,"x_max":0,"o":"m 349 792 b 250 693 349 736 306 693 b 151 792 194 693 151 736 b 250 890 151 847 194 890 b 349 792 306 890 349 847 m 349 486 b 250 388 349 431 306 388 b 151 486 194 388 151 431 b 250 585 151 542 194 585 b 349 486 306 585 349 542 m 349 181 b 250 82 349 125 306 82 b 151 181 194 82 151 125 b 250 279 151 236 194 279 b 349 181 306 279 349 236 m 654 486 b 556 388 654 431 611 388 b 457 486 500 388 457 431 b 556 585 457 542 500 585 b 654 486 611 585 654 542 "},"⠷":{"ha":806,"x_min":0,"x_max":0,"o":"m 349 792 b 250 693 349 736 306 693 b 151 792 194 693 151 736 b 250 890 151 847 194 890 b 349 792 306 890 349 847 m 349 486 b 250 388 349 431 306 388 b 151 486 194 388 151 431 b 250 585 151 542 194 585 b 349 486 306 585 349 542 m 349 181 b 250 82 349 125 306 82 b 151 181 194 82 151 125 b 250 279 151 236 194 279 b 349 181 306 279 349 236 m 654 486 b 556 388 654 431 611 388 b 457 486 500 388 457 431 b 556 585 457 542 500 585 b 654 486 611 585 654 542 m 654 181 b 556 82 654 125 611 82 b 457 181 500 82 457 125 b 556 279 457 236 500 279 b 654 181 611 279 654 236 "},"⡷":{"ha":806,"x_min":0,"x_max":0,"o":"m 349 792 b 250 693 349 736 306 693 b 151 792 194 693 151 736 b 250 890 151 847 194 890 b 349 792 306 890 349 847 m 349 486 b 250 388 349 431 306 388 b 151 486 194 388 151 431 b 250 585 151 542 194 585 b 349 486 306 585 349 542 m 349 181 b 250 82 349 125 306 82 b 151 181 194 82 151 125 b 250 279 151 236 194 279 b 349 181 306 279 349 236 m 654 486 b 556 388 654 431 611 388 b 457 486 500 388 457 431 b 556 585 457 542 500 585 b 654 486 611 585 654 542 m 654 181 b 556 82 654 125 611 82 b 457 181 500 82 457 125 b 556 279 457 236 500 279 b 654 181 611 279 654 236 m 349 -125 b 250 -224 349 -181 306 -224 b 151 -125 194 -224 151 -181 b 250 -26 151 -69 194 -26 b 349 -125 306 -26 349 -69 "},"⣷":{"ha":806,"x_min":0,"x_max":0,"o":"m 349 792 b 250 693 349 736 306 693 b 151 792 194 693 151 736 b 250 890 151 847 194 890 b 349 792 306 890 349 847 m 349 486 b 250 388 349 431 306 388 b 151 486 194 388 151 431 b 250 585 151 542 194 585 b 349 486 306 585 349 542 m 349 181 b 250 82 349 125 306 82 b 151 181 194 82 151 125 b 250 279 151 236 194 279 b 349 181 306 279 349 236 m 654 486 b 556 388 654 431 611 388 b 457 486 500 388 457 431 b 556 585 457 542 500 585 b 654 486 611 585 654 542 m 654 181 b 556 82 654 125 611 82 b 457 181 500 82 457 125 b 556 279 457 236 500 279 b 654 181 611 279 654 236 m 349 -125 b 250 -224 349 -181 306 -224 b 151 -125 194 -224 151 -181 b 250 -26 151 -69 194 -26 b 349 -125 306 -26 349 -69 m 654 -125 b 556 -224 654 -181 611 -224 b 457 -125 500 -224 457 -181 b 556 -26 457 -69 500 -26 b 654 -125 611 -26 654 -69 "},"⢷":{"ha":806,"x_min":0,"x_max":0,"o":"m 349 792 b 250 693 349 736 306 693 b 151 792 194 693 151 736 b 250 890 151 847 194 890 b 349 792 306 890 349 847 m 349 486 b 250 388 349 431 306 388 b 151 486 194 388 151 431 b 250 585 151 542 194 585 b 349 486 306 585 349 542 m 349 181 b 250 82 349 125 306 82 b 151 181 194 82 151 125 b 250 279 151 236 194 279 b 349 181 306 279 349 236 m 654 486 b 556 388 654 431 611 388 b 457 486 500 388 457 431 b 556 585 457 542 500 585 b 654 486 611 585 654 542 m 654 181 b 556 82 654 125 611 82 b 457 181 500 82 457 125 b 556 279 457 236 500 279 b 654 181 611 279 654 236 m 654 -125 b 556 -224 654 -181 611 -224 b 457 -125 500 -224 457 -181 b 556 -26 457 -69 500 -26 b 654 -125 611 -26 654 -69 "},"⡗":{"ha":806,"x_min":0,"x_max":0,"o":"m 349 792 b 250 693 349 736 306 693 b 151 792 194 693 151 736 b 250 890 151 847 194 890 b 349 792 306 890 349 847 m 349 486 b 250 388 349 431 306 388 b 151 486 194 388 151 431 b 250 585 151 542 194 585 b 349 486 306 585 349 542 m 349 181 b 250 82 349 125 306 82 b 151 181 194 82 151 125 b 250 279 151 236 194 279 b 349 181 306 279 349 236 m 654 486 b 556 388 654 431 611 388 b 457 486 500 388 457 431 b 556 585 457 542 500 585 b 654 486 611 585 654 542 m 349 -125 b 250 -224 349 -181 306 -224 b 151 -125 194 -224 151 -181 b 250 -26 151 -69 194 -26 b 349 -125 306 -26 349 -69 "},"⣗":{"ha":806,"x_min":0,"x_max":0,"o":"m 349 792 b 250 693 349 736 306 693 b 151 792 194 693 151 736 b 250 890 151 847 194 890 b 349 792 306 890 349 847 m 349 486 b 250 388 349 431 306 388 b 151 486 194 388 151 431 b 250 585 151 542 194 585 b 349 486 306 585 349 542 m 349 181 b 250 82 349 125 306 82 b 151 181 194 82 151 125 b 250 279 151 236 194 279 b 349 181 306 279 349 236 m 654 486 b 556 388 654 431 611 388 b 457 486 500 388 457 431 b 556 585 457 542 500 585 b 654 486 611 585 654 542 m 349 -125 b 250 -224 349 -181 306 -224 b 151 -125 194 -224 151 -181 b 250 -26 151 -69 194 -26 b 349 -125 306 -26 349 -69 m 654 -125 b 556 -224 654 -181 611 -224 b 457 -125 500 -224 457 -181 b 556 -26 457 -69 500 -26 b 654 -125 611 -26 654 -69 "},"⢗":{"ha":806,"x_min":0,"x_max":0,"o":"m 349 792 b 250 693 349 736 306 693 b 151 792 194 693 151 736 b 250 890 151 847 194 890 b 349 792 306 890 349 847 m 349 486 b 250 388 349 431 306 388 b 151 486 194 388 151 431 b 250 585 151 542 194 585 b 349 486 306 585 349 542 m 349 181 b 250 82 349 125 306 82 b 151 181 194 82 151 125 b 250 279 151 236 194 279 b 349 181 306 279 349 236 m 654 486 b 556 388 654 431 611 388 b 457 486 500 388 457 431 b 556 585 457 542 500 585 b 654 486 611 585 654 542 m 654 -125 b 556 -224 654 -181 611 -224 b 457 -125 500 -224 457 -181 b 556 -26 457 -69 500 -26 b 654 -125 611 -26 654 -69 "},"⠧":{"ha":806,"x_min":0,"x_max":0,"o":"m 349 792 b 250 693 349 736 306 693 b 151 792 194 693 151 736 b 250 890 151 847 194 890 b 349 792 306 890 349 847 m 349 486 b 250 388 349 431 306 388 b 151 486 194 388 151 431 b 250 585 151 542 194 585 b 349 486 306 585 349 542 m 349 181 b 250 82 349 125 306 82 b 151 181 194 82 151 125 b 250 279 151 236 194 279 b 349 181 306 279 349 236 m 654 181 b 556 82 654 125 611 82 b 457 181 500 82 457 125 b 556 279 457 236 500 279 b 654 181 611 279 654 236 "},"⡧":{"ha":806,"x_min":0,"x_max":0,"o":"m 349 792 b 250 693 349 736 306 693 b 151 792 194 693 151 736 b 250 890 151 847 194 890 b 349 792 306 890 349 847 m 349 486 b 250 388 349 431 306 388 b 151 486 194 388 151 431 b 250 585 151 542 194 585 b 349 486 306 585 349 542 m 349 181 b 250 82 349 125 306 82 b 151 181 194 82 151 125 b 250 279 151 236 194 279 b 349 181 306 279 349 236 m 654 181 b 556 82 654 125 611 82 b 457 181 500 82 457 125 b 556 279 457 236 500 279 b 654 181 611 279 654 236 m 349 -125 b 250 -224 349 -181 306 -224 b 151 -125 194 -224 151 -181 b 250 -26 151 -69 194 -26 b 349 -125 306 -26 349 -69 "},"⣧":{"ha":806,"x_min":0,"x_max":0,"o":"m 349 792 b 250 693 349 736 306 693 b 151 792 194 693 151 736 b 250 890 151 847 194 890 b 349 792 306 890 349 847 m 349 486 b 250 388 349 431 306 388 b 151 486 194 388 151 431 b 250 585 151 542 194 585 b 349 486 306 585 349 542 m 349 181 b 250 82 349 125 306 82 b 151 181 194 82 151 125 b 250 279 151 236 194 279 b 349 181 306 279 349 236 m 654 181 b 556 82 654 125 611 82 b 457 181 500 82 457 125 b 556 279 457 236 500 279 b 654 181 611 279 654 236 m 349 -125 b 250 -224 349 -181 306 -224 b 151 -125 194 -224 151 -181 b 250 -26 151 -69 194 -26 b 349 -125 306 -26 349 -69 m 654 -125 b 556 -224 654 -181 611 -224 b 457 -125 500 -224 457 -181 b 556 -26 457 -69 500 -26 b 654 -125 611 -26 654 -69 "},"⢧":{"ha":806,"x_min":0,"x_max":0,"o":"m 349 792 b 250 693 349 736 306 693 b 151 792 194 693 151 736 b 250 890 151 847 194 890 b 349 792 306 890 349 847 m 349 486 b 250 388 349 431 306 388 b 151 486 194 388 151 431 b 250 585 151 542 194 585 b 349 486 306 585 349 542 m 349 181 b 250 82 349 125 306 82 b 151 181 194 82 151 125 b 250 279 151 236 194 279 b 349 181 306 279 349 236 m 654 181 b 556 82 654 125 611 82 b 457 181 500 82 457 125 b 556 279 457 236 500 279 b 654 181 611 279 654 236 m 654 -125 b 556 -224 654 -181 611 -224 b 457 -125 500 -224 457 -181 b 556 -26 457 -69 500 -26 b 654 -125 611 -26 654 -69 "},"⡇":{"ha":806,"x_min":0,"x_max":0,"o":"m 349 792 b 250 693 349 736 306 693 b 151 792 194 693 151 736 b 250 890 151 847 194 890 b 349 792 306 890 349 847 m 349 486 b 250 388 349 431 306 388 b 151 486 194 388 151 431 b 250 585 151 542 194 585 b 349 486 306 585 349 542 m 349 181 b 250 82 349 125 306 82 b 151 181 194 82 151 125 b 250 279 151 236 194 279 b 349 181 306 279 349 236 m 349 -125 b 250 -224 349 -181 306 -224 b 151 -125 194 -224 151 -181 b 250 -26 151 -69 194 -26 b 349 -125 306 -26 349 -69 "},"⣇":{"ha":806,"x_min":0,"x_max":0,"o":"m 349 792 b 250 693 349 736 306 693 b 151 792 194 693 151 736 b 250 890 151 847 194 890 b 349 792 306 890 349 847 m 349 486 b 250 388 349 431 306 388 b 151 486 194 388 151 431 b 250 585 151 542 194 585 b 349 486 306 585 349 542 m 349 181 b 250 82 349 125 306 82 b 151 181 194 82 151 125 b 250 279 151 236 194 279 b 349 181 306 279 349 236 m 349 -125 b 250 -224 349 -181 306 -224 b 151 -125 194 -224 151 -181 b 250 -26 151 -69 194 -26 b 349 -125 306 -26 349 -69 m 654 -125 b 556 -224 654 -181 611 -224 b 457 -125 500 -224 457 -181 b 556 -26 457 -69 500 -26 b 654 -125 611 -26 654 -69 "},"⢇":{"ha":806,"x_min":0,"x_max":0,"o":"m 349 792 b 250 693 349 736 306 693 b 151 792 194 693 151 736 b 250 890 151 847 194 890 b 349 792 306 890 349 847 m 349 486 b 250 388 349 431 306 388 b 151 486 194 388 151 431 b 250 585 151 542 194 585 b 349 486 306 585 349 542 m 349 181 b 250 82 349 125 306 82 b 151 181 194 82 151 125 b 250 279 151 236 194 279 b 349 181 306 279 349 236 m 654 -125 b 556 -224 654 -181 611 -224 b 457 -125 500 -224 457 -181 b 556 -26 457 -69 500 -26 b 654 -125 611 -26 654 -69 "},"⠋":{"ha":806,"x_min":0,"x_max":0,"o":"m 349 792 b 250 693 349 736 306 693 b 151 792 194 693 151 736 b 250 890 151 847 194 890 b 349 792 306 890 349 847 m 349 486 b 250 388 349 431 306 388 b 151 486 194 388 151 431 b 250 585 151 542 194 585 b 349 486 306 585 349 542 m 654 792 b 556 693 654 736 611 693 b 457 792 500 693 457 736 b 556 890 457 847 500 890 b 654 792 611 890 654 847 "},"⠛":{"ha":806,"x_min":0,"x_max":0,"o":"m 349 792 b 250 693 349 736 306 693 b 151 792 194 693 151 736 b 250 890 151 847 194 890 b 349 792 306 890 349 847 m 349 486 b 250 388 349 431 306 388 b 151 486 194 388 151 431 b 250 585 151 542 194 585 b 349 486 306 585 349 542 m 654 792 b 556 693 654 736 611 693 b 457 792 500 693 457 736 b 556 890 457 847 500 890 b 654 792 611 890 654 847 m 654 486 b 556 388 654 431 611 388 b 457 486 500 388 457 431 b 556 585 457 542 500 585 b 654 486 611 585 654 542 "},"⠻":{"ha":806,"x_min":0,"x_max":0,"o":"m 349 792 b 250 693 349 736 306 693 b 151 792 194 693 151 736 b 250 890 151 847 194 890 b 349 792 306 890 349 847 m 349 486 b 250 388 349 431 306 388 b 151 486 194 388 151 431 b 250 585 151 542 194 585 b 349 486 306 585 349 542 m 654 792 b 556 693 654 736 611 693 b 457 792 500 693 457 736 b 556 890 457 847 500 890 b 654 792 611 890 654 847 m 654 486 b 556 388 654 431 611 388 b 457 486 500 388 457 431 b 556 585 457 542 500 585 b 654 486 611 585 654 542 m 654 181 b 556 82 654 125 611 82 b 457 181 500 82 457 125 b 556 279 457 236 500 279 b 654 181 611 279 654 236 "},"⡻":{"ha":806,"x_min":0,"x_max":0,"o":"m 349 792 b 250 693 349 736 306 693 b 151 792 194 693 151 736 b 250 890 151 847 194 890 b 349 792 306 890 349 847 m 349 486 b 250 388 349 431 306 388 b 151 486 194 388 151 431 b 250 585 151 542 194 585 b 349 486 306 585 349 542 m 654 792 b 556 693 654 736 611 693 b 457 792 500 693 457 736 b 556 890 457 847 500 890 b 654 792 611 890 654 847 m 654 486 b 556 388 654 431 611 388 b 457 486 500 388 457 431 b 556 585 457 542 500 585 b 654 486 611 585 654 542 m 654 181 b 556 82 654 125 611 82 b 457 181 500 82 457 125 b 556 279 457 236 500 279 b 654 181 611 279 654 236 m 349 -125 b 250 -224 349 -181 306 -224 b 151 -125 194 -224 151 -181 b 250 -26 151 -69 194 -26 b 349 -125 306 -26 349 -69 "},"⣻":{"ha":806,"x_min":0,"x_max":0,"o":"m 349 792 b 250 693 349 736 306 693 b 151 792 194 693 151 736 b 250 890 151 847 194 890 b 349 792 306 890 349 847 m 349 486 b 250 388 349 431 306 388 b 151 486 194 388 151 431 b 250 585 151 542 194 585 b 349 486 306 585 349 542 m 654 792 b 556 693 654 736 611 693 b 457 792 500 693 457 736 b 556 890 457 847 500 890 b 654 792 611 890 654 847 m 654 486 b 556 388 654 431 611 388 b 457 486 500 388 457 431 b 556 585 457 542 500 585 b 654 486 611 585 654 542 m 654 181 b 556 82 654 125 611 82 b 457 181 500 82 457 125 b 556 279 457 236 500 279 b 654 181 611 279 654 236 m 349 -125 b 250 -224 349 -181 306 -224 b 151 -125 194 -224 151 -181 b 250 -26 151 -69 194 -26 b 349 -125 306 -26 349 -69 m 654 -125 b 556 -224 654 -181 611 -224 b 457 -125 500 -224 457 -181 b 556 -26 457 -69 500 -26 b 654 -125 611 -26 654 -69 "},"⢻":{"ha":806,"x_min":0,"x_max":0,"o":"m 349 792 b 250 693 349 736 306 693 b 151 792 194 693 151 736 b 250 890 151 847 194 890 b 349 792 306 890 349 847 m 349 486 b 250 388 349 431 306 388 b 151 486 194 388 151 431 b 250 585 151 542 194 585 b 349 486 306 585 349 542 m 654 792 b 556 693 654 736 611 693 b 457 792 500 693 457 736 b 556 890 457 847 500 890 b 654 792 611 890 654 847 m 654 486 b 556 388 654 431 611 388 b 457 486 500 388 457 431 b 556 585 457 542 500 585 b 654 486 611 585 654 542 m 654 181 b 556 82 654 125 611 82 b 457 181 500 82 457 125 b 556 279 457 236 500 279 b 654 181 611 279 654 236 m 654 -125 b 556 -224 654 -181 611 -224 b 457 -125 500 -224 457 -181 b 556 -26 457 -69 500 -26 b 654 -125 611 -26 654 -69 "},"⡛":{"ha":806,"x_min":0,"x_max":0,"o":"m 349 792 b 250 693 349 736 306 693 b 151 792 194 693 151 736 b 250 890 151 847 194 890 b 349 792 306 890 349 847 m 349 486 b 250 388 349 431 306 388 b 151 486 194 388 151 431 b 250 585 151 542 194 585 b 349 486 306 585 349 542 m 654 792 b 556 693 654 736 611 693 b 457 792 500 693 457 736 b 556 890 457 847 500 890 b 654 792 611 890 654 847 m 654 486 b 556 388 654 431 611 388 b 457 486 500 388 457 431 b 556 585 457 542 500 585 b 654 486 611 585 654 542 m 349 -125 b 250 -224 349 -181 306 -224 b 151 -125 194 -224 151 -181 b 250 -26 151 -69 194 -26 b 349 -125 306 -26 349 -69 "},"⣛":{"ha":806,"x_min":0,"x_max":0,"o":"m 349 792 b 250 693 349 736 306 693 b 151 792 194 693 151 736 b 250 890 151 847 194 890 b 349 792 306 890 349 847 m 349 486 b 250 388 349 431 306 388 b 151 486 194 388 151 431 b 250 585 151 542 194 585 b 349 486 306 585 349 542 m 654 792 b 556 693 654 736 611 693 b 457 792 500 693 457 736 b 556 890 457 847 500 890 b 654 792 611 890 654 847 m 654 486 b 556 388 654 431 611 388 b 457 486 500 388 457 431 b 556 585 457 542 500 585 b 654 486 611 585 654 542 m 349 -125 b 250 -224 349 -181 306 -224 b 151 -125 194 -224 151 -181 b 250 -26 151 -69 194 -26 b 349 -125 306 -26 349 -69 m 654 -125 b 556 -224 654 -181 611 -224 b 457 -125 500 -224 457 -181 b 556 -26 457 -69 500 -26 b 654 -125 611 -26 654 -69 "},"⢛":{"ha":806,"x_min":0,"x_max":0,"o":"m 349 792 b 250 693 349 736 306 693 b 151 792 194 693 151 736 b 250 890 151 847 194 890 b 349 792 306 890 349 847 m 349 486 b 250 388 349 431 306 388 b 151 486 194 388 151 431 b 250 585 151 542 194 585 b 349 486 306 585 349 542 m 654 792 b 556 693 654 736 611 693 b 457 792 500 693 457 736 b 556 890 457 847 500 890 b 654 792 611 890 654 847 m 654 486 b 556 388 654 431 611 388 b 457 486 500 388 457 431 b 556 585 457 542 500 585 b 654 486 611 585 654 542 m 654 -125 b 556 -224 654 -181 611 -224 b 457 -125 500 -224 457 -181 b 556 -26 457 -69 500 -26 b 654 -125 611 -26 654 -69 "},"⠫":{"ha":806,"x_min":0,"x_max":0,"o":"m 349 792 b 250 693 349 736 306 693 b 151 792 194 693 151 736 b 250 890 151 847 194 890 b 349 792 306 890 349 847 m 349 486 b 250 388 349 431 306 388 b 151 486 194 388 151 431 b 250 585 151 542 194 585 b 349 486 306 585 349 542 m 654 792 b 556 693 654 736 611 693 b 457 792 500 693 457 736 b 556 890 457 847 500 890 b 654 792 611 890 654 847 m 654 181 b 556 82 654 125 611 82 b 457 181 500 82 457 125 b 556 279 457 236 500 279 b 654 181 611 279 654 236 "},"⡫":{"ha":806,"x_min":0,"x_max":0,"o":"m 349 792 b 250 693 349 736 306 693 b 151 792 194 693 151 736 b 250 890 151 847 194 890 b 349 792 306 890 349 847 m 349 486 b 250 388 349 431 306 388 b 151 486 194 388 151 431 b 250 585 151 542 194 585 b 349 486 306 585 349 542 m 654 792 b 556 693 654 736 611 693 b 457 792 500 693 457 736 b 556 890 457 847 500 890 b 654 792 611 890 654 847 m 654 181 b 556 82 654 125 611 82 b 457 181 500 82 457 125 b 556 279 457 236 500 279 b 654 181 611 279 654 236 m 349 -125 b 250 -224 349 -181 306 -224 b 151 -125 194 -224 151 -181 b 250 -26 151 -69 194 -26 b 349 -125 306 -26 349 -69 "},"⣫":{"ha":806,"x_min":0,"x_max":0,"o":"m 349 792 b 250 693 349 736 306 693 b 151 792 194 693 151 736 b 250 890 151 847 194 890 b 349 792 306 890 349 847 m 349 486 b 250 388 349 431 306 388 b 151 486 194 388 151 431 b 250 585 151 542 194 585 b 349 486 306 585 349 542 m 654 792 b 556 693 654 736 611 693 b 457 792 500 693 457 736 b 556 890 457 847 500 890 b 654 792 611 890 654 847 m 654 181 b 556 82 654 125 611 82 b 457 181 500 82 457 125 b 556 279 457 236 500 279 b 654 181 611 279 654 236 m 349 -125 b 250 -224 349 -181 306 -224 b 151 -125 194 -224 151 -181 b 250 -26 151 -69 194 -26 b 349 -125 306 -26 349 -69 m 654 -125 b 556 -224 654 -181 611 -224 b 457 -125 500 -224 457 -181 b 556 -26 457 -69 500 -26 b 654 -125 611 -26 654 -69 "},"⢫":{"ha":806,"x_min":0,"x_max":0,"o":"m 349 792 b 250 693 349 736 306 693 b 151 792 194 693 151 736 b 250 890 151 847 194 890 b 349 792 306 890 349 847 m 349 486 b 250 388 349 431 306 388 b 151 486 194 388 151 431 b 250 585 151 542 194 585 b 349 486 306 585 349 542 m 654 792 b 556 693 654 736 611 693 b 457 792 500 693 457 736 b 556 890 457 847 500 890 b 654 792 611 890 654 847 m 654 181 b 556 82 654 125 611 82 b 457 181 500 82 457 125 b 556 279 457 236 500 279 b 654 181 611 279 654 236 m 654 -125 b 556 -224 654 -181 611 -224 b 457 -125 500 -224 457 -181 b 556 -26 457 -69 500 -26 b 654 -125 611 -26 654 -69 "},"⡋":{"ha":806,"x_min":0,"x_max":0,"o":"m 349 792 b 250 693 349 736 306 693 b 151 792 194 693 151 736 b 250 890 151 847 194 890 b 349 792 306 890 349 847 m 349 486 b 250 388 349 431 306 388 b 151 486 194 388 151 431 b 250 585 151 542 194 585 b 349 486 306 585 349 542 m 654 792 b 556 693 654 736 611 693 b 457 792 500 693 457 736 b 556 890 457 847 500 890 b 654 792 611 890 654 847 m 349 -125 b 250 -224 349 -181 306 -224 b 151 -125 194 -224 151 -181 b 250 -26 151 -69 194 -26 b 349 -125 306 -26 349 -69 "},"⣋":{"ha":806,"x_min":0,"x_max":0,"o":"m 349 792 b 250 693 349 736 306 693 b 151 792 194 693 151 736 b 250 890 151 847 194 890 b 349 792 306 890 349 847 m 349 486 b 250 388 349 431 306 388 b 151 486 194 388 151 431 b 250 585 151 542 194 585 b 349 486 306 585 349 542 m 654 792 b 556 693 654 736 611 693 b 457 792 500 693 457 736 b 556 890 457 847 500 890 b 654 792 611 890 654 847 m 349 -125 b 250 -224 349 -181 306 -224 b 151 -125 194 -224 151 -181 b 250 -26 151 -69 194 -26 b 349 -125 306 -26 349 -69 m 654 -125 b 556 -224 654 -181 611 -224 b 457 -125 500 -224 457 -181 b 556 -26 457 -69 500 -26 b 654 -125 611 -26 654 -69 "},"⢋":{"ha":806,"x_min":0,"x_max":0,"o":"m 349 792 b 250 693 349 736 306 693 b 151 792 194 693 151 736 b 250 890 151 847 194 890 b 349 792 306 890 349 847 m 349 486 b 250 388 349 431 306 388 b 151 486 194 388 151 431 b 250 585 151 542 194 585 b 349 486 306 585 349 542 m 654 792 b 556 693 654 736 611 693 b 457 792 500 693 457 736 b 556 890 457 847 500 890 b 654 792 611 890 654 847 m 654 -125 b 556 -224 654 -181 611 -224 b 457 -125 500 -224 457 -181 b 556 -26 457 -69 500 -26 b 654 -125 611 -26 654 -69 "},"⠓":{"ha":806,"x_min":0,"x_max":0,"o":"m 349 792 b 250 693 349 736 306 693 b 151 792 194 693 151 736 b 250 890 151 847 194 890 b 349 792 306 890 349 847 m 349 486 b 250 388 349 431 306 388 b 151 486 194 388 151 431 b 250 585 151 542 194 585 b 349 486 306 585 349 542 m 654 486 b 556 388 654 431 611 388 b 457 486 500 388 457 431 b 556 585 457 542 500 585 b 654 486 611 585 654 542 "},"⠳":{"ha":806,"x_min":0,"x_max":0,"o":"m 349 792 b 250 693 349 736 306 693 b 151 792 194 693 151 736 b 250 890 151 847 194 890 b 349 792 306 890 349 847 m 349 486 b 250 388 349 431 306 388 b 151 486 194 388 151 431 b 250 585 151 542 194 585 b 349 486 306 585 349 542 m 654 486 b 556 388 654 431 611 388 b 457 486 500 388 457 431 b 556 585 457 542 500 585 b 654 486 611 585 654 542 m 654 181 b 556 82 654 125 611 82 b 457 181 500 82 457 125 b 556 279 457 236 500 279 b 654 181 611 279 654 236 "},"⡳":{"ha":806,"x_min":0,"x_max":0,"o":"m 349 792 b 250 693 349 736 306 693 b 151 792 194 693 151 736 b 250 890 151 847 194 890 b 349 792 306 890 349 847 m 349 486 b 250 388 349 431 306 388 b 151 486 194 388 151 431 b 250 585 151 542 194 585 b 349 486 306 585 349 542 m 654 486 b 556 388 654 431 611 388 b 457 486 500 388 457 431 b 556 585 457 542 500 585 b 654 486 611 585 654 542 m 654 181 b 556 82 654 125 611 82 b 457 181 500 82 457 125 b 556 279 457 236 500 279 b 654 181 611 279 654 236 m 349 -125 b 250 -224 349 -181 306 -224 b 151 -125 194 -224 151 -181 b 250 -26 151 -69 194 -26 b 349 -125 306 -26 349 -69 "},"⣳":{"ha":806,"x_min":0,"x_max":0,"o":"m 349 792 b 250 693 349 736 306 693 b 151 792 194 693 151 736 b 250 890 151 847 194 890 b 349 792 306 890 349 847 m 349 486 b 250 388 349 431 306 388 b 151 486 194 388 151 431 b 250 585 151 542 194 585 b 349 486 306 585 349 542 m 654 486 b 556 388 654 431 611 388 b 457 486 500 388 457 431 b 556 585 457 542 500 585 b 654 486 611 585 654 542 m 654 181 b 556 82 654 125 611 82 b 457 181 500 82 457 125 b 556 279 457 236 500 279 b 654 181 611 279 654 236 m 349 -125 b 250 -224 349 -181 306 -224 b 151 -125 194 -224 151 -181 b 250 -26 151 -69 194 -26 b 349 -125 306 -26 349 -69 m 654 -125 b 556 -224 654 -181 611 -224 b 457 -125 500 -224 457 -181 b 556 -26 457 -69 500 -26 b 654 -125 611 -26 654 -69 "},"⢳":{"ha":806,"x_min":0,"x_max":0,"o":"m 349 792 b 250 693 349 736 306 693 b 151 792 194 693 151 736 b 250 890 151 847 194 890 b 349 792 306 890 349 847 m 349 486 b 250 388 349 431 306 388 b 151 486 194 388 151 431 b 250 585 151 542 194 585 b 349 486 306 585 349 542 m 654 486 b 556 388 654 431 611 388 b 457 486 500 388 457 431 b 556 585 457 542 500 585 b 654 486 611 585 654 542 m 654 181 b 556 82 654 125 611 82 b 457 181 500 82 457 125 b 556 279 457 236 500 279 b 654 181 611 279 654 236 m 654 -125 b 556 -224 654 -181 611 -224 b 457 -125 500 -224 457 -181 b 556 -26 457 -69 500 -26 b 654 -125 611 -26 654 -69 "},"⡓":{"ha":806,"x_min":0,"x_max":0,"o":"m 349 792 b 250 693 349 736 306 693 b 151 792 194 693 151 736 b 250 890 151 847 194 890 b 349 792 306 890 349 847 m 349 486 b 250 388 349 431 306 388 b 151 486 194 388 151 431 b 250 585 151 542 194 585 b 349 486 306 585 349 542 m 654 486 b 556 388 654 431 611 388 b 457 486 500 388 457 431 b 556 585 457 542 500 585 b 654 486 611 585 654 542 m 349 -125 b 250 -224 349 -181 306 -224 b 151 -125 194 -224 151 -181 b 250 -26 151 -69 194 -26 b 349 -125 306 -26 349 -69 "},"⣓":{"ha":806,"x_min":0,"x_max":0,"o":"m 349 792 b 250 693 349 736 306 693 b 151 792 194 693 151 736 b 250 890 151 847 194 890 b 349 792 306 890 349 847 m 349 486 b 250 388 349 431 306 388 b 151 486 194 388 151 431 b 250 585 151 542 194 585 b 349 486 306 585 349 542 m 654 486 b 556 388 654 431 611 388 b 457 486 500 388 457 431 b 556 585 457 542 500 585 b 654 486 611 585 654 542 m 349 -125 b 250 -224 349 -181 306 -224 b 151 -125 194 -224 151 -181 b 250 -26 151 -69 194 -26 b 349 -125 306 -26 349 -69 m 654 -125 b 556 -224 654 -181 611 -224 b 457 -125 500 -224 457 -181 b 556 -26 457 -69 500 -26 b 654 -125 611 -26 654 -69 "},"⢓":{"ha":806,"x_min":0,"x_max":0,"o":"m 349 792 b 250 693 349 736 306 693 b 151 792 194 693 151 736 b 250 890 151 847 194 890 b 349 792 306 890 349 847 m 349 486 b 250 388 349 431 306 388 b 151 486 194 388 151 431 b 250 585 151 542 194 585 b 349 486 306 585 349 542 m 654 486 b 556 388 654 431 611 388 b 457 486 500 388 457 431 b 556 585 457 542 500 585 b 654 486 611 585 654 542 m 654 -125 b 556 -224 654 -181 611 -224 b 457 -125 500 -224 457 -181 b 556 -26 457 -69 500 -26 b 654 -125 611 -26 654 -69 "},"⠣":{"ha":806,"x_min":0,"x_max":0,"o":"m 349 792 b 250 693 349 736 306 693 b 151 792 194 693 151 736 b 250 890 151 847 194 890 b 349 792 306 890 349 847 m 349 486 b 250 388 349 431 306 388 b 151 486 194 388 151 431 b 250 585 151 542 194 585 b 349 486 306 585 349 542 m 654 181 b 556 82 654 125 611 82 b 457 181 500 82 457 125 b 556 279 457 236 500 279 b 654 181 611 279 654 236 "},"⡣":{"ha":806,"x_min":0,"x_max":0,"o":"m 349 792 b 250 693 349 736 306 693 b 151 792 194 693 151 736 b 250 890 151 847 194 890 b 349 792 306 890 349 847 m 349 486 b 250 388 349 431 306 388 b 151 486 194 388 151 431 b 250 585 151 542 194 585 b 349 486 306 585 349 542 m 654 181 b 556 82 654 125 611 82 b 457 181 500 82 457 125 b 556 279 457 236 500 279 b 654 181 611 279 654 236 m 349 -125 b 250 -224 349 -181 306 -224 b 151 -125 194 -224 151 -181 b 250 -26 151 -69 194 -26 b 349 -125 306 -26 349 -69 "},"⣣":{"ha":806,"x_min":0,"x_max":0,"o":"m 349 792 b 250 693 349 736 306 693 b 151 792 194 693 151 736 b 250 890 151 847 194 890 b 349 792 306 890 349 847 m 349 486 b 250 388 349 431 306 388 b 151 486 194 388 151 431 b 250 585 151 542 194 585 b 349 486 306 585 349 542 m 654 181 b 556 82 654 125 611 82 b 457 181 500 82 457 125 b 556 279 457 236 500 279 b 654 181 611 279 654 236 m 349 -125 b 250 -224 349 -181 306 -224 b 151 -125 194 -224 151 -181 b 250 -26 151 -69 194 -26 b 349 -125 306 -26 349 -69 m 654 -125 b 556 -224 654 -181 611 -224 b 457 -125 500 -224 457 -181 b 556 -26 457 -69 500 -26 b 654 -125 611 -26 654 -69 "},"⢣":{"ha":806,"x_min":0,"x_max":0,"o":"m 349 792 b 250 693 349 736 306 693 b 151 792 194 693 151 736 b 250 890 151 847 194 890 b 349 792 306 890 349 847 m 349 486 b 250 388 349 431 306 388 b 151 486 194 388 151 431 b 250 585 151 542 194 585 b 349 486 306 585 349 542 m 654 181 b 556 82 654 125 611 82 b 457 181 500 82 457 125 b 556 279 457 236 500 279 b 654 181 611 279 654 236 m 654 -125 b 556 -224 654 -181 611 -224 b 457 -125 500 -224 457 -181 b 556 -26 457 -69 500 -26 b 654 -125 611 -26 654 -69 "},"⡃":{"ha":806,"x_min":0,"x_max":0,"o":"m 349 792 b 250 693 349 736 306 693 b 151 792 194 693 151 736 b 250 890 151 847 194 890 b 349 792 306 890 349 847 m 349 486 b 250 388 349 431 306 388 b 151 486 194 388 151 431 b 250 585 151 542 194 585 b 349 486 306 585 349 542 m 349 -125 b 250 -224 349 -181 306 -224 b 151 -125 194 -224 151 -181 b 250 -26 151 -69 194 -26 b 349 -125 306 -26 349 -69 "},"⣃":{"ha":806,"x_min":0,"x_max":0,"o":"m 349 792 b 250 693 349 736 306 693 b 151 792 194 693 151 736 b 250 890 151 847 194 890 b 349 792 306 890 349 847 m 349 486 b 250 388 349 431 306 388 b 151 486 194 388 151 431 b 250 585 151 542 194 585 b 349 486 306 585 349 542 m 349 -125 b 250 -224 349 -181 306 -224 b 151 -125 194 -224 151 -181 b 250 -26 151 -69 194 -26 b 349 -125 306 -26 349 -69 m 654 -125 b 556 -224 654 -181 611 -224 b 457 -125 500 -224 457 -181 b 556 -26 457 -69 500 -26 b 654 -125 611 -26 654 -69 "},"⢃":{"ha":806,"x_min":0,"x_max":0,"o":"m 349 792 b 250 693 349 736 306 693 b 151 792 194 693 151 736 b 250 890 151 847 194 890 b 349 792 306 890 349 847 m 349 486 b 250 388 349 431 306 388 b 151 486 194 388 151 431 b 250 585 151 542 194 585 b 349 486 306 585 349 542 m 654 -125 b 556 -224 654 -181 611 -224 b 457 -125 500 -224 457 -181 b 556 -26 457 -69 500 -26 b 654 -125 611 -26 654 -69 "},"⠅":{"ha":806,"x_min":0,"x_max":0,"o":"m 349 792 b 250 693 349 736 306 693 b 151 792 194 693 151 736 b 250 890 151 847 194 890 b 349 792 306 890 349 847 m 349 181 b 250 82 349 125 306 82 b 151 181 194 82 151 125 b 250 279 151 236 194 279 b 349 181 306 279 349 236 "},"⠍":{"ha":806,"x_min":0,"x_max":0,"o":"m 349 792 b 250 693 349 736 306 693 b 151 792 194 693 151 736 b 250 890 151 847 194 890 b 349 792 306 890 349 847 m 349 181 b 250 82 349 125 306 82 b 151 181 194 82 151 125 b 250 279 151 236 194 279 b 349 181 306 279 349 236 m 654 792 b 556 693 654 736 611 693 b 457 792 500 693 457 736 b 556 890 457 847 500 890 b 654 792 611 890 654 847 "},"⠝":{"ha":806,"x_min":0,"x_max":0,"o":"m 349 792 b 250 693 349 736 306 693 b 151 792 194 693 151 736 b 250 890 151 847 194 890 b 349 792 306 890 349 847 m 349 181 b 250 82 349 125 306 82 b 151 181 194 82 151 125 b 250 279 151 236 194 279 b 349 181 306 279 349 236 m 654 792 b 556 693 654 736 611 693 b 457 792 500 693 457 736 b 556 890 457 847 500 890 b 654 792 611 890 654 847 m 654 486 b 556 388 654 431 611 388 b 457 486 500 388 457 431 b 556 585 457 542 500 585 b 654 486 611 585 654 542 "},"⠽":{"ha":806,"x_min":0,"x_max":0,"o":"m 349 792 b 250 693 349 736 306 693 b 151 792 194 693 151 736 b 250 890 151 847 194 890 b 349 792 306 890 349 847 m 349 181 b 250 82 349 125 306 82 b 151 181 194 82 151 125 b 250 279 151 236 194 279 b 349 181 306 279 349 236 m 654 792 b 556 693 654 736 611 693 b 457 792 500 693 457 736 b 556 890 457 847 500 890 b 654 792 611 890 654 847 m 654 486 b 556 388 654 431 611 388 b 457 486 500 388 457 431 b 556 585 457 542 500 585 b 654 486 611 585 654 542 m 654 181 b 556 82 654 125 611 82 b 457 181 500 82 457 125 b 556 279 457 236 500 279 b 654 181 611 279 654 236 "},"⡽":{"ha":806,"x_min":0,"x_max":0,"o":"m 349 792 b 250 693 349 736 306 693 b 151 792 194 693 151 736 b 250 890 151 847 194 890 b 349 792 306 890 349 847 m 349 181 b 250 82 349 125 306 82 b 151 181 194 82 151 125 b 250 279 151 236 194 279 b 349 181 306 279 349 236 m 654 792 b 556 693 654 736 611 693 b 457 792 500 693 457 736 b 556 890 457 847 500 890 b 654 792 611 890 654 847 m 654 486 b 556 388 654 431 611 388 b 457 486 500 388 457 431 b 556 585 457 542 500 585 b 654 486 611 585 654 542 m 654 181 b 556 82 654 125 611 82 b 457 181 500 82 457 125 b 556 279 457 236 500 279 b 654 181 611 279 654 236 m 349 -125 b 250 -224 349 -181 306 -224 b 151 -125 194 -224 151 -181 b 250 -26 151 -69 194 -26 b 349 -125 306 -26 349 -69 "},"⣽":{"ha":806,"x_min":0,"x_max":0,"o":"m 349 792 b 250 693 349 736 306 693 b 151 792 194 693 151 736 b 250 890 151 847 194 890 b 349 792 306 890 349 847 m 349 181 b 250 82 349 125 306 82 b 151 181 194 82 151 125 b 250 279 151 236 194 279 b 349 181 306 279 349 236 m 654 792 b 556 693 654 736 611 693 b 457 792 500 693 457 736 b 556 890 457 847 500 890 b 654 792 611 890 654 847 m 654 486 b 556 388 654 431 611 388 b 457 486 500 388 457 431 b 556 585 457 542 500 585 b 654 486 611 585 654 542 m 654 181 b 556 82 654 125 611 82 b 457 181 500 82 457 125 b 556 279 457 236 500 279 b 654 181 611 279 654 236 m 349 -125 b 250 -224 349 -181 306 -224 b 151 -125 194 -224 151 -181 b 250 -26 151 -69 194 -26 b 349 -125 306 -26 349 -69 m 654 -125 b 556 -224 654 -181 611 -224 b 457 -125 500 -224 457 -181 b 556 -26 457 -69 500 -26 b 654 -125 611 -26 654 -69 "},"⢽":{"ha":806,"x_min":0,"x_max":0,"o":"m 349 792 b 250 693 349 736 306 693 b 151 792 194 693 151 736 b 250 890 151 847 194 890 b 349 792 306 890 349 847 m 349 181 b 250 82 349 125 306 82 b 151 181 194 82 151 125 b 250 279 151 236 194 279 b 349 181 306 279 349 236 m 654 792 b 556 693 654 736 611 693 b 457 792 500 693 457 736 b 556 890 457 847 500 890 b 654 792 611 890 654 847 m 654 486 b 556 388 654 431 611 388 b 457 486 500 388 457 431 b 556 585 457 542 500 585 b 654 486 611 585 654 542 m 654 181 b 556 82 654 125 611 82 b 457 181 500 82 457 125 b 556 279 457 236 500 279 b 654 181 611 279 654 236 m 654 -125 b 556 -224 654 -181 611 -224 b 457 -125 500 -224 457 -181 b 556 -26 457 -69 500 -26 b 654 -125 611 -26 654 -69 "},"⡝":{"ha":806,"x_min":0,"x_max":0,"o":"m 349 792 b 250 693 349 736 306 693 b 151 792 194 693 151 736 b 250 890 151 847 194 890 b 349 792 306 890 349 847 m 349 181 b 250 82 349 125 306 82 b 151 181 194 82 151 125 b 250 279 151 236 194 279 b 349 181 306 279 349 236 m 654 792 b 556 693 654 736 611 693 b 457 792 500 693 457 736 b 556 890 457 847 500 890 b 654 792 611 890 654 847 m 654 486 b 556 388 654 431 611 388 b 457 486 500 388 457 431 b 556 585 457 542 500 585 b 654 486 611 585 654 542 m 349 -125 b 250 -224 349 -181 306 -224 b 151 -125 194 -224 151 -181 b 250 -26 151 -69 194 -26 b 349 -125 306 -26 349 -69 "},"⣝":{"ha":806,"x_min":0,"x_max":0,"o":"m 349 792 b 250 693 349 736 306 693 b 151 792 194 693 151 736 b 250 890 151 847 194 890 b 349 792 306 890 349 847 m 349 181 b 250 82 349 125 306 82 b 151 181 194 82 151 125 b 250 279 151 236 194 279 b 349 181 306 279 349 236 m 654 792 b 556 693 654 736 611 693 b 457 792 500 693 457 736 b 556 890 457 847 500 890 b 654 792 611 890 654 847 m 654 486 b 556 388 654 431 611 388 b 457 486 500 388 457 431 b 556 585 457 542 500 585 b 654 486 611 585 654 542 m 349 -125 b 250 -224 349 -181 306 -224 b 151 -125 194 -224 151 -181 b 250 -26 151 -69 194 -26 b 349 -125 306 -26 349 -69 m 654 -125 b 556 -224 654 -181 611 -224 b 457 -125 500 -224 457 -181 b 556 -26 457 -69 500 -26 b 654 -125 611 -26 654 -69 "},"⢝":{"ha":806,"x_min":0,"x_max":0,"o":"m 349 792 b 250 693 349 736 306 693 b 151 792 194 693 151 736 b 250 890 151 847 194 890 b 349 792 306 890 349 847 m 349 181 b 250 82 349 125 306 82 b 151 181 194 82 151 125 b 250 279 151 236 194 279 b 349 181 306 279 349 236 m 654 792 b 556 693 654 736 611 693 b 457 792 500 693 457 736 b 556 890 457 847 500 890 b 654 792 611 890 654 847 m 654 486 b 556 388 654 431 611 388 b 457 486 500 388 457 431 b 556 585 457 542 500 585 b 654 486 611 585 654 542 m 654 -125 b 556 -224 654 -181 611 -224 b 457 -125 500 -224 457 -181 b 556 -26 457 -69 500 -26 b 654 -125 611 -26 654 -69 "},"⠭":{"ha":806,"x_min":0,"x_max":0,"o":"m 349 792 b 250 693 349 736 306 693 b 151 792 194 693 151 736 b 250 890 151 847 194 890 b 349 792 306 890 349 847 m 349 181 b 250 82 349 125 306 82 b 151 181 194 82 151 125 b 250 279 151 236 194 279 b 349 181 306 279 349 236 m 654 792 b 556 693 654 736 611 693 b 457 792 500 693 457 736 b 556 890 457 847 500 890 b 654 792 611 890 654 847 m 654 181 b 556 82 654 125 611 82 b 457 181 500 82 457 125 b 556 279 457 236 500 279 b 654 181 611 279 654 236 "},"⡭":{"ha":806,"x_min":0,"x_max":0,"o":"m 349 792 b 250 693 349 736 306 693 b 151 792 194 693 151 736 b 250 890 151 847 194 890 b 349 792 306 890 349 847 m 349 181 b 250 82 349 125 306 82 b 151 181 194 82 151 125 b 250 279 151 236 194 279 b 349 181 306 279 349 236 m 654 792 b 556 693 654 736 611 693 b 457 792 500 693 457 736 b 556 890 457 847 500 890 b 654 792 611 890 654 847 m 654 181 b 556 82 654 125 611 82 b 457 181 500 82 457 125 b 556 279 457 236 500 279 b 654 181 611 279 654 236 m 349 -125 b 250 -224 349 -181 306 -224 b 151 -125 194 -224 151 -181 b 250 -26 151 -69 194 -26 b 349 -125 306 -26 349 -69 "},"⣭":{"ha":806,"x_min":0,"x_max":0,"o":"m 349 792 b 250 693 349 736 306 693 b 151 792 194 693 151 736 b 250 890 151 847 194 890 b 349 792 306 890 349 847 m 349 181 b 250 82 349 125 306 82 b 151 181 194 82 151 125 b 250 279 151 236 194 279 b 349 181 306 279 349 236 m 654 792 b 556 693 654 736 611 693 b 457 792 500 693 457 736 b 556 890 457 847 500 890 b 654 792 611 890 654 847 m 654 181 b 556 82 654 125 611 82 b 457 181 500 82 457 125 b 556 279 457 236 500 279 b 654 181 611 279 654 236 m 349 -125 b 250 -224 349 -181 306 -224 b 151 -125 194 -224 151 -181 b 250 -26 151 -69 194 -26 b 349 -125 306 -26 349 -69 m 654 -125 b 556 -224 654 -181 611 -224 b 457 -125 500 -224 457 -181 b 556 -26 457 -69 500 -26 b 654 -125 611 -26 654 -69 "},"⢭":{"ha":806,"x_min":0,"x_max":0,"o":"m 349 792 b 250 693 349 736 306 693 b 151 792 194 693 151 736 b 250 890 151 847 194 890 b 349 792 306 890 349 847 m 349 181 b 250 82 349 125 306 82 b 151 181 194 82 151 125 b 250 279 151 236 194 279 b 349 181 306 279 349 236 m 654 792 b 556 693 654 736 611 693 b 457 792 500 693 457 736 b 556 890 457 847 500 890 b 654 792 611 890 654 847 m 654 181 b 556 82 654 125 611 82 b 457 181 500 82 457 125 b 556 279 457 236 500 279 b 654 181 611 279 654 236 m 654 -125 b 556 -224 654 -181 611 -224 b 457 -125 500 -224 457 -181 b 556 -26 457 -69 500 -26 b 654 -125 611 -26 654 -69 "},"⡍":{"ha":806,"x_min":0,"x_max":0,"o":"m 349 792 b 250 693 349 736 306 693 b 151 792 194 693 151 736 b 250 890 151 847 194 890 b 349 792 306 890 349 847 m 349 181 b 250 82 349 125 306 82 b 151 181 194 82 151 125 b 250 279 151 236 194 279 b 349 181 306 279 349 236 m 654 792 b 556 693 654 736 611 693 b 457 792 500 693 457 736 b 556 890 457 847 500 890 b 654 792 611 890 654 847 m 349 -125 b 250 -224 349 -181 306 -224 b 151 -125 194 -224 151 -181 b 250 -26 151 -69 194 -26 b 349 -125 306 -26 349 -69 "},"⣍":{"ha":806,"x_min":0,"x_max":0,"o":"m 349 792 b 250 693 349 736 306 693 b 151 792 194 693 151 736 b 250 890 151 847 194 890 b 349 792 306 890 349 847 m 349 181 b 250 82 349 125 306 82 b 151 181 194 82 151 125 b 250 279 151 236 194 279 b 349 181 306 279 349 236 m 654 792 b 556 693 654 736 611 693 b 457 792 500 693 457 736 b 556 890 457 847 500 890 b 654 792 611 890 654 847 m 349 -125 b 250 -224 349 -181 306 -224 b 151 -125 194 -224 151 -181 b 250 -26 151 -69 194 -26 b 349 -125 306 -26 349 -69 m 654 -125 b 556 -224 654 -181 611 -224 b 457 -125 500 -224 457 -181 b 556 -26 457 -69 500 -26 b 654 -125 611 -26 654 -69 "},"⢍":{"ha":806,"x_min":0,"x_max":0,"o":"m 349 792 b 250 693 349 736 306 693 b 151 792 194 693 151 736 b 250 890 151 847 194 890 b 349 792 306 890 349 847 m 349 181 b 250 82 349 125 306 82 b 151 181 194 82 151 125 b 250 279 151 236 194 279 b 349 181 306 279 349 236 m 654 792 b 556 693 654 736 611 693 b 457 792 500 693 457 736 b 556 890 457 847 500 890 b 654 792 611 890 654 847 m 654 -125 b 556 -224 654 -181 611 -224 b 457 -125 500 -224 457 -181 b 556 -26 457 -69 500 -26 b 654 -125 611 -26 654 -69 "},"⠕":{"ha":806,"x_min":0,"x_max":0,"o":"m 349 792 b 250 693 349 736 306 693 b 151 792 194 693 151 736 b 250 890 151 847 194 890 b 349 792 306 890 349 847 m 349 181 b 250 82 349 125 306 82 b 151 181 194 82 151 125 b 250 279 151 236 194 279 b 349 181 306 279 349 236 m 654 486 b 556 388 654 431 611 388 b 457 486 500 388 457 431 b 556 585 457 542 500 585 b 654 486 611 585 654 542 "},"⠵":{"ha":806,"x_min":0,"x_max":0,"o":"m 349 792 b 250 693 349 736 306 693 b 151 792 194 693 151 736 b 250 890 151 847 194 890 b 349 792 306 890 349 847 m 349 181 b 250 82 349 125 306 82 b 151 181 194 82 151 125 b 250 279 151 236 194 279 b 349 181 306 279 349 236 m 654 486 b 556 388 654 431 611 388 b 457 486 500 388 457 431 b 556 585 457 542 500 585 b 654 486 611 585 654 542 m 654 181 b 556 82 654 125 611 82 b 457 181 500 82 457 125 b 556 279 457 236 500 279 b 654 181 611 279 654 236 "},"⡵":{"ha":806,"x_min":0,"x_max":0,"o":"m 349 792 b 250 693 349 736 306 693 b 151 792 194 693 151 736 b 250 890 151 847 194 890 b 349 792 306 890 349 847 m 349 181 b 250 82 349 125 306 82 b 151 181 194 82 151 125 b 250 279 151 236 194 279 b 349 181 306 279 349 236 m 654 486 b 556 388 654 431 611 388 b 457 486 500 388 457 431 b 556 585 457 542 500 585 b 654 486 611 585 654 542 m 654 181 b 556 82 654 125 611 82 b 457 181 500 82 457 125 b 556 279 457 236 500 279 b 654 181 611 279 654 236 m 349 -125 b 250 -224 349 -181 306 -224 b 151 -125 194 -224 151 -181 b 250 -26 151 -69 194 -26 b 349 -125 306 -26 349 -69 "},"⣵":{"ha":806,"x_min":0,"x_max":0,"o":"m 349 792 b 250 693 349 736 306 693 b 151 792 194 693 151 736 b 250 890 151 847 194 890 b 349 792 306 890 349 847 m 349 181 b 250 82 349 125 306 82 b 151 181 194 82 151 125 b 250 279 151 236 194 279 b 349 181 306 279 349 236 m 654 486 b 556 388 654 431 611 388 b 457 486 500 388 457 431 b 556 585 457 542 500 585 b 654 486 611 585 654 542 m 654 181 b 556 82 654 125 611 82 b 457 181 500 82 457 125 b 556 279 457 236 500 279 b 654 181 611 279 654 236 m 349 -125 b 250 -224 349 -181 306 -224 b 151 -125 194 -224 151 -181 b 250 -26 151 -69 194 -26 b 349 -125 306 -26 349 -69 m 654 -125 b 556 -224 654 -181 611 -224 b 457 -125 500 -224 457 -181 b 556 -26 457 -69 500 -26 b 654 -125 611 -26 654 -69 "},"⢵":{"ha":806,"x_min":0,"x_max":0,"o":"m 349 792 b 250 693 349 736 306 693 b 151 792 194 693 151 736 b 250 890 151 847 194 890 b 349 792 306 890 349 847 m 349 181 b 250 82 349 125 306 82 b 151 181 194 82 151 125 b 250 279 151 236 194 279 b 349 181 306 279 349 236 m 654 486 b 556 388 654 431 611 388 b 457 486 500 388 457 431 b 556 585 457 542 500 585 b 654 486 611 585 654 542 m 654 181 b 556 82 654 125 611 82 b 457 181 500 82 457 125 b 556 279 457 236 500 279 b 654 181 611 279 654 236 m 654 -125 b 556 -224 654 -181 611 -224 b 457 -125 500 -224 457 -181 b 556 -26 457 -69 500 -26 b 654 -125 611 -26 654 -69 "},"⡕":{"ha":806,"x_min":0,"x_max":0,"o":"m 349 792 b 250 693 349 736 306 693 b 151 792 194 693 151 736 b 250 890 151 847 194 890 b 349 792 306 890 349 847 m 349 181 b 250 82 349 125 306 82 b 151 181 194 82 151 125 b 250 279 151 236 194 279 b 349 181 306 279 349 236 m 654 486 b 556 388 654 431 611 388 b 457 486 500 388 457 431 b 556 585 457 542 500 585 b 654 486 611 585 654 542 m 349 -125 b 250 -224 349 -181 306 -224 b 151 -125 194 -224 151 -181 b 250 -26 151 -69 194 -26 b 349 -125 306 -26 349 -69 "},"⣕":{"ha":806,"x_min":0,"x_max":0,"o":"m 349 792 b 250 693 349 736 306 693 b 151 792 194 693 151 736 b 250 890 151 847 194 890 b 349 792 306 890 349 847 m 349 181 b 250 82 349 125 306 82 b 151 181 194 82 151 125 b 250 279 151 236 194 279 b 349 181 306 279 349 236 m 654 486 b 556 388 654 431 611 388 b 457 486 500 388 457 431 b 556 585 457 542 500 585 b 654 486 611 585 654 542 m 349 -125 b 250 -224 349 -181 306 -224 b 151 -125 194 -224 151 -181 b 250 -26 151 -69 194 -26 b 349 -125 306 -26 349 -69 m 654 -125 b 556 -224 654 -181 611 -224 b 457 -125 500 -224 457 -181 b 556 -26 457 -69 500 -26 b 654 -125 611 -26 654 -69 "},"⢕":{"ha":806,"x_min":0,"x_max":0,"o":"m 349 792 b 250 693 349 736 306 693 b 151 792 194 693 151 736 b 250 890 151 847 194 890 b 349 792 306 890 349 847 m 349 181 b 250 82 349 125 306 82 b 151 181 194 82 151 125 b 250 279 151 236 194 279 b 349 181 306 279 349 236 m 654 486 b 556 388 654 431 611 388 b 457 486 500 388 457 431 b 556 585 457 542 500 585 b 654 486 611 585 654 542 m 654 -125 b 556 -224 654 -181 611 -224 b 457 -125 500 -224 457 -181 b 556 -26 457 -69 500 -26 b 654 -125 611 -26 654 -69 "},"⠥":{"ha":806,"x_min":0,"x_max":0,"o":"m 349 792 b 250 693 349 736 306 693 b 151 792 194 693 151 736 b 250 890 151 847 194 890 b 349 792 306 890 349 847 m 349 181 b 250 82 349 125 306 82 b 151 181 194 82 151 125 b 250 279 151 236 194 279 b 349 181 306 279 349 236 m 654 181 b 556 82 654 125 611 82 b 457 181 500 82 457 125 b 556 279 457 236 500 279 b 654 181 611 279 654 236 "},"⡥":{"ha":806,"x_min":0,"x_max":0,"o":"m 349 792 b 250 693 349 736 306 693 b 151 792 194 693 151 736 b 250 890 151 847 194 890 b 349 792 306 890 349 847 m 349 181 b 250 82 349 125 306 82 b 151 181 194 82 151 125 b 250 279 151 236 194 279 b 349 181 306 279 349 236 m 654 181 b 556 82 654 125 611 82 b 457 181 500 82 457 125 b 556 279 457 236 500 279 b 654 181 611 279 654 236 m 349 -125 b 250 -224 349 -181 306 -224 b 151 -125 194 -224 151 -181 b 250 -26 151 -69 194 -26 b 349 -125 306 -26 349 -69 "},"⣥":{"ha":806,"x_min":0,"x_max":0,"o":"m 349 792 b 250 693 349 736 306 693 b 151 792 194 693 151 736 b 250 890 151 847 194 890 b 349 792 306 890 349 847 m 349 181 b 250 82 349 125 306 82 b 151 181 194 82 151 125 b 250 279 151 236 194 279 b 349 181 306 279 349 236 m 654 181 b 556 82 654 125 611 82 b 457 181 500 82 457 125 b 556 279 457 236 500 279 b 654 181 611 279 654 236 m 349 -125 b 250 -224 349 -181 306 -224 b 151 -125 194 -224 151 -181 b 250 -26 151 -69 194 -26 b 349 -125 306 -26 349 -69 m 654 -125 b 556 -224 654 -181 611 -224 b 457 -125 500 -224 457 -181 b 556 -26 457 -69 500 -26 b 654 -125 611 -26 654 -69 "},"⢥":{"ha":806,"x_min":0,"x_max":0,"o":"m 349 792 b 250 693 349 736 306 693 b 151 792 194 693 151 736 b 250 890 151 847 194 890 b 349 792 306 890 349 847 m 349 181 b 250 82 349 125 306 82 b 151 181 194 82 151 125 b 250 279 151 236 194 279 b 349 181 306 279 349 236 m 654 181 b 556 82 654 125 611 82 b 457 181 500 82 457 125 b 556 279 457 236 500 279 b 654 181 611 279 654 236 m 654 -125 b 556 -224 654 -181 611 -224 b 457 -125 500 -224 457 -181 b 556 -26 457 -69 500 -26 b 654 -125 611 -26 654 -69 "},"⡅":{"ha":806,"x_min":0,"x_max":0,"o":"m 349 792 b 250 693 349 736 306 693 b 151 792 194 693 151 736 b 250 890 151 847 194 890 b 349 792 306 890 349 847 m 349 181 b 250 82 349 125 306 82 b 151 181 194 82 151 125 b 250 279 151 236 194 279 b 349 181 306 279 349 236 m 349 -125 b 250 -224 349 -181 306 -224 b 151 -125 194 -224 151 -181 b 250 -26 151 -69 194 -26 b 349 -125 306 -26 349 -69 "},"⣅":{"ha":806,"x_min":0,"x_max":0,"o":"m 349 792 b 250 693 349 736 306 693 b 151 792 194 693 151 736 b 250 890 151 847 194 890 b 349 792 306 890 349 847 m 349 181 b 250 82 349 125 306 82 b 151 181 194 82 151 125 b 250 279 151 236 194 279 b 349 181 306 279 349 236 m 349 -125 b 250 -224 349 -181 306 -224 b 151 -125 194 -224 151 -181 b 250 -26 151 -69 194 -26 b 349 -125 306 -26 349 -69 m 654 -125 b 556 -224 654 -181 611 -224 b 457 -125 500 -224 457 -181 b 556 -26 457 -69 500 -26 b 654 -125 611 -26 654 -69 "},"⢅":{"ha":806,"x_min":0,"x_max":0,"o":"m 349 792 b 250 693 349 736 306 693 b 151 792 194 693 151 736 b 250 890 151 847 194 890 b 349 792 306 890 349 847 m 349 181 b 250 82 349 125 306 82 b 151 181 194 82 151 125 b 250 279 151 236 194 279 b 349 181 306 279 349 236 m 654 -125 b 556 -224 654 -181 611 -224 b 457 -125 500 -224 457 -181 b 556 -26 457 -69 500 -26 b 654 -125 611 -26 654 -69 "},"⠉":{"ha":806,"x_min":0,"x_max":0,"o":"m 349 792 b 250 693 349 736 306 693 b 151 792 194 693 151 736 b 250 890 151 847 194 890 b 349 792 306 890 349 847 m 654 792 b 556 693 654 736 611 693 b 457 792 500 693 457 736 b 556 890 457 847 500 890 b 654 792 611 890 654 847 "},"⠙":{"ha":806,"x_min":0,"x_max":0,"o":"m 349 792 b 250 693 349 736 306 693 b 151 792 194 693 151 736 b 250 890 151 847 194 890 b 349 792 306 890 349 847 m 654 792 b 556 693 654 736 611 693 b 457 792 500 693 457 736 b 556 890 457 847 500 890 b 654 792 611 890 654 847 m 654 486 b 556 388 654 431 611 388 b 457 486 500 388 457 431 b 556 585 457 542 500 585 b 654 486 611 585 654 542 "},"⠹":{"ha":806,"x_min":0,"x_max":0,"o":"m 349 792 b 250 693 349 736 306 693 b 151 792 194 693 151 736 b 250 890 151 847 194 890 b 349 792 306 890 349 847 m 654 792 b 556 693 654 736 611 693 b 457 792 500 693 457 736 b 556 890 457 847 500 890 b 654 792 611 890 654 847 m 654 486 b 556 388 654 431 611 388 b 457 486 500 388 457 431 b 556 585 457 542 500 585 b 654 486 611 585 654 542 m 654 181 b 556 82 654 125 611 82 b 457 181 500 82 457 125 b 556 279 457 236 500 279 b 654 181 611 279 654 236 "},"⡹":{"ha":806,"x_min":0,"x_max":0,"o":"m 349 792 b 250 693 349 736 306 693 b 151 792 194 693 151 736 b 250 890 151 847 194 890 b 349 792 306 890 349 847 m 654 792 b 556 693 654 736 611 693 b 457 792 500 693 457 736 b 556 890 457 847 500 890 b 654 792 611 890 654 847 m 654 486 b 556 388 654 431 611 388 b 457 486 500 388 457 431 b 556 585 457 542 500 585 b 654 486 611 585 654 542 m 654 181 b 556 82 654 125 611 82 b 457 181 500 82 457 125 b 556 279 457 236 500 279 b 654 181 611 279 654 236 m 349 -125 b 250 -224 349 -181 306 -224 b 151 -125 194 -224 151 -181 b 250 -26 151 -69 194 -26 b 349 -125 306 -26 349 -69 "},"⣹":{"ha":806,"x_min":0,"x_max":0,"o":"m 349 792 b 250 693 349 736 306 693 b 151 792 194 693 151 736 b 250 890 151 847 194 890 b 349 792 306 890 349 847 m 654 792 b 556 693 654 736 611 693 b 457 792 500 693 457 736 b 556 890 457 847 500 890 b 654 792 611 890 654 847 m 654 486 b 556 388 654 431 611 388 b 457 486 500 388 457 431 b 556 585 457 542 500 585 b 654 486 611 585 654 542 m 654 181 b 556 82 654 125 611 82 b 457 181 500 82 457 125 b 556 279 457 236 500 279 b 654 181 611 279 654 236 m 349 -125 b 250 -224 349 -181 306 -224 b 151 -125 194 -224 151 -181 b 250 -26 151 -69 194 -26 b 349 -125 306 -26 349 -69 m 654 -125 b 556 -224 654 -181 611 -224 b 457 -125 500 -224 457 -181 b 556 -26 457 -69 500 -26 b 654 -125 611 -26 654 -69 "},"⢹":{"ha":806,"x_min":0,"x_max":0,"o":"m 349 792 b 250 693 349 736 306 693 b 151 792 194 693 151 736 b 250 890 151 847 194 890 b 349 792 306 890 349 847 m 654 792 b 556 693 654 736 611 693 b 457 792 500 693 457 736 b 556 890 457 847 500 890 b 654 792 611 890 654 847 m 654 486 b 556 388 654 431 611 388 b 457 486 500 388 457 431 b 556 585 457 542 500 585 b 654 486 611 585 654 542 m 654 181 b 556 82 654 125 611 82 b 457 181 500 82 457 125 b 556 279 457 236 500 279 b 654 181 611 279 654 236 m 654 -125 b 556 -224 654 -181 611 -224 b 457 -125 500 -224 457 -181 b 556 -26 457 -69 500 -26 b 654 -125 611 -26 654 -69 "},"⡙":{"ha":806,"x_min":0,"x_max":0,"o":"m 349 792 b 250 693 349 736 306 693 b 151 792 194 693 151 736 b 250 890 151 847 194 890 b 349 792 306 890 349 847 m 654 792 b 556 693 654 736 611 693 b 457 792 500 693 457 736 b 556 890 457 847 500 890 b 654 792 611 890 654 847 m 654 486 b 556 388 654 431 611 388 b 457 486 500 388 457 431 b 556 585 457 542 500 585 b 654 486 611 585 654 542 m 349 -125 b 250 -224 349 -181 306 -224 b 151 -125 194 -224 151 -181 b 250 -26 151 -69 194 -26 b 349 -125 306 -26 349 -69 "},"⣙":{"ha":806,"x_min":0,"x_max":0,"o":"m 349 792 b 250 693 349 736 306 693 b 151 792 194 693 151 736 b 250 890 151 847 194 890 b 349 792 306 890 349 847 m 654 792 b 556 693 654 736 611 693 b 457 792 500 693 457 736 b 556 890 457 847 500 890 b 654 792 611 890 654 847 m 654 486 b 556 388 654 431 611 388 b 457 486 500 388 457 431 b 556 585 457 542 500 585 b 654 486 611 585 654 542 m 349 -125 b 250 -224 349 -181 306 -224 b 151 -125 194 -224 151 -181 b 250 -26 151 -69 194 -26 b 349 -125 306 -26 349 -69 m 654 -125 b 556 -224 654 -181 611 -224 b 457 -125 500 -224 457 -181 b 556 -26 457 -69 500 -26 b 654 -125 611 -26 654 -69 "},"⢙":{"ha":806,"x_min":0,"x_max":0,"o":"m 349 792 b 250 693 349 736 306 693 b 151 792 194 693 151 736 b 250 890 151 847 194 890 b 349 792 306 890 349 847 m 654 792 b 556 693 654 736 611 693 b 457 792 500 693 457 736 b 556 890 457 847 500 890 b 654 792 611 890 654 847 m 654 486 b 556 388 654 431 611 388 b 457 486 500 388 457 431 b 556 585 457 542 500 585 b 654 486 611 585 654 542 m 654 -125 b 556 -224 654 -181 611 -224 b 457 -125 500 -224 457 -181 b 556 -26 457 -69 500 -26 b 654 -125 611 -26 654 -69 "},"⠩":{"ha":806,"x_min":0,"x_max":0,"o":"m 349 792 b 250 693 349 736 306 693 b 151 792 194 693 151 736 b 250 890 151 847 194 890 b 349 792 306 890 349 847 m 654 792 b 556 693 654 736 611 693 b 457 792 500 693 457 736 b 556 890 457 847 500 890 b 654 792 611 890 654 847 m 654 181 b 556 82 654 125 611 82 b 457 181 500 82 457 125 b 556 279 457 236 500 279 b 654 181 611 279 654 236 "},"⡩":{"ha":806,"x_min":0,"x_max":0,"o":"m 349 792 b 250 693 349 736 306 693 b 151 792 194 693 151 736 b 250 890 151 847 194 890 b 349 792 306 890 349 847 m 654 792 b 556 693 654 736 611 693 b 457 792 500 693 457 736 b 556 890 457 847 500 890 b 654 792 611 890 654 847 m 654 181 b 556 82 654 125 611 82 b 457 181 500 82 457 125 b 556 279 457 236 500 279 b 654 181 611 279 654 236 m 349 -125 b 250 -224 349 -181 306 -224 b 151 -125 194 -224 151 -181 b 250 -26 151 -69 194 -26 b 349 -125 306 -26 349 -69 "},"⣩":{"ha":806,"x_min":0,"x_max":0,"o":"m 349 792 b 250 693 349 736 306 693 b 151 792 194 693 151 736 b 250 890 151 847 194 890 b 349 792 306 890 349 847 m 654 792 b 556 693 654 736 611 693 b 457 792 500 693 457 736 b 556 890 457 847 500 890 b 654 792 611 890 654 847 m 654 181 b 556 82 654 125 611 82 b 457 181 500 82 457 125 b 556 279 457 236 500 279 b 654 181 611 279 654 236 m 349 -125 b 250 -224 349 -181 306 -224 b 151 -125 194 -224 151 -181 b 250 -26 151 -69 194 -26 b 349 -125 306 -26 349 -69 m 654 -125 b 556 -224 654 -181 611 -224 b 457 -125 500 -224 457 -181 b 556 -26 457 -69 500 -26 b 654 -125 611 -26 654 -69 "},"⢩":{"ha":806,"x_min":0,"x_max":0,"o":"m 349 792 b 250 693 349 736 306 693 b 151 792 194 693 151 736 b 250 890 151 847 194 890 b 349 792 306 890 349 847 m 654 792 b 556 693 654 736 611 693 b 457 792 500 693 457 736 b 556 890 457 847 500 890 b 654 792 611 890 654 847 m 654 181 b 556 82 654 125 611 82 b 457 181 500 82 457 125 b 556 279 457 236 500 279 b 654 181 611 279 654 236 m 654 -125 b 556 -224 654 -181 611 -224 b 457 -125 500 -224 457 -181 b 556 -26 457 -69 500 -26 b 654 -125 611 -26 654 -69 "},"⡉":{"ha":806,"x_min":0,"x_max":0,"o":"m 349 792 b 250 693 349 736 306 693 b 151 792 194 693 151 736 b 250 890 151 847 194 890 b 349 792 306 890 349 847 m 654 792 b 556 693 654 736 611 693 b 457 792 500 693 457 736 b 556 890 457 847 500 890 b 654 792 611 890 654 847 m 349 -125 b 250 -224 349 -181 306 -224 b 151 -125 194 -224 151 -181 b 250 -26 151 -69 194 -26 b 349 -125 306 -26 349 -69 "},"⣉":{"ha":806,"x_min":0,"x_max":0,"o":"m 349 792 b 250 693 349 736 306 693 b 151 792 194 693 151 736 b 250 890 151 847 194 890 b 349 792 306 890 349 847 m 654 792 b 556 693 654 736 611 693 b 457 792 500 693 457 736 b 556 890 457 847 500 890 b 654 792 611 890 654 847 m 349 -125 b 250 -224 349 -181 306 -224 b 151 -125 194 -224 151 -181 b 250 -26 151 -69 194 -26 b 349 -125 306 -26 349 -69 m 654 -125 b 556 -224 654 -181 611 -224 b 457 -125 500 -224 457 -181 b 556 -26 457 -69 500 -26 b 654 -125 611 -26 654 -69 "},"⢉":{"ha":806,"x_min":0,"x_max":0,"o":"m 349 792 b 250 693 349 736 306 693 b 151 792 194 693 151 736 b 250 890 151 847 194 890 b 349 792 306 890 349 847 m 654 792 b 556 693 654 736 611 693 b 457 792 500 693 457 736 b 556 890 457 847 500 890 b 654 792 611 890 654 847 m 654 -125 b 556 -224 654 -181 611 -224 b 457 -125 500 -224 457 -181 b 556 -26 457 -69 500 -26 b 654 -125 611 -26 654 -69 "},"⠑":{"ha":806,"x_min":0,"x_max":0,"o":"m 349 792 b 250 693 349 736 306 693 b 151 792 194 693 151 736 b 250 890 151 847 194 890 b 349 792 306 890 349 847 m 654 486 b 556 388 654 431 611 388 b 457 486 500 388 457 431 b 556 585 457 542 500 585 b 654 486 611 585 654 542 "},"⠱":{"ha":806,"x_min":0,"x_max":0,"o":"m 349 792 b 250 693 349 736 306 693 b 151 792 194 693 151 736 b 250 890 151 847 194 890 b 349 792 306 890 349 847 m 654 486 b 556 388 654 431 611 388 b 457 486 500 388 457 431 b 556 585 457 542 500 585 b 654 486 611 585 654 542 m 654 181 b 556 82 654 125 611 82 b 457 181 500 82 457 125 b 556 279 457 236 500 279 b 654 181 611 279 654 236 "},"⡱":{"ha":806,"x_min":0,"x_max":0,"o":"m 349 792 b 250 693 349 736 306 693 b 151 792 194 693 151 736 b 250 890 151 847 194 890 b 349 792 306 890 349 847 m 654 486 b 556 388 654 431 611 388 b 457 486 500 388 457 431 b 556 585 457 542 500 585 b 654 486 611 585 654 542 m 654 181 b 556 82 654 125 611 82 b 457 181 500 82 457 125 b 556 279 457 236 500 279 b 654 181 611 279 654 236 m 349 -125 b 250 -224 349 -181 306 -224 b 151 -125 194 -224 151 -181 b 250 -26 151 -69 194 -26 b 349 -125 306 -26 349 -69 "},"⣱":{"ha":806,"x_min":0,"x_max":0,"o":"m 349 792 b 250 693 349 736 306 693 b 151 792 194 693 151 736 b 250 890 151 847 194 890 b 349 792 306 890 349 847 m 654 486 b 556 388 654 431 611 388 b 457 486 500 388 457 431 b 556 585 457 542 500 585 b 654 486 611 585 654 542 m 654 181 b 556 82 654 125 611 82 b 457 181 500 82 457 125 b 556 279 457 236 500 279 b 654 181 611 279 654 236 m 349 -125 b 250 -224 349 -181 306 -224 b 151 -125 194 -224 151 -181 b 250 -26 151 -69 194 -26 b 349 -125 306 -26 349 -69 m 654 -125 b 556 -224 654 -181 611 -224 b 457 -125 500 -224 457 -181 b 556 -26 457 -69 500 -26 b 654 -125 611 -26 654 -69 "},"⢱":{"ha":806,"x_min":0,"x_max":0,"o":"m 349 792 b 250 693 349 736 306 693 b 151 792 194 693 151 736 b 250 890 151 847 194 890 b 349 792 306 890 349 847 m 654 486 b 556 388 654 431 611 388 b 457 486 500 388 457 431 b 556 585 457 542 500 585 b 654 486 611 585 654 542 m 654 181 b 556 82 654 125 611 82 b 457 181 500 82 457 125 b 556 279 457 236 500 279 b 654 181 611 279 654 236 m 654 -125 b 556 -224 654 -181 611 -224 b 457 -125 500 -224 457 -181 b 556 -26 457 -69 500 -26 b 654 -125 611 -26 654 -69 "},"⡑":{"ha":806,"x_min":0,"x_max":0,"o":"m 349 792 b 250 693 349 736 306 693 b 151 792 194 693 151 736 b 250 890 151 847 194 890 b 349 792 306 890 349 847 m 654 486 b 556 388 654 431 611 388 b 457 486 500 388 457 431 b 556 585 457 542 500 585 b 654 486 611 585 654 542 m 349 -125 b 250 -224 349 -181 306 -224 b 151 -125 194 -224 151 -181 b 250 -26 151 -69 194 -26 b 349 -125 306 -26 349 -69 "},"⣑":{"ha":806,"x_min":0,"x_max":0,"o":"m 349 792 b 250 693 349 736 306 693 b 151 792 194 693 151 736 b 250 890 151 847 194 890 b 349 792 306 890 349 847 m 654 486 b 556 388 654 431 611 388 b 457 486 500 388 457 431 b 556 585 457 542 500 585 b 654 486 611 585 654 542 m 349 -125 b 250 -224 349 -181 306 -224 b 151 -125 194 -224 151 -181 b 250 -26 151 -69 194 -26 b 349 -125 306 -26 349 -69 m 654 -125 b 556 -224 654 -181 611 -224 b 457 -125 500 -224 457 -181 b 556 -26 457 -69 500 -26 b 654 -125 611 -26 654 -69 "},"⢑":{"ha":806,"x_min":0,"x_max":0,"o":"m 349 792 b 250 693 349 736 306 693 b 151 792 194 693 151 736 b 250 890 151 847 194 890 b 349 792 306 890 349 847 m 654 486 b 556 388 654 431 611 388 b 457 486 500 388 457 431 b 556 585 457 542 500 585 b 654 486 611 585 654 542 m 654 -125 b 556 -224 654 -181 611 -224 b 457 -125 500 -224 457 -181 b 556 -26 457 -69 500 -26 b 654 -125 611 -26 654 -69 "},"⠡":{"ha":806,"x_min":0,"x_max":0,"o":"m 349 792 b 250 693 349 736 306 693 b 151 792 194 693 151 736 b 250 890 151 847 194 890 b 349 792 306 890 349 847 m 654 181 b 556 82 654 125 611 82 b 457 181 500 82 457 125 b 556 279 457 236 500 279 b 654 181 611 279 654 236 "},"⡡":{"ha":806,"x_min":0,"x_max":0,"o":"m 349 792 b 250 693 349 736 306 693 b 151 792 194 693 151 736 b 250 890 151 847 194 890 b 349 792 306 890 349 847 m 654 181 b 556 82 654 125 611 82 b 457 181 500 82 457 125 b 556 279 457 236 500 279 b 654 181 611 279 654 236 m 349 -125 b 250 -224 349 -181 306 -224 b 151 -125 194 -224 151 -181 b 250 -26 151 -69 194 -26 b 349 -125 306 -26 349 -69 "},"⣡":{"ha":806,"x_min":0,"x_max":0,"o":"m 349 792 b 250 693 349 736 306 693 b 151 792 194 693 151 736 b 250 890 151 847 194 890 b 349 792 306 890 349 847 m 654 181 b 556 82 654 125 611 82 b 457 181 500 82 457 125 b 556 279 457 236 500 279 b 654 181 611 279 654 236 m 349 -125 b 250 -224 349 -181 306 -224 b 151 -125 194 -224 151 -181 b 250 -26 151 -69 194 -26 b 349 -125 306 -26 349 -69 m 654 -125 b 556 -224 654 -181 611 -224 b 457 -125 500 -224 457 -181 b 556 -26 457 -69 500 -26 b 654 -125 611 -26 654 -69 "},"⢡":{"ha":806,"x_min":0,"x_max":0,"o":"m 349 792 b 250 693 349 736 306 693 b 151 792 194 693 151 736 b 250 890 151 847 194 890 b 349 792 306 890 349 847 m 654 181 b 556 82 654 125 611 82 b 457 181 500 82 457 125 b 556 279 457 236 500 279 b 654 181 611 279 654 236 m 654 -125 b 556 -224 654 -181 611 -224 b 457 -125 500 -224 457 -181 b 556 -26 457 -69 500 -26 b 654 -125 611 -26 654 -69 "},"⡁":{"ha":806,"x_min":0,"x_max":0,"o":"m 349 792 b 250 693 349 736 306 693 b 151 792 194 693 151 736 b 250 890 151 847 194 890 b 349 792 306 890 349 847 m 349 -125 b 250 -224 349 -181 306 -224 b 151 -125 194 -224 151 -181 b 250 -26 151 -69 194 -26 b 349 -125 306 -26 349 -69 "},"⣁":{"ha":806,"x_min":0,"x_max":0,"o":"m 349 792 b 250 693 349 736 306 693 b 151 792 194 693 151 736 b 250 890 151 847 194 890 b 349 792 306 890 349 847 m 349 -125 b 250 -224 349 -181 306 -224 b 151 -125 194 -224 151 -181 b 250 -26 151 -69 194 -26 b 349 -125 306 -26 349 -69 m 654 -125 b 556 -224 654 -181 611 -224 b 457 -125 500 -224 457 -181 b 556 -26 457 -69 500 -26 b 654 -125 611 -26 654 -69 "},"⢁":{"ha":806,"x_min":0,"x_max":0,"o":"m 349 792 b 250 693 349 736 306 693 b 151 792 194 693 151 736 b 250 890 151 847 194 890 b 349 792 306 890 349 847 m 654 -125 b 556 -224 654 -181 611 -224 b 457 -125 500 -224 457 -181 b 556 -26 457 -69 500 -26 b 654 -125 611 -26 654 -69 "},"⠂":{"ha":806,"x_min":0,"x_max":0,"o":"m 349 486 b 250 388 349 431 306 388 b 151 486 194 388 151 431 b 250 585 151 542 194 585 b 349 486 306 585 349 542 "},"⠆":{"ha":806,"x_min":0,"x_max":0,"o":"m 349 486 b 250 388 349 431 306 388 b 151 486 194 388 151 431 b 250 585 151 542 194 585 b 349 486 306 585 349 542 m 349 181 b 250 82 349 125 306 82 b 151 181 194 82 151 125 b 250 279 151 236 194 279 b 349 181 306 279 349 236 "},"⠎":{"ha":806,"x_min":0,"x_max":0,"o":"m 349 486 b 250 388 349 431 306 388 b 151 486 194 388 151 431 b 250 585 151 542 194 585 b 349 486 306 585 349 542 m 349 181 b 250 82 349 125 306 82 b 151 181 194 82 151 125 b 250 279 151 236 194 279 b 349 181 306 279 349 236 m 654 792 b 556 693 654 736 611 693 b 457 792 500 693 457 736 b 556 890 457 847 500 890 b 654 792 611 890 654 847 "},"⠞":{"ha":806,"x_min":0,"x_max":0,"o":"m 349 486 b 250 388 349 431 306 388 b 151 486 194 388 151 431 b 250 585 151 542 194 585 b 349 486 306 585 349 542 m 349 181 b 250 82 349 125 306 82 b 151 181 194 82 151 125 b 250 279 151 236 194 279 b 349 181 306 279 349 236 m 654 792 b 556 693 654 736 611 693 b 457 792 500 693 457 736 b 556 890 457 847 500 890 b 654 792 611 890 654 847 m 654 486 b 556 388 654 431 611 388 b 457 486 500 388 457 431 b 556 585 457 542 500 585 b 654 486 611 585 654 542 "},"⠾":{"ha":806,"x_min":0,"x_max":0,"o":"m 349 486 b 250 388 349 431 306 388 b 151 486 194 388 151 431 b 250 585 151 542 194 585 b 349 486 306 585 349 542 m 349 181 b 250 82 349 125 306 82 b 151 181 194 82 151 125 b 250 279 151 236 194 279 b 349 181 306 279 349 236 m 654 792 b 556 693 654 736 611 693 b 457 792 500 693 457 736 b 556 890 457 847 500 890 b 654 792 611 890 654 847 m 654 486 b 556 388 654 431 611 388 b 457 486 500 388 457 431 b 556 585 457 542 500 585 b 654 486 611 585 654 542 m 654 181 b 556 82 654 125 611 82 b 457 181 500 82 457 125 b 556 279 457 236 500 279 b 654 181 611 279 654 236 "},"⡾":{"ha":806,"x_min":0,"x_max":0,"o":"m 349 486 b 250 388 349 431 306 388 b 151 486 194 388 151 431 b 250 585 151 542 194 585 b 349 486 306 585 349 542 m 349 181 b 250 82 349 125 306 82 b 151 181 194 82 151 125 b 250 279 151 236 194 279 b 349 181 306 279 349 236 m 654 792 b 556 693 654 736 611 693 b 457 792 500 693 457 736 b 556 890 457 847 500 890 b 654 792 611 890 654 847 m 654 486 b 556 388 654 431 611 388 b 457 486 500 388 457 431 b 556 585 457 542 500 585 b 654 486 611 585 654 542 m 654 181 b 556 82 654 125 611 82 b 457 181 500 82 457 125 b 556 279 457 236 500 279 b 654 181 611 279 654 236 m 349 -125 b 250 -224 349 -181 306 -224 b 151 -125 194 -224 151 -181 b 250 -26 151 -69 194 -26 b 349 -125 306 -26 349 -69 "},"⣾":{"ha":806,"x_min":0,"x_max":0,"o":"m 349 486 b 250 388 349 431 306 388 b 151 486 194 388 151 431 b 250 585 151 542 194 585 b 349 486 306 585 349 542 m 349 181 b 250 82 349 125 306 82 b 151 181 194 82 151 125 b 250 279 151 236 194 279 b 349 181 306 279 349 236 m 654 792 b 556 693 654 736 611 693 b 457 792 500 693 457 736 b 556 890 457 847 500 890 b 654 792 611 890 654 847 m 654 486 b 556 388 654 431 611 388 b 457 486 500 388 457 431 b 556 585 457 542 500 585 b 654 486 611 585 654 542 m 654 181 b 556 82 654 125 611 82 b 457 181 500 82 457 125 b 556 279 457 236 500 279 b 654 181 611 279 654 236 m 349 -125 b 250 -224 349 -181 306 -224 b 151 -125 194 -224 151 -181 b 250 -26 151 -69 194 -26 b 349 -125 306 -26 349 -69 m 654 -125 b 556 -224 654 -181 611 -224 b 457 -125 500 -224 457 -181 b 556 -26 457 -69 500 -26 b 654 -125 611 -26 654 -69 "},"⢾":{"ha":806,"x_min":0,"x_max":0,"o":"m 349 486 b 250 388 349 431 306 388 b 151 486 194 388 151 431 b 250 585 151 542 194 585 b 349 486 306 585 349 542 m 349 181 b 250 82 349 125 306 82 b 151 181 194 82 151 125 b 250 279 151 236 194 279 b 349 181 306 279 349 236 m 654 792 b 556 693 654 736 611 693 b 457 792 500 693 457 736 b 556 890 457 847 500 890 b 654 792 611 890 654 847 m 654 486 b 556 388 654 431 611 388 b 457 486 500 388 457 431 b 556 585 457 542 500 585 b 654 486 611 585 654 542 m 654 181 b 556 82 654 125 611 82 b 457 181 500 82 457 125 b 556 279 457 236 500 279 b 654 181 611 279 654 236 m 654 -125 b 556 -224 654 -181 611 -224 b 457 -125 500 -224 457 -181 b 556 -26 457 -69 500 -26 b 654 -125 611 -26 654 -69 "},"⡞":{"ha":806,"x_min":0,"x_max":0,"o":"m 349 486 b 250 388 349 431 306 388 b 151 486 194 388 151 431 b 250 585 151 542 194 585 b 349 486 306 585 349 542 m 349 181 b 250 82 349 125 306 82 b 151 181 194 82 151 125 b 250 279 151 236 194 279 b 349 181 306 279 349 236 m 654 792 b 556 693 654 736 611 693 b 457 792 500 693 457 736 b 556 890 457 847 500 890 b 654 792 611 890 654 847 m 654 486 b 556 388 654 431 611 388 b 457 486 500 388 457 431 b 556 585 457 542 500 585 b 654 486 611 585 654 542 m 349 -125 b 250 -224 349 -181 306 -224 b 151 -125 194 -224 151 -181 b 250 -26 151 -69 194 -26 b 349 -125 306 -26 349 -69 "},"⣞":{"ha":806,"x_min":0,"x_max":0,"o":"m 349 486 b 250 388 349 431 306 388 b 151 486 194 388 151 431 b 250 585 151 542 194 585 b 349 486 306 585 349 542 m 349 181 b 250 82 349 125 306 82 b 151 181 194 82 151 125 b 250 279 151 236 194 279 b 349 181 306 279 349 236 m 654 792 b 556 693 654 736 611 693 b 457 792 500 693 457 736 b 556 890 457 847 500 890 b 654 792 611 890 654 847 m 654 486 b 556 388 654 431 611 388 b 457 486 500 388 457 431 b 556 585 457 542 500 585 b 654 486 611 585 654 542 m 349 -125 b 250 -224 349 -181 306 -224 b 151 -125 194 -224 151 -181 b 250 -26 151 -69 194 -26 b 349 -125 306 -26 349 -69 m 654 -125 b 556 -224 654 -181 611 -224 b 457 -125 500 -224 457 -181 b 556 -26 457 -69 500 -26 b 654 -125 611 -26 654 -69 "},"⢞":{"ha":806,"x_min":0,"x_max":0,"o":"m 349 486 b 250 388 349 431 306 388 b 151 486 194 388 151 431 b 250 585 151 542 194 585 b 349 486 306 585 349 542 m 349 181 b 250 82 349 125 306 82 b 151 181 194 82 151 125 b 250 279 151 236 194 279 b 349 181 306 279 349 236 m 654 792 b 556 693 654 736 611 693 b 457 792 500 693 457 736 b 556 890 457 847 500 890 b 654 792 611 890 654 847 m 654 486 b 556 388 654 431 611 388 b 457 486 500 388 457 431 b 556 585 457 542 500 585 b 654 486 611 585 654 542 m 654 -125 b 556 -224 654 -181 611 -224 b 457 -125 500 -224 457 -181 b 556 -26 457 -69 500 -26 b 654 -125 611 -26 654 -69 "},"⠮":{"ha":806,"x_min":0,"x_max":0,"o":"m 349 486 b 250 388 349 431 306 388 b 151 486 194 388 151 431 b 250 585 151 542 194 585 b 349 486 306 585 349 542 m 349 181 b 250 82 349 125 306 82 b 151 181 194 82 151 125 b 250 279 151 236 194 279 b 349 181 306 279 349 236 m 654 792 b 556 693 654 736 611 693 b 457 792 500 693 457 736 b 556 890 457 847 500 890 b 654 792 611 890 654 847 m 654 181 b 556 82 654 125 611 82 b 457 181 500 82 457 125 b 556 279 457 236 500 279 b 654 181 611 279 654 236 "},"⡮":{"ha":806,"x_min":0,"x_max":0,"o":"m 349 486 b 250 388 349 431 306 388 b 151 486 194 388 151 431 b 250 585 151 542 194 585 b 349 486 306 585 349 542 m 349 181 b 250 82 349 125 306 82 b 151 181 194 82 151 125 b 250 279 151 236 194 279 b 349 181 306 279 349 236 m 654 792 b 556 693 654 736 611 693 b 457 792 500 693 457 736 b 556 890 457 847 500 890 b 654 792 611 890 654 847 m 654 181 b 556 82 654 125 611 82 b 457 181 500 82 457 125 b 556 279 457 236 500 279 b 654 181 611 279 654 236 m 349 -125 b 250 -224 349 -181 306 -224 b 151 -125 194 -224 151 -181 b 250 -26 151 -69 194 -26 b 349 -125 306 -26 349 -69 "},"⣮":{"ha":806,"x_min":0,"x_max":0,"o":"m 349 486 b 250 388 349 431 306 388 b 151 486 194 388 151 431 b 250 585 151 542 194 585 b 349 486 306 585 349 542 m 349 181 b 250 82 349 125 306 82 b 151 181 194 82 151 125 b 250 279 151 236 194 279 b 349 181 306 279 349 236 m 654 792 b 556 693 654 736 611 693 b 457 792 500 693 457 736 b 556 890 457 847 500 890 b 654 792 611 890 654 847 m 654 181 b 556 82 654 125 611 82 b 457 181 500 82 457 125 b 556 279 457 236 500 279 b 654 181 611 279 654 236 m 349 -125 b 250 -224 349 -181 306 -224 b 151 -125 194 -224 151 -181 b 250 -26 151 -69 194 -26 b 349 -125 306 -26 349 -69 m 654 -125 b 556 -224 654 -181 611 -224 b 457 -125 500 -224 457 -181 b 556 -26 457 -69 500 -26 b 654 -125 611 -26 654 -69 "},"⢮":{"ha":806,"x_min":0,"x_max":0,"o":"m 349 486 b 250 388 349 431 306 388 b 151 486 194 388 151 431 b 250 585 151 542 194 585 b 349 486 306 585 349 542 m 349 181 b 250 82 349 125 306 82 b 151 181 194 82 151 125 b 250 279 151 236 194 279 b 349 181 306 279 349 236 m 654 792 b 556 693 654 736 611 693 b 457 792 500 693 457 736 b 556 890 457 847 500 890 b 654 792 611 890 654 847 m 654 181 b 556 82 654 125 611 82 b 457 181 500 82 457 125 b 556 279 457 236 500 279 b 654 181 611 279 654 236 m 654 -125 b 556 -224 654 -181 611 -224 b 457 -125 500 -224 457 -181 b 556 -26 457 -69 500 -26 b 654 -125 611 -26 654 -69 "},"⡎":{"ha":806,"x_min":0,"x_max":0,"o":"m 349 486 b 250 388 349 431 306 388 b 151 486 194 388 151 431 b 250 585 151 542 194 585 b 349 486 306 585 349 542 m 349 181 b 250 82 349 125 306 82 b 151 181 194 82 151 125 b 250 279 151 236 194 279 b 349 181 306 279 349 236 m 654 792 b 556 693 654 736 611 693 b 457 792 500 693 457 736 b 556 890 457 847 500 890 b 654 792 611 890 654 847 m 349 -125 b 250 -224 349 -181 306 -224 b 151 -125 194 -224 151 -181 b 250 -26 151 -69 194 -26 b 349 -125 306 -26 349 -69 "},"⣎":{"ha":806,"x_min":0,"x_max":0,"o":"m 349 486 b 250 388 349 431 306 388 b 151 486 194 388 151 431 b 250 585 151 542 194 585 b 349 486 306 585 349 542 m 349 181 b 250 82 349 125 306 82 b 151 181 194 82 151 125 b 250 279 151 236 194 279 b 349 181 306 279 349 236 m 654 792 b 556 693 654 736 611 693 b 457 792 500 693 457 736 b 556 890 457 847 500 890 b 654 792 611 890 654 847 m 349 -125 b 250 -224 349 -181 306 -224 b 151 -125 194 -224 151 -181 b 250 -26 151 -69 194 -26 b 349 -125 306 -26 349 -69 m 654 -125 b 556 -224 654 -181 611 -224 b 457 -125 500 -224 457 -181 b 556 -26 457 -69 500 -26 b 654 -125 611 -26 654 -69 "},"⢎":{"ha":806,"x_min":0,"x_max":0,"o":"m 349 486 b 250 388 349 431 306 388 b 151 486 194 388 151 431 b 250 585 151 542 194 585 b 349 486 306 585 349 542 m 349 181 b 250 82 349 125 306 82 b 151 181 194 82 151 125 b 250 279 151 236 194 279 b 349 181 306 279 349 236 m 654 792 b 556 693 654 736 611 693 b 457 792 500 693 457 736 b 556 890 457 847 500 890 b 654 792 611 890 654 847 m 654 -125 b 556 -224 654 -181 611 -224 b 457 -125 500 -224 457 -181 b 556 -26 457 -69 500 -26 b 654 -125 611 -26 654 -69 "},"⠖":{"ha":806,"x_min":0,"x_max":0,"o":"m 349 486 b 250 388 349 431 306 388 b 151 486 194 388 151 431 b 250 585 151 542 194 585 b 349 486 306 585 349 542 m 349 181 b 250 82 349 125 306 82 b 151 181 194 82 151 125 b 250 279 151 236 194 279 b 349 181 306 279 349 236 m 654 486 b 556 388 654 431 611 388 b 457 486 500 388 457 431 b 556 585 457 542 500 585 b 654 486 611 585 654 542 "},"⠶":{"ha":806,"x_min":0,"x_max":0,"o":"m 349 486 b 250 388 349 431 306 388 b 151 486 194 388 151 431 b 250 585 151 542 194 585 b 349 486 306 585 349 542 m 349 181 b 250 82 349 125 306 82 b 151 181 194 82 151 125 b 250 279 151 236 194 279 b 349 181 306 279 349 236 m 654 486 b 556 388 654 431 611 388 b 457 486 500 388 457 431 b 556 585 457 542 500 585 b 654 486 611 585 654 542 m 654 181 b 556 82 654 125 611 82 b 457 181 500 82 457 125 b 556 279 457 236 500 279 b 654 181 611 279 654 236 "},"⡶":{"ha":806,"x_min":0,"x_max":0,"o":"m 349 486 b 250 388 349 431 306 388 b 151 486 194 388 151 431 b 250 585 151 542 194 585 b 349 486 306 585 349 542 m 349 181 b 250 82 349 125 306 82 b 151 181 194 82 151 125 b 250 279 151 236 194 279 b 349 181 306 279 349 236 m 654 486 b 556 388 654 431 611 388 b 457 486 500 388 457 431 b 556 585 457 542 500 585 b 654 486 611 585 654 542 m 654 181 b 556 82 654 125 611 82 b 457 181 500 82 457 125 b 556 279 457 236 500 279 b 654 181 611 279 654 236 m 349 -125 b 250 -224 349 -181 306 -224 b 151 -125 194 -224 151 -181 b 250 -26 151 -69 194 -26 b 349 -125 306 -26 349 -69 "},"⣶":{"ha":806,"x_min":0,"x_max":0,"o":"m 349 486 b 250 388 349 431 306 388 b 151 486 194 388 151 431 b 250 585 151 542 194 585 b 349 486 306 585 349 542 m 349 181 b 250 82 349 125 306 82 b 151 181 194 82 151 125 b 250 279 151 236 194 279 b 349 181 306 279 349 236 m 654 486 b 556 388 654 431 611 388 b 457 486 500 388 457 431 b 556 585 457 542 500 585 b 654 486 611 585 654 542 m 654 181 b 556 82 654 125 611 82 b 457 181 500 82 457 125 b 556 279 457 236 500 279 b 654 181 611 279 654 236 m 349 -125 b 250 -224 349 -181 306 -224 b 151 -125 194 -224 151 -181 b 250 -26 151 -69 194 -26 b 349 -125 306 -26 349 -69 m 654 -125 b 556 -224 654 -181 611 -224 b 457 -125 500 -224 457 -181 b 556 -26 457 -69 500 -26 b 654 -125 611 -26 654 -69 "},"⢶":{"ha":806,"x_min":0,"x_max":0,"o":"m 349 486 b 250 388 349 431 306 388 b 151 486 194 388 151 431 b 250 585 151 542 194 585 b 349 486 306 585 349 542 m 349 181 b 250 82 349 125 306 82 b 151 181 194 82 151 125 b 250 279 151 236 194 279 b 349 181 306 279 349 236 m 654 486 b 556 388 654 431 611 388 b 457 486 500 388 457 431 b 556 585 457 542 500 585 b 654 486 611 585 654 542 m 654 181 b 556 82 654 125 611 82 b 457 181 500 82 457 125 b 556 279 457 236 500 279 b 654 181 611 279 654 236 m 654 -125 b 556 -224 654 -181 611 -224 b 457 -125 500 -224 457 -181 b 556 -26 457 -69 500 -26 b 654 -125 611 -26 654 -69 "},"⡖":{"ha":806,"x_min":0,"x_max":0,"o":"m 349 486 b 250 388 349 431 306 388 b 151 486 194 388 151 431 b 250 585 151 542 194 585 b 349 486 306 585 349 542 m 349 181 b 250 82 349 125 306 82 b 151 181 194 82 151 125 b 250 279 151 236 194 279 b 349 181 306 279 349 236 m 654 486 b 556 388 654 431 611 388 b 457 486 500 388 457 431 b 556 585 457 542 500 585 b 654 486 611 585 654 542 m 349 -125 b 250 -224 349 -181 306 -224 b 151 -125 194 -224 151 -181 b 250 -26 151 -69 194 -26 b 349 -125 306 -26 349 -69 "},"⣖":{"ha":806,"x_min":0,"x_max":0,"o":"m 349 486 b 250 388 349 431 306 388 b 151 486 194 388 151 431 b 250 585 151 542 194 585 b 349 486 306 585 349 542 m 349 181 b 250 82 349 125 306 82 b 151 181 194 82 151 125 b 250 279 151 236 194 279 b 349 181 306 279 349 236 m 654 486 b 556 388 654 431 611 388 b 457 486 500 388 457 431 b 556 585 457 542 500 585 b 654 486 611 585 654 542 m 349 -125 b 250 -224 349 -181 306 -224 b 151 -125 194 -224 151 -181 b 250 -26 151 -69 194 -26 b 349 -125 306 -26 349 -69 m 654 -125 b 556 -224 654 -181 611 -224 b 457 -125 500 -224 457 -181 b 556 -26 457 -69 500 -26 b 654 -125 611 -26 654 -69 "},"⢖":{"ha":806,"x_min":0,"x_max":0,"o":"m 349 486 b 250 388 349 431 306 388 b 151 486 194 388 151 431 b 250 585 151 542 194 585 b 349 486 306 585 349 542 m 349 181 b 250 82 349 125 306 82 b 151 181 194 82 151 125 b 250 279 151 236 194 279 b 349 181 306 279 349 236 m 654 486 b 556 388 654 431 611 388 b 457 486 500 388 457 431 b 556 585 457 542 500 585 b 654 486 611 585 654 542 m 654 -125 b 556 -224 654 -181 611 -224 b 457 -125 500 -224 457 -181 b 556 -26 457 -69 500 -26 b 654 -125 611 -26 654 -69 "},"⠦":{"ha":806,"x_min":0,"x_max":0,"o":"m 349 486 b 250 388 349 431 306 388 b 151 486 194 388 151 431 b 250 585 151 542 194 585 b 349 486 306 585 349 542 m 349 181 b 250 82 349 125 306 82 b 151 181 194 82 151 125 b 250 279 151 236 194 279 b 349 181 306 279 349 236 m 654 181 b 556 82 654 125 611 82 b 457 181 500 82 457 125 b 556 279 457 236 500 279 b 654 181 611 279 654 236 "},"⡦":{"ha":806,"x_min":0,"x_max":0,"o":"m 349 486 b 250 388 349 431 306 388 b 151 486 194 388 151 431 b 250 585 151 542 194 585 b 349 486 306 585 349 542 m 349 181 b 250 82 349 125 306 82 b 151 181 194 82 151 125 b 250 279 151 236 194 279 b 349 181 306 279 349 236 m 654 181 b 556 82 654 125 611 82 b 457 181 500 82 457 125 b 556 279 457 236 500 279 b 654 181 611 279 654 236 m 349 -125 b 250 -224 349 -181 306 -224 b 151 -125 194 -224 151 -181 b 250 -26 151 -69 194 -26 b 349 -125 306 -26 349 -69 "},"⣦":{"ha":806,"x_min":0,"x_max":0,"o":"m 349 486 b 250 388 349 431 306 388 b 151 486 194 388 151 431 b 250 585 151 542 194 585 b 349 486 306 585 349 542 m 349 181 b 250 82 349 125 306 82 b 151 181 194 82 151 125 b 250 279 151 236 194 279 b 349 181 306 279 349 236 m 654 181 b 556 82 654 125 611 82 b 457 181 500 82 457 125 b 556 279 457 236 500 279 b 654 181 611 279 654 236 m 349 -125 b 250 -224 349 -181 306 -224 b 151 -125 194 -224 151 -181 b 250 -26 151 -69 194 -26 b 349 -125 306 -26 349 -69 m 654 -125 b 556 -224 654 -181 611 -224 b 457 -125 500 -224 457 -181 b 556 -26 457 -69 500 -26 b 654 -125 611 -26 654 -69 "},"⢦":{"ha":806,"x_min":0,"x_max":0,"o":"m 349 486 b 250 388 349 431 306 388 b 151 486 194 388 151 431 b 250 585 151 542 194 585 b 349 486 306 585 349 542 m 349 181 b 250 82 349 125 306 82 b 151 181 194 82 151 125 b 250 279 151 236 194 279 b 349 181 306 279 349 236 m 654 181 b 556 82 654 125 611 82 b 457 181 500 82 457 125 b 556 279 457 236 500 279 b 654 181 611 279 654 236 m 654 -125 b 556 -224 654 -181 611 -224 b 457 -125 500 -224 457 -181 b 556 -26 457 -69 500 -26 b 654 -125 611 -26 654 -69 "},"⡆":{"ha":806,"x_min":0,"x_max":0,"o":"m 349 486 b 250 388 349 431 306 388 b 151 486 194 388 151 431 b 250 585 151 542 194 585 b 349 486 306 585 349 542 m 349 181 b 250 82 349 125 306 82 b 151 181 194 82 151 125 b 250 279 151 236 194 279 b 349 181 306 279 349 236 m 349 -125 b 250 -224 349 -181 306 -224 b 151 -125 194 -224 151 -181 b 250 -26 151 -69 194 -26 b 349 -125 306 -26 349 -69 "},"⣆":{"ha":806,"x_min":0,"x_max":0,"o":"m 349 486 b 250 388 349 431 306 388 b 151 486 194 388 151 431 b 250 585 151 542 194 585 b 349 486 306 585 349 542 m 349 181 b 250 82 349 125 306 82 b 151 181 194 82 151 125 b 250 279 151 236 194 279 b 349 181 306 279 349 236 m 349 -125 b 250 -224 349 -181 306 -224 b 151 -125 194 -224 151 -181 b 250 -26 151 -69 194 -26 b 349 -125 306 -26 349 -69 m 654 -125 b 556 -224 654 -181 611 -224 b 457 -125 500 -224 457 -181 b 556 -26 457 -69 500 -26 b 654 -125 611 -26 654 -69 "},"⢆":{"ha":806,"x_min":0,"x_max":0,"o":"m 349 486 b 250 388 349 431 306 388 b 151 486 194 388 151 431 b 250 585 151 542 194 585 b 349 486 306 585 349 542 m 349 181 b 250 82 349 125 306 82 b 151 181 194 82 151 125 b 250 279 151 236 194 279 b 349 181 306 279 349 236 m 654 -125 b 556 -224 654 -181 611 -224 b 457 -125 500 -224 457 -181 b 556 -26 457 -69 500 -26 b 654 -125 611 -26 654 -69 "},"⠊":{"ha":806,"x_min":0,"x_max":0,"o":"m 349 486 b 250 388 349 431 306 388 b 151 486 194 388 151 431 b 250 585 151 542 194 585 b 349 486 306 585 349 542 m 654 792 b 556 693 654 736 611 693 b 457 792 500 693 457 736 b 556 890 457 847 500 890 b 654 792 611 890 654 847 "},"⠚":{"ha":806,"x_min":0,"x_max":0,"o":"m 349 486 b 250 388 349 431 306 388 b 151 486 194 388 151 431 b 250 585 151 542 194 585 b 349 486 306 585 349 542 m 654 792 b 556 693 654 736 611 693 b 457 792 500 693 457 736 b 556 890 457 847 500 890 b 654 792 611 890 654 847 m 654 486 b 556 388 654 431 611 388 b 457 486 500 388 457 431 b 556 585 457 542 500 585 b 654 486 611 585 654 542 "},"⠺":{"ha":806,"x_min":0,"x_max":0,"o":"m 349 486 b 250 388 349 431 306 388 b 151 486 194 388 151 431 b 250 585 151 542 194 585 b 349 486 306 585 349 542 m 654 792 b 556 693 654 736 611 693 b 457 792 500 693 457 736 b 556 890 457 847 500 890 b 654 792 611 890 654 847 m 654 486 b 556 388 654 431 611 388 b 457 486 500 388 457 431 b 556 585 457 542 500 585 b 654 486 611 585 654 542 m 654 181 b 556 82 654 125 611 82 b 457 181 500 82 457 125 b 556 279 457 236 500 279 b 654 181 611 279 654 236 "},"⡺":{"ha":806,"x_min":0,"x_max":0,"o":"m 349 486 b 250 388 349 431 306 388 b 151 486 194 388 151 431 b 250 585 151 542 194 585 b 349 486 306 585 349 542 m 654 792 b 556 693 654 736 611 693 b 457 792 500 693 457 736 b 556 890 457 847 500 890 b 654 792 611 890 654 847 m 654 486 b 556 388 654 431 611 388 b 457 486 500 388 457 431 b 556 585 457 542 500 585 b 654 486 611 585 654 542 m 654 181 b 556 82 654 125 611 82 b 457 181 500 82 457 125 b 556 279 457 236 500 279 b 654 181 611 279 654 236 m 349 -125 b 250 -224 349 -181 306 -224 b 151 -125 194 -224 151 -181 b 250 -26 151 -69 194 -26 b 349 -125 306 -26 349 -69 "},"⣺":{"ha":806,"x_min":0,"x_max":0,"o":"m 349 486 b 250 388 349 431 306 388 b 151 486 194 388 151 431 b 250 585 151 542 194 585 b 349 486 306 585 349 542 m 654 792 b 556 693 654 736 611 693 b 457 792 500 693 457 736 b 556 890 457 847 500 890 b 654 792 611 890 654 847 m 654 486 b 556 388 654 431 611 388 b 457 486 500 388 457 431 b 556 585 457 542 500 585 b 654 486 611 585 654 542 m 654 181 b 556 82 654 125 611 82 b 457 181 500 82 457 125 b 556 279 457 236 500 279 b 654 181 611 279 654 236 m 349 -125 b 250 -224 349 -181 306 -224 b 151 -125 194 -224 151 -181 b 250 -26 151 -69 194 -26 b 349 -125 306 -26 349 -69 m 654 -125 b 556 -224 654 -181 611 -224 b 457 -125 500 -224 457 -181 b 556 -26 457 -69 500 -26 b 654 -125 611 -26 654 -69 "},"⢺":{"ha":806,"x_min":0,"x_max":0,"o":"m 349 486 b 250 388 349 431 306 388 b 151 486 194 388 151 431 b 250 585 151 542 194 585 b 349 486 306 585 349 542 m 654 792 b 556 693 654 736 611 693 b 457 792 500 693 457 736 b 556 890 457 847 500 890 b 654 792 611 890 654 847 m 654 486 b 556 388 654 431 611 388 b 457 486 500 388 457 431 b 556 585 457 542 500 585 b 654 486 611 585 654 542 m 654 181 b 556 82 654 125 611 82 b 457 181 500 82 457 125 b 556 279 457 236 500 279 b 654 181 611 279 654 236 m 654 -125 b 556 -224 654 -181 611 -224 b 457 -125 500 -224 457 -181 b 556 -26 457 -69 500 -26 b 654 -125 611 -26 654 -69 "},"⡚":{"ha":806,"x_min":0,"x_max":0,"o":"m 349 486 b 250 388 349 431 306 388 b 151 486 194 388 151 431 b 250 585 151 542 194 585 b 349 486 306 585 349 542 m 654 792 b 556 693 654 736 611 693 b 457 792 500 693 457 736 b 556 890 457 847 500 890 b 654 792 611 890 654 847 m 654 486 b 556 388 654 431 611 388 b 457 486 500 388 457 431 b 556 585 457 542 500 585 b 654 486 611 585 654 542 m 349 -125 b 250 -224 349 -181 306 -224 b 151 -125 194 -224 151 -181 b 250 -26 151 -69 194 -26 b 349 -125 306 -26 349 -69 "},"⣚":{"ha":806,"x_min":0,"x_max":0,"o":"m 349 486 b 250 388 349 431 306 388 b 151 486 194 388 151 431 b 250 585 151 542 194 585 b 349 486 306 585 349 542 m 654 792 b 556 693 654 736 611 693 b 457 792 500 693 457 736 b 556 890 457 847 500 890 b 654 792 611 890 654 847 m 654 486 b 556 388 654 431 611 388 b 457 486 500 388 457 431 b 556 585 457 542 500 585 b 654 486 611 585 654 542 m 349 -125 b 250 -224 349 -181 306 -224 b 151 -125 194 -224 151 -181 b 250 -26 151 -69 194 -26 b 349 -125 306 -26 349 -69 m 654 -125 b 556 -224 654 -181 611 -224 b 457 -125 500 -224 457 -181 b 556 -26 457 -69 500 -26 b 654 -125 611 -26 654 -69 "},"⢚":{"ha":806,"x_min":0,"x_max":0,"o":"m 349 486 b 250 388 349 431 306 388 b 151 486 194 388 151 431 b 250 585 151 542 194 585 b 349 486 306 585 349 542 m 654 792 b 556 693 654 736 611 693 b 457 792 500 693 457 736 b 556 890 457 847 500 890 b 654 792 611 890 654 847 m 654 486 b 556 388 654 431 611 388 b 457 486 500 388 457 431 b 556 585 457 542 500 585 b 654 486 611 585 654 542 m 654 -125 b 556 -224 654 -181 611 -224 b 457 -125 500 -224 457 -181 b 556 -26 457 -69 500 -26 b 654 -125 611 -26 654 -69 "},"⠪":{"ha":806,"x_min":0,"x_max":0,"o":"m 349 486 b 250 388 349 431 306 388 b 151 486 194 388 151 431 b 250 585 151 542 194 585 b 349 486 306 585 349 542 m 654 792 b 556 693 654 736 611 693 b 457 792 500 693 457 736 b 556 890 457 847 500 890 b 654 792 611 890 654 847 m 654 181 b 556 82 654 125 611 82 b 457 181 500 82 457 125 b 556 279 457 236 500 279 b 654 181 611 279 654 236 "},"⡪":{"ha":806,"x_min":0,"x_max":0,"o":"m 349 486 b 250 388 349 431 306 388 b 151 486 194 388 151 431 b 250 585 151 542 194 585 b 349 486 306 585 349 542 m 654 792 b 556 693 654 736 611 693 b 457 792 500 693 457 736 b 556 890 457 847 500 890 b 654 792 611 890 654 847 m 654 181 b 556 82 654 125 611 82 b 457 181 500 82 457 125 b 556 279 457 236 500 279 b 654 181 611 279 654 236 m 349 -125 b 250 -224 349 -181 306 -224 b 151 -125 194 -224 151 -181 b 250 -26 151 -69 194 -26 b 349 -125 306 -26 349 -69 "},"⣪":{"ha":806,"x_min":0,"x_max":0,"o":"m 349 486 b 250 388 349 431 306 388 b 151 486 194 388 151 431 b 250 585 151 542 194 585 b 349 486 306 585 349 542 m 654 792 b 556 693 654 736 611 693 b 457 792 500 693 457 736 b 556 890 457 847 500 890 b 654 792 611 890 654 847 m 654 181 b 556 82 654 125 611 82 b 457 181 500 82 457 125 b 556 279 457 236 500 279 b 654 181 611 279 654 236 m 349 -125 b 250 -224 349 -181 306 -224 b 151 -125 194 -224 151 -181 b 250 -26 151 -69 194 -26 b 349 -125 306 -26 349 -69 m 654 -125 b 556 -224 654 -181 611 -224 b 457 -125 500 -224 457 -181 b 556 -26 457 -69 500 -26 b 654 -125 611 -26 654 -69 "},"⢪":{"ha":806,"x_min":0,"x_max":0,"o":"m 349 486 b 250 388 349 431 306 388 b 151 486 194 388 151 431 b 250 585 151 542 194 585 b 349 486 306 585 349 542 m 654 792 b 556 693 654 736 611 693 b 457 792 500 693 457 736 b 556 890 457 847 500 890 b 654 792 611 890 654 847 m 654 181 b 556 82 654 125 611 82 b 457 181 500 82 457 125 b 556 279 457 236 500 279 b 654 181 611 279 654 236 m 654 -125 b 556 -224 654 -181 611 -224 b 457 -125 500 -224 457 -181 b 556 -26 457 -69 500 -26 b 654 -125 611 -26 654 -69 "},"⡊":{"ha":806,"x_min":0,"x_max":0,"o":"m 349 486 b 250 388 349 431 306 388 b 151 486 194 388 151 431 b 250 585 151 542 194 585 b 349 486 306 585 349 542 m 654 792 b 556 693 654 736 611 693 b 457 792 500 693 457 736 b 556 890 457 847 500 890 b 654 792 611 890 654 847 m 349 -125 b 250 -224 349 -181 306 -224 b 151 -125 194 -224 151 -181 b 250 -26 151 -69 194 -26 b 349 -125 306 -26 349 -69 "},"⣊":{"ha":806,"x_min":0,"x_max":0,"o":"m 349 486 b 250 388 349 431 306 388 b 151 486 194 388 151 431 b 250 585 151 542 194 585 b 349 486 306 585 349 542 m 654 792 b 556 693 654 736 611 693 b 457 792 500 693 457 736 b 556 890 457 847 500 890 b 654 792 611 890 654 847 m 349 -125 b 250 -224 349 -181 306 -224 b 151 -125 194 -224 151 -181 b 250 -26 151 -69 194 -26 b 349 -125 306 -26 349 -69 m 654 -125 b 556 -224 654 -181 611 -224 b 457 -125 500 -224 457 -181 b 556 -26 457 -69 500 -26 b 654 -125 611 -26 654 -69 "},"⢊":{"ha":806,"x_min":0,"x_max":0,"o":"m 349 486 b 250 388 349 431 306 388 b 151 486 194 388 151 431 b 250 585 151 542 194 585 b 349 486 306 585 349 542 m 654 792 b 556 693 654 736 611 693 b 457 792 500 693 457 736 b 556 890 457 847 500 890 b 654 792 611 890 654 847 m 654 -125 b 556 -224 654 -181 611 -224 b 457 -125 500 -224 457 -181 b 556 -26 457 -69 500 -26 b 654 -125 611 -26 654 -69 "},"⠒":{"ha":806,"x_min":0,"x_max":0,"o":"m 349 486 b 250 388 349 431 306 388 b 151 486 194 388 151 431 b 250 585 151 542 194 585 b 349 486 306 585 349 542 m 654 486 b 556 388 654 431 611 388 b 457 486 500 388 457 431 b 556 585 457 542 500 585 b 654 486 611 585 654 542 "},"⠲":{"ha":806,"x_min":0,"x_max":0,"o":"m 349 486 b 250 388 349 431 306 388 b 151 486 194 388 151 431 b 250 585 151 542 194 585 b 349 486 306 585 349 542 m 654 486 b 556 388 654 431 611 388 b 457 486 500 388 457 431 b 556 585 457 542 500 585 b 654 486 611 585 654 542 m 654 181 b 556 82 654 125 611 82 b 457 181 500 82 457 125 b 556 279 457 236 500 279 b 654 181 611 279 654 236 "},"⡲":{"ha":806,"x_min":0,"x_max":0,"o":"m 349 486 b 250 388 349 431 306 388 b 151 486 194 388 151 431 b 250 585 151 542 194 585 b 349 486 306 585 349 542 m 654 486 b 556 388 654 431 611 388 b 457 486 500 388 457 431 b 556 585 457 542 500 585 b 654 486 611 585 654 542 m 654 181 b 556 82 654 125 611 82 b 457 181 500 82 457 125 b 556 279 457 236 500 279 b 654 181 611 279 654 236 m 349 -125 b 250 -224 349 -181 306 -224 b 151 -125 194 -224 151 -181 b 250 -26 151 -69 194 -26 b 349 -125 306 -26 349 -69 "},"⣲":{"ha":806,"x_min":0,"x_max":0,"o":"m 349 486 b 250 388 349 431 306 388 b 151 486 194 388 151 431 b 250 585 151 542 194 585 b 349 486 306 585 349 542 m 654 486 b 556 388 654 431 611 388 b 457 486 500 388 457 431 b 556 585 457 542 500 585 b 654 486 611 585 654 542 m 654 181 b 556 82 654 125 611 82 b 457 181 500 82 457 125 b 556 279 457 236 500 279 b 654 181 611 279 654 236 m 349 -125 b 250 -224 349 -181 306 -224 b 151 -125 194 -224 151 -181 b 250 -26 151 -69 194 -26 b 349 -125 306 -26 349 -69 m 654 -125 b 556 -224 654 -181 611 -224 b 457 -125 500 -224 457 -181 b 556 -26 457 -69 500 -26 b 654 -125 611 -26 654 -69 "},"⢲":{"ha":806,"x_min":0,"x_max":0,"o":"m 349 486 b 250 388 349 431 306 388 b 151 486 194 388 151 431 b 250 585 151 542 194 585 b 349 486 306 585 349 542 m 654 486 b 556 388 654 431 611 388 b 457 486 500 388 457 431 b 556 585 457 542 500 585 b 654 486 611 585 654 542 m 654 181 b 556 82 654 125 611 82 b 457 181 500 82 457 125 b 556 279 457 236 500 279 b 654 181 611 279 654 236 m 654 -125 b 556 -224 654 -181 611 -224 b 457 -125 500 -224 457 -181 b 556 -26 457 -69 500 -26 b 654 -125 611 -26 654 -69 "},"⡒":{"ha":806,"x_min":0,"x_max":0,"o":"m 349 486 b 250 388 349 431 306 388 b 151 486 194 388 151 431 b 250 585 151 542 194 585 b 349 486 306 585 349 542 m 654 486 b 556 388 654 431 611 388 b 457 486 500 388 457 431 b 556 585 457 542 500 585 b 654 486 611 585 654 542 m 349 -125 b 250 -224 349 -181 306 -224 b 151 -125 194 -224 151 -181 b 250 -26 151 -69 194 -26 b 349 -125 306 -26 349 -69 "},"⣒":{"ha":806,"x_min":0,"x_max":0,"o":"m 349 486 b 250 388 349 431 306 388 b 151 486 194 388 151 431 b 250 585 151 542 194 585 b 349 486 306 585 349 542 m 654 486 b 556 388 654 431 611 388 b 457 486 500 388 457 431 b 556 585 457 542 500 585 b 654 486 611 585 654 542 m 349 -125 b 250 -224 349 -181 306 -224 b 151 -125 194 -224 151 -181 b 250 -26 151 -69 194 -26 b 349 -125 306 -26 349 -69 m 654 -125 b 556 -224 654 -181 611 -224 b 457 -125 500 -224 457 -181 b 556 -26 457 -69 500 -26 b 654 -125 611 -26 654 -69 "},"⢒":{"ha":806,"x_min":0,"x_max":0,"o":"m 349 486 b 250 388 349 431 306 388 b 151 486 194 388 151 431 b 250 585 151 542 194 585 b 349 486 306 585 349 542 m 654 486 b 556 388 654 431 611 388 b 457 486 500 388 457 431 b 556 585 457 542 500 585 b 654 486 611 585 654 542 m 654 -125 b 556 -224 654 -181 611 -224 b 457 -125 500 -224 457 -181 b 556 -26 457 -69 500 -26 b 654 -125 611 -26 654 -69 "},"⠢":{"ha":806,"x_min":0,"x_max":0,"o":"m 349 486 b 250 388 349 431 306 388 b 151 486 194 388 151 431 b 250 585 151 542 194 585 b 349 486 306 585 349 542 m 654 181 b 556 82 654 125 611 82 b 457 181 500 82 457 125 b 556 279 457 236 500 279 b 654 181 611 279 654 236 "},"⡢":{"ha":806,"x_min":0,"x_max":0,"o":"m 349 486 b 250 388 349 431 306 388 b 151 486 194 388 151 431 b 250 585 151 542 194 585 b 349 486 306 585 349 542 m 654 181 b 556 82 654 125 611 82 b 457 181 500 82 457 125 b 556 279 457 236 500 279 b 654 181 611 279 654 236 m 349 -125 b 250 -224 349 -181 306 -224 b 151 -125 194 -224 151 -181 b 250 -26 151 -69 194 -26 b 349 -125 306 -26 349 -69 "},"⣢":{"ha":806,"x_min":0,"x_max":0,"o":"m 349 486 b 250 388 349 431 306 388 b 151 486 194 388 151 431 b 250 585 151 542 194 585 b 349 486 306 585 349 542 m 654 181 b 556 82 654 125 611 82 b 457 181 500 82 457 125 b 556 279 457 236 500 279 b 654 181 611 279 654 236 m 349 -125 b 250 -224 349 -181 306 -224 b 151 -125 194 -224 151 -181 b 250 -26 151 -69 194 -26 b 349 -125 306 -26 349 -69 m 654 -125 b 556 -224 654 -181 611 -224 b 457 -125 500 -224 457 -181 b 556 -26 457 -69 500 -26 b 654 -125 611 -26 654 -69 "},"⢢":{"ha":806,"x_min":0,"x_max":0,"o":"m 349 486 b 250 388 349 431 306 388 b 151 486 194 388 151 431 b 250 585 151 542 194 585 b 349 486 306 585 349 542 m 654 181 b 556 82 654 125 611 82 b 457 181 500 82 457 125 b 556 279 457 236 500 279 b 654 181 611 279 654 236 m 654 -125 b 556 -224 654 -181 611 -224 b 457 -125 500 -224 457 -181 b 556 -26 457 -69 500 -26 b 654 -125 611 -26 654 -69 "},"⡂":{"ha":806,"x_min":0,"x_max":0,"o":"m 349 486 b 250 388 349 431 306 388 b 151 486 194 388 151 431 b 250 585 151 542 194 585 b 349 486 306 585 349 542 m 349 -125 b 250 -224 349 -181 306 -224 b 151 -125 194 -224 151 -181 b 250 -26 151 -69 194 -26 b 349 -125 306 -26 349 -69 "},"⣂":{"ha":806,"x_min":0,"x_max":0,"o":"m 349 486 b 250 388 349 431 306 388 b 151 486 194 388 151 431 b 250 585 151 542 194 585 b 349 486 306 585 349 542 m 349 -125 b 250 -224 349 -181 306 -224 b 151 -125 194 -224 151 -181 b 250 -26 151 -69 194 -26 b 349 -125 306 -26 349 -69 m 654 -125 b 556 -224 654 -181 611 -224 b 457 -125 500 -224 457 -181 b 556 -26 457 -69 500 -26 b 654 -125 611 -26 654 -69 "},"⢂":{"ha":806,"x_min":0,"x_max":0,"o":"m 349 486 b 250 388 349 431 306 388 b 151 486 194 388 151 431 b 250 585 151 542 194 585 b 349 486 306 585 349 542 m 654 -125 b 556 -224 654 -181 611 -224 b 457 -125 500 -224 457 -181 b 556 -26 457 -69 500 -26 b 654 -125 611 -26 654 -69 "},"⠄":{"ha":806,"x_min":0,"x_max":0,"o":"m 349 181 b 250 82 349 125 306 82 b 151 181 194 82 151 125 b 250 279 151 236 194 279 b 349 181 306 279 349 236 "},"⠌":{"ha":806,"x_min":0,"x_max":0,"o":"m 349 181 b 250 82 349 125 306 82 b 151 181 194 82 151 125 b 250 279 151 236 194 279 b 349 181 306 279 349 236 m 654 792 b 556 693 654 736 611 693 b 457 792 500 693 457 736 b 556 890 457 847 500 890 b 654 792 611 890 654 847 "},"⠜":{"ha":806,"x_min":0,"x_max":0,"o":"m 349 181 b 250 82 349 125 306 82 b 151 181 194 82 151 125 b 250 279 151 236 194 279 b 349 181 306 279 349 236 m 654 792 b 556 693 654 736 611 693 b 457 792 500 693 457 736 b 556 890 457 847 500 890 b 654 792 611 890 654 847 m 654 486 b 556 388 654 431 611 388 b 457 486 500 388 457 431 b 556 585 457 542 500 585 b 654 486 611 585 654 542 "},"⠼":{"ha":806,"x_min":0,"x_max":0,"o":"m 349 181 b 250 82 349 125 306 82 b 151 181 194 82 151 125 b 250 279 151 236 194 279 b 349 181 306 279 349 236 m 654 792 b 556 693 654 736 611 693 b 457 792 500 693 457 736 b 556 890 457 847 500 890 b 654 792 611 890 654 847 m 654 486 b 556 388 654 431 611 388 b 457 486 500 388 457 431 b 556 585 457 542 500 585 b 654 486 611 585 654 542 m 654 181 b 556 82 654 125 611 82 b 457 181 500 82 457 125 b 556 279 457 236 500 279 b 654 181 611 279 654 236 "},"⡼":{"ha":806,"x_min":0,"x_max":0,"o":"m 349 181 b 250 82 349 125 306 82 b 151 181 194 82 151 125 b 250 279 151 236 194 279 b 349 181 306 279 349 236 m 654 792 b 556 693 654 736 611 693 b 457 792 500 693 457 736 b 556 890 457 847 500 890 b 654 792 611 890 654 847 m 654 486 b 556 388 654 431 611 388 b 457 486 500 388 457 431 b 556 585 457 542 500 585 b 654 486 611 585 654 542 m 654 181 b 556 82 654 125 611 82 b 457 181 500 82 457 125 b 556 279 457 236 500 279 b 654 181 611 279 654 236 m 349 -125 b 250 -224 349 -181 306 -224 b 151 -125 194 -224 151 -181 b 250 -26 151 -69 194 -26 b 349 -125 306 -26 349 -69 "},"⣼":{"ha":806,"x_min":0,"x_max":0,"o":"m 349 181 b 250 82 349 125 306 82 b 151 181 194 82 151 125 b 250 279 151 236 194 279 b 349 181 306 279 349 236 m 654 792 b 556 693 654 736 611 693 b 457 792 500 693 457 736 b 556 890 457 847 500 890 b 654 792 611 890 654 847 m 654 486 b 556 388 654 431 611 388 b 457 486 500 388 457 431 b 556 585 457 542 500 585 b 654 486 611 585 654 542 m 654 181 b 556 82 654 125 611 82 b 457 181 500 82 457 125 b 556 279 457 236 500 279 b 654 181 611 279 654 236 m 349 -125 b 250 -224 349 -181 306 -224 b 151 -125 194 -224 151 -181 b 250 -26 151 -69 194 -26 b 349 -125 306 -26 349 -69 m 654 -125 b 556 -224 654 -181 611 -224 b 457 -125 500 -224 457 -181 b 556 -26 457 -69 500 -26 b 654 -125 611 -26 654 -69 "},"⢼":{"ha":806,"x_min":0,"x_max":0,"o":"m 349 181 b 250 82 349 125 306 82 b 151 181 194 82 151 125 b 250 279 151 236 194 279 b 349 181 306 279 349 236 m 654 792 b 556 693 654 736 611 693 b 457 792 500 693 457 736 b 556 890 457 847 500 890 b 654 792 611 890 654 847 m 654 486 b 556 388 654 431 611 388 b 457 486 500 388 457 431 b 556 585 457 542 500 585 b 654 486 611 585 654 542 m 654 181 b 556 82 654 125 611 82 b 457 181 500 82 457 125 b 556 279 457 236 500 279 b 654 181 611 279 654 236 m 654 -125 b 556 -224 654 -181 611 -224 b 457 -125 500 -224 457 -181 b 556 -26 457 -69 500 -26 b 654 -125 611 -26 654 -69 "},"⡜":{"ha":806,"x_min":0,"x_max":0,"o":"m 349 181 b 250 82 349 125 306 82 b 151 181 194 82 151 125 b 250 279 151 236 194 279 b 349 181 306 279 349 236 m 654 792 b 556 693 654 736 611 693 b 457 792 500 693 457 736 b 556 890 457 847 500 890 b 654 792 611 890 654 847 m 654 486 b 556 388 654 431 611 388 b 457 486 500 388 457 431 b 556 585 457 542 500 585 b 654 486 611 585 654 542 m 349 -125 b 250 -224 349 -181 306 -224 b 151 -125 194 -224 151 -181 b 250 -26 151 -69 194 -26 b 349 -125 306 -26 349 -69 "},"⣜":{"ha":806,"x_min":0,"x_max":0,"o":"m 349 181 b 250 82 349 125 306 82 b 151 181 194 82 151 125 b 250 279 151 236 194 279 b 349 181 306 279 349 236 m 654 792 b 556 693 654 736 611 693 b 457 792 500 693 457 736 b 556 890 457 847 500 890 b 654 792 611 890 654 847 m 654 486 b 556 388 654 431 611 388 b 457 486 500 388 457 431 b 556 585 457 542 500 585 b 654 486 611 585 654 542 m 349 -125 b 250 -224 349 -181 306 -224 b 151 -125 194 -224 151 -181 b 250 -26 151 -69 194 -26 b 349 -125 306 -26 349 -69 m 654 -125 b 556 -224 654 -181 611 -224 b 457 -125 500 -224 457 -181 b 556 -26 457 -69 500 -26 b 654 -125 611 -26 654 -69 "},"⢜":{"ha":806,"x_min":0,"x_max":0,"o":"m 349 181 b 250 82 349 125 306 82 b 151 181 194 82 151 125 b 250 279 151 236 194 279 b 349 181 306 279 349 236 m 654 792 b 556 693 654 736 611 693 b 457 792 500 693 457 736 b 556 890 457 847 500 890 b 654 792 611 890 654 847 m 654 486 b 556 388 654 431 611 388 b 457 486 500 388 457 431 b 556 585 457 542 500 585 b 654 486 611 585 654 542 m 654 -125 b 556 -224 654 -181 611 -224 b 457 -125 500 -224 457 -181 b 556 -26 457 -69 500 -26 b 654 -125 611 -26 654 -69 "},"⠬":{"ha":806,"x_min":0,"x_max":0,"o":"m 349 181 b 250 82 349 125 306 82 b 151 181 194 82 151 125 b 250 279 151 236 194 279 b 349 181 306 279 349 236 m 654 792 b 556 693 654 736 611 693 b 457 792 500 693 457 736 b 556 890 457 847 500 890 b 654 792 611 890 654 847 m 654 181 b 556 82 654 125 611 82 b 457 181 500 82 457 125 b 556 279 457 236 500 279 b 654 181 611 279 654 236 "},"⡬":{"ha":806,"x_min":0,"x_max":0,"o":"m 349 181 b 250 82 349 125 306 82 b 151 181 194 82 151 125 b 250 279 151 236 194 279 b 349 181 306 279 349 236 m 654 792 b 556 693 654 736 611 693 b 457 792 500 693 457 736 b 556 890 457 847 500 890 b 654 792 611 890 654 847 m 654 181 b 556 82 654 125 611 82 b 457 181 500 82 457 125 b 556 279 457 236 500 279 b 654 181 611 279 654 236 m 349 -125 b 250 -224 349 -181 306 -224 b 151 -125 194 -224 151 -181 b 250 -26 151 -69 194 -26 b 349 -125 306 -26 349 -69 "},"⣬":{"ha":806,"x_min":0,"x_max":0,"o":"m 349 181 b 250 82 349 125 306 82 b 151 181 194 82 151 125 b 250 279 151 236 194 279 b 349 181 306 279 349 236 m 654 792 b 556 693 654 736 611 693 b 457 792 500 693 457 736 b 556 890 457 847 500 890 b 654 792 611 890 654 847 m 654 181 b 556 82 654 125 611 82 b 457 181 500 82 457 125 b 556 279 457 236 500 279 b 654 181 611 279 654 236 m 349 -125 b 250 -224 349 -181 306 -224 b 151 -125 194 -224 151 -181 b 250 -26 151 -69 194 -26 b 349 -125 306 -26 349 -69 m 654 -125 b 556 -224 654 -181 611 -224 b 457 -125 500 -224 457 -181 b 556 -26 457 -69 500 -26 b 654 -125 611 -26 654 -69 "},"⢬":{"ha":806,"x_min":0,"x_max":0,"o":"m 349 181 b 250 82 349 125 306 82 b 151 181 194 82 151 125 b 250 279 151 236 194 279 b 349 181 306 279 349 236 m 654 792 b 556 693 654 736 611 693 b 457 792 500 693 457 736 b 556 890 457 847 500 890 b 654 792 611 890 654 847 m 654 181 b 556 82 654 125 611 82 b 457 181 500 82 457 125 b 556 279 457 236 500 279 b 654 181 611 279 654 236 m 654 -125 b 556 -224 654 -181 611 -224 b 457 -125 500 -224 457 -181 b 556 -26 457 -69 500 -26 b 654 -125 611 -26 654 -69 "},"⡌":{"ha":806,"x_min":0,"x_max":0,"o":"m 349 181 b 250 82 349 125 306 82 b 151 181 194 82 151 125 b 250 279 151 236 194 279 b 349 181 306 279 349 236 m 654 792 b 556 693 654 736 611 693 b 457 792 500 693 457 736 b 556 890 457 847 500 890 b 654 792 611 890 654 847 m 349 -125 b 250 -224 349 -181 306 -224 b 151 -125 194 -224 151 -181 b 250 -26 151 -69 194 -26 b 349 -125 306 -26 349 -69 "},"⣌":{"ha":806,"x_min":0,"x_max":0,"o":"m 349 181 b 250 82 349 125 306 82 b 151 181 194 82 151 125 b 250 279 151 236 194 279 b 349 181 306 279 349 236 m 654 792 b 556 693 654 736 611 693 b 457 792 500 693 457 736 b 556 890 457 847 500 890 b 654 792 611 890 654 847 m 349 -125 b 250 -224 349 -181 306 -224 b 151 -125 194 -224 151 -181 b 250 -26 151 -69 194 -26 b 349 -125 306 -26 349 -69 m 654 -125 b 556 -224 654 -181 611 -224 b 457 -125 500 -224 457 -181 b 556 -26 457 -69 500 -26 b 654 -125 611 -26 654 -69 "},"⢌":{"ha":806,"x_min":0,"x_max":0,"o":"m 349 181 b 250 82 349 125 306 82 b 151 181 194 82 151 125 b 250 279 151 236 194 279 b 349 181 306 279 349 236 m 654 792 b 556 693 654 736 611 693 b 457 792 500 693 457 736 b 556 890 457 847 500 890 b 654 792 611 890 654 847 m 654 -125 b 556 -224 654 -181 611 -224 b 457 -125 500 -224 457 -181 b 556 -26 457 -69 500 -26 b 654 -125 611 -26 654 -69 "},"⠔":{"ha":806,"x_min":0,"x_max":0,"o":"m 349 181 b 250 82 349 125 306 82 b 151 181 194 82 151 125 b 250 279 151 236 194 279 b 349 181 306 279 349 236 m 654 486 b 556 388 654 431 611 388 b 457 486 500 388 457 431 b 556 585 457 542 500 585 b 654 486 611 585 654 542 "},"⠴":{"ha":806,"x_min":0,"x_max":0,"o":"m 349 181 b 250 82 349 125 306 82 b 151 181 194 82 151 125 b 250 279 151 236 194 279 b 349 181 306 279 349 236 m 654 486 b 556 388 654 431 611 388 b 457 486 500 388 457 431 b 556 585 457 542 500 585 b 654 486 611 585 654 542 m 654 181 b 556 82 654 125 611 82 b 457 181 500 82 457 125 b 556 279 457 236 500 279 b 654 181 611 279 654 236 "},"⡴":{"ha":806,"x_min":0,"x_max":0,"o":"m 349 181 b 250 82 349 125 306 82 b 151 181 194 82 151 125 b 250 279 151 236 194 279 b 349 181 306 279 349 236 m 654 486 b 556 388 654 431 611 388 b 457 486 500 388 457 431 b 556 585 457 542 500 585 b 654 486 611 585 654 542 m 654 181 b 556 82 654 125 611 82 b 457 181 500 82 457 125 b 556 279 457 236 500 279 b 654 181 611 279 654 236 m 349 -125 b 250 -224 349 -181 306 -224 b 151 -125 194 -224 151 -181 b 250 -26 151 -69 194 -26 b 349 -125 306 -26 349 -69 "},"⣴":{"ha":806,"x_min":0,"x_max":0,"o":"m 349 181 b 250 82 349 125 306 82 b 151 181 194 82 151 125 b 250 279 151 236 194 279 b 349 181 306 279 349 236 m 654 486 b 556 388 654 431 611 388 b 457 486 500 388 457 431 b 556 585 457 542 500 585 b 654 486 611 585 654 542 m 654 181 b 556 82 654 125 611 82 b 457 181 500 82 457 125 b 556 279 457 236 500 279 b 654 181 611 279 654 236 m 349 -125 b 250 -224 349 -181 306 -224 b 151 -125 194 -224 151 -181 b 250 -26 151 -69 194 -26 b 349 -125 306 -26 349 -69 m 654 -125 b 556 -224 654 -181 611 -224 b 457 -125 500 -224 457 -181 b 556 -26 457 -69 500 -26 b 654 -125 611 -26 654 -69 "},"⢴":{"ha":806,"x_min":0,"x_max":0,"o":"m 349 181 b 250 82 349 125 306 82 b 151 181 194 82 151 125 b 250 279 151 236 194 279 b 349 181 306 279 349 236 m 654 486 b 556 388 654 431 611 388 b 457 486 500 388 457 431 b 556 585 457 542 500 585 b 654 486 611 585 654 542 m 654 181 b 556 82 654 125 611 82 b 457 181 500 82 457 125 b 556 279 457 236 500 279 b 654 181 611 279 654 236 m 654 -125 b 556 -224 654 -181 611 -224 b 457 -125 500 -224 457 -181 b 556 -26 457 -69 500 -26 b 654 -125 611 -26 654 -69 "}}}
